<?xml version="1.0" encoding="UTF-8"?>
<svg id="Layer_1" data-name="Layer 1" xmlns="http://www.w3.org/2000/svg" viewBox="0 0 100 100">
  <defs>
    <style>
      .cls-1 {
        fill: #fff;
      }
    </style>
  </defs>
  <g>
    <g>
      <polygon class="cls-1" points="96.289 83.259 16.758 83.259 16.758 3.729 20.409 3.729 20.409 79.609 96.289 79.609 96.289 83.259"/>
      <path class="cls-1" d="M13.489,10.65c-.467,0-.935-.178-1.291-.534-.713-.713-.713-1.869,0-2.582l5.095-5.096c.686-.685,1.897-.686,2.582,0l5.096,5.096c.713.712.713,1.869,0,2.581-.713.713-1.869.713-2.582,0l-3.805-3.805-3.804,3.805c-.356.356-.824.535-1.291.535Z"/>
      <path class="cls-1" d="M91.193,88.354c-.467,0-.935-.178-1.291-.534-.713-.713-.713-1.869,0-2.582l3.805-3.804-3.805-3.805c-.713-.712-.713-1.869,0-2.581.713-.713,1.869-.713,2.582,0l5.096,5.096c.342.342.534.807.534,1.291s-.192.949-.534,1.291l-5.096,5.095c-.356.356-.824.534-1.291.534Z"/>
    </g>
    <path class="cls-1" d="M80.963,74.835h-7.206c-.504,0-.913-.409-.913-.913s.409-.913.913-.913h6.293v-6.293c0-.504.409-.913.913-.913s.913.409.913.913v7.206c0,.504-.409.913-.913.913Z"/>
    <g>
      <g>
        <path class="cls-1" d="M60.417,65.466h-21.461c-.378,0-.685-.307-.685-.685v-21.46h1.369v20.775h20.776v1.369Z"/>
        <path class="cls-1" d="M40.363,45.414c-.175,0-.351-.067-.484-.201l-.923-.923-.923.923c-.268.268-.701.268-.969,0-.267-.267-.267-.701,0-.968l1.407-1.407c.268-.268.701-.268.969,0l1.407,1.407c.267.267.267.701,0,.968-.134.134-.31.201-.484.201Z"/>
        <path class="cls-1" d="M59.009,66.874c-.175,0-.351-.067-.484-.201-.267-.267-.267-.701,0-.968l.924-.923-.924-.923c-.267-.267-.267-.701,0-.968.268-.268.701-.268.969,0l1.407,1.407c.267.267.267.701,0,.968l-1.407,1.407c-.134.134-.31.201-.484.201Z"/>
      </g>
      <path class="cls-1" d="M42.869,65.466h-3.913c-.378,0-.685-.307-.685-.685v-3.913c0-.378.307-.685.685-.685h3.913c.378,0,.685.307.685.685v3.913c0,.378-.307.685-.685.685ZM39.64,64.097h2.544v-2.544h-2.544v2.544Z"/>
    </g>
    <path class="cls-1" d="M80.963,74.835c-.233,0-.467-.089-.646-.267L29.181,23.431c-.356-.356-.356-.935,0-1.291.357-.356.934-.356,1.291,0l51.137,51.136c.356.356.356.935,0,1.291-.179.178-.412.267-.646.267Z"/>
  </g>
  <g>
    <path class="cls-1" d="M43.554,89.711h.132v-.721c0-.193.005-.346.016-.455.01-.11.038-.205.085-.283.047-.082.115-.149.203-.2.088-.052.186-.077.294-.077.152,0,.29.057.413.172.082.076.134.169.156.278.021.11.033.267.033.468v.818h.439c.169,0,.299.04.389.12.089.081.134.185.134.31,0,.162-.063.274-.191.339-.127.064-.31.097-.547.097h-.224v2.206c0,.188.006.332.02.433.013.102.048.184.105.246.057.063.149.095.279.095.07,0,.165-.013.285-.037.12-.025.214-.038.281-.038.097,0,.184.039.262.117.077.077.116.174.116.287,0,.193-.105.342-.316.444s-.515.153-.909.153c-.376,0-.66-.062-.854-.188s-.319-.3-.38-.522c-.06-.223-.09-.521-.09-.893v-2.303h-.158c-.173,0-.305-.041-.396-.123s-.137-.186-.137-.312c0-.125.048-.229.144-.31.095-.08.233-.12.415-.12Z"/>
    <path class="cls-1" d="M47.281,89.047c-.168,0-.311-.051-.429-.154-.119-.102-.179-.247-.179-.435,0-.17.062-.31.183-.42.122-.109.263-.165.425-.165.154,0,.292.051.412.15s.181.244.181.435c0,.185-.059.329-.176.433-.117.104-.257.156-.417.156ZM47.874,90.286v3.468c0,.24-.058.422-.171.545-.115.123-.26.184-.436.184s-.318-.062-.429-.188c-.109-.126-.165-.306-.165-.54v-3.433c0-.237.056-.416.165-.536.11-.12.253-.18.429-.18s.32.06.436.18c.113.12.171.287.171.501Z"/>
    <path class="cls-1" d="M53.103,92.131v1.595c0,.253-.057.441-.171.567s-.266.188-.452.188c-.183,0-.329-.062-.442-.188-.112-.126-.169-.314-.169-.567v-1.911c0-.302-.011-.536-.031-.703s-.076-.304-.166-.411c-.092-.106-.235-.16-.432-.16-.393,0-.65.135-.775.404-.124.27-.187.656-.187,1.16v1.621c0,.25-.057.438-.169.565-.113.127-.262.19-.446.19-.182,0-.33-.063-.446-.19-.115-.128-.174-.315-.174-.565v-3.432c0-.226.053-.396.156-.514.104-.117.241-.176.411-.176.164,0,.301.055.411.164.109.11.164.262.164.455v.114c.208-.249.432-.432.668-.55.238-.116.502-.176.791-.176.302,0,.562.061.778.181s.396.302.536.545c.202-.246.419-.429.65-.547.231-.119.488-.179.77-.179.327,0,.61.065.848.193.237.13.414.314.531.555.103.217.154.558.154,1.023v2.342c0,.253-.057.441-.172.567-.113.126-.265.188-.452.188-.182,0-.33-.063-.446-.19-.115-.128-.174-.315-.174-.565v-2.017c0-.258-.011-.464-.032-.62-.022-.154-.081-.285-.179-.391-.096-.105-.243-.158-.439-.158-.158,0-.308.047-.45.141-.142.094-.253.22-.331.378-.088.202-.133.56-.133,1.072Z"/>
    <path class="cls-1" d="M60.425,92.338h-2.348c.003.273.059.514.165.721.107.209.249.365.427.471.177.105.372.158.586.158.144,0,.275-.017.394-.051.119-.033.233-.086.345-.158.111-.071.214-.148.309-.23.093-.082.215-.193.364-.334.062-.053.149-.079.264-.079.123,0,.223.034.299.101.076.068.114.163.114.286,0,.108-.043.235-.127.38-.086.146-.214.284-.385.418-.172.133-.387.244-.646.332-.259.088-.558.131-.895.131-.771,0-1.369-.219-1.797-.658s-.642-1.036-.642-1.789c0-.354.053-.684.158-.986.105-.304.259-.563.462-.78.201-.217.45-.383.746-.499.296-.115.625-.174.984-.174.469,0,.871.1,1.207.297.335.198.586.454.754.768.166.313.25.633.25.957,0,.303-.087.498-.26.587-.173.09-.416.134-.729.134ZM58.078,91.657h2.176c-.029-.41-.14-.717-.332-.921-.191-.203-.444-.305-.758-.305-.299,0-.544.103-.736.31-.191.206-.309.512-.35.916Z"/>
  </g>
  <g>
    <path class="cls-1" d="M6.826,71.241v-.285h-.361c-.374,0-.673-.048-.894-.143-.222-.096-.383-.257-.483-.483-.102-.228-.152-.538-.152-.935,0-.699.172-1.05.515-1.05.111,0,.206.037.286.11.078.073.118.159.118.259,0,.047-.009.128-.026.241-.018.115-.026.211-.026.291,0,.217.063.355.191.417.127.062.31.093.547.093h.286v-.295c0-.457.138-.686.412-.686.197,0,.321.061.374.183.053.121.079.289.079.503v.295h3.178c.236,0,.418.056.542.169.125.112.187.259.187.437,0,.171-.062.312-.187.425-.124.112-.306.169-.542.169h-3.178v.33c0,.179-.04.316-.121.412-.08.098-.185.146-.314.146-.286,0-.43-.2-.43-.603Z"/>
    <path class="cls-1" d="M9.867,66.957h1.002c.243,0,.425.057.547.172.121.113.182.259.182.435,0,.173-.061.315-.184.427s-.305.166-.545.166h-3.34c-.539,0-.809-.194-.809-.584,0-.199.062-.343.188-.431s.312-.136.558-.146c-.246-.143-.432-.29-.558-.441-.126-.15-.188-.352-.188-.604s.062-.497.188-.734.293-.355.501-.355c.146,0,.268.05.362.151.096.101.144.21.144.327,0,.044-.027.15-.082.318-.054.169-.081.317-.081.446,0,.176.046.319.139.431.092.111.229.197.411.26.182.061.397.104.647.127.251.023.556.035.917.035Z"/>
    <path class="cls-1" d="M9.453,61.081v2.348c.273-.003.514-.059.721-.165.209-.107.365-.249.471-.427.105-.177.158-.372.158-.586,0-.144-.017-.275-.051-.394-.033-.119-.086-.233-.158-.345-.071-.111-.148-.214-.23-.309-.082-.093-.193-.215-.334-.364-.053-.062-.079-.149-.079-.264,0-.123.034-.223.101-.299.068-.076.163-.114.286-.114.108,0,.235.043.38.127.146.086.284.214.418.385.133.172.244.387.332.646.088.259.131.558.131.895,0,.771-.219,1.369-.658,1.797s-1.036.642-1.789.642c-.354,0-.684-.053-.986-.158-.304-.105-.563-.259-.78-.462-.217-.201-.383-.45-.499-.746-.115-.296-.174-.625-.174-.984,0-.469.1-.871.297-1.207.198-.335.454-.586.768-.754.313-.166.633-.25.957-.25.303,0,.498.087.587.26.09.173.134.416.134.729ZM8.772,63.428v-2.176c-.41.029-.717.14-.921.332-.203.191-.305.444-.305.758,0,.299.103.544.31.736.206.191.512.309.916.35Z"/>
    <path class="cls-1" d="M12.578,55.796h-1.691c.231.231.407.472.529.723.121.25.182.528.182.832,0,.373-.098.712-.294,1.018-.196.307-.479.547-.846.721-.368.175-.801.262-1.299.262-.51,0-.947-.088-1.312-.264-.365-.176-.643-.42-.833-.731-.19-.312-.286-.658-.286-1.04,0-.321.067-.61.2-.865.134-.255.337-.473.608-.654h-.145c-.22,0-.387-.053-.501-.158s-.171-.242-.171-.409.056-.304.169-.409c.112-.105.28-.158.503-.158h5.186c.533,0,.8.189.8.567,0,.234-.072.388-.216.459-.144.072-.338.108-.584.108ZM9.15,58.146c.322,0,.6-.052.833-.156.232-.104.405-.24.519-.411.112-.169.169-.353.169-.549,0-.214-.057-.41-.169-.589-.113-.179-.285-.322-.517-.431s-.517-.162-.856-.162c-.24,0-.457.031-.65.094-.193.063-.354.149-.481.258-.128.108-.223.232-.286.373-.062.141-.094.29-.094.448,0,.322.133.591.399.804.267.215.645.321,1.134.321Z"/>
    <path class="cls-1" d="M10.921,50.341h-.154c.182.144.334.294.457.452s.215.332.274.52c.061.188.091.401.091.641,0,.291-.061.551-.181.78-.12.23-.286.408-.497.534-.254.149-.62.225-1.098.225h-2.378c-.24,0-.42-.055-.538-.163-.119-.108-.178-.252-.178-.431,0-.182.06-.328.18-.439s.299-.167.536-.167h1.921c.278,0,.512-.023.7-.07.189-.047.337-.131.444-.253.106-.121.16-.286.16-.494,0-.202-.06-.393-.18-.571s-.277-.309-.471-.392c-.17-.066-.542-.101-1.116-.101h-1.459c-.237,0-.416-.056-.536-.167s-.18-.256-.18-.436c0-.178.059-.321.178-.43.118-.108.298-.163.538-.163h3.476c.229,0,.4.052.515.156.114.104.171.238.171.401,0,.165-.059.3-.178.407-.118.106-.284.16-.498.16Z"/>
    <path class="cls-1" d="M9.453,44.672v2.348c.273-.003.514-.059.721-.165.209-.107.365-.249.471-.427.105-.177.158-.372.158-.586,0-.144-.017-.275-.051-.394-.033-.119-.086-.233-.158-.345-.071-.111-.148-.214-.23-.309-.082-.093-.193-.215-.334-.364-.053-.062-.079-.149-.079-.264,0-.123.034-.223.101-.299.068-.076.163-.114.286-.114.108,0,.235.043.38.127.146.086.284.214.418.385.133.172.244.387.332.646.088.259.131.558.131.895,0,.771-.219,1.369-.658,1.797s-1.036.642-1.789.642c-.354,0-.684-.053-.986-.158-.304-.105-.563-.259-.78-.462-.217-.201-.383-.45-.499-.746-.115-.296-.174-.625-.174-.984,0-.469.1-.871.297-1.207.198-.335.454-.586.768-.754.313-.166.633-.25.957-.25.303,0,.498.087.587.26.09.173.134.416.134.729ZM8.772,47.019v-2.176c-.41.029-.717.14-.921.332-.203.191-.305.444-.305.758,0,.299.103.544.31.736.206.191.512.309.916.35Z"/>
    <path class="cls-1" d="M7.383,41.583h.146c-.278-.211-.483-.442-.613-.692-.131-.251-.195-.538-.195-.864,0-.316.068-.599.206-.848s.333-.436.585-.559c.146-.078.305-.13.475-.153s.387-.035.65-.035h2.232c.24,0,.422.055.545.165.123.109.184.252.184.428,0,.18-.062.324-.188.436s-.306.167-.54.167h-2c-.396,0-.698.055-.907.165-.21.109-.314.329-.314.656,0,.215.063.409.191.585.127.176.303.305.524.387.18.059.514.088,1.002.088h1.504c.243,0,.425.057.547.169.121.113.182.259.182.438,0,.173-.062.315-.188.426-.126.112-.306.168-.54.168h-3.468c-.229,0-.399-.05-.512-.15-.113-.099-.169-.235-.169-.408,0-.105.024-.2.074-.285s.125-.153.225-.205c.1-.051.221-.076.364-.076Z"/>
    <path class="cls-1" d="M10.113,32.934c.148,0,.309.045.479.134.17.09.332.226.485.409.154.183.278.414.372.691.093.279.141.593.141.941,0,.741-.217,1.319-.648,1.735-.433.416-1.012.624-1.738.624-.492,0-.928-.095-1.305-.285-.379-.19-.671-.467-.877-.826-.207-.361-.311-.791-.311-1.293,0-.31.046-.595.137-.854.091-.259.208-.479.352-.659.144-.18.297-.317.459-.413.163-.095.314-.143.455-.143.144,0,.266.054.365.16.1.107.148.237.148.39,0,.1-.025.182-.076.248-.052.065-.135.14-.248.222-.223.146-.39.3-.502.459-.11.16-.166.362-.166.608,0,.355.138.641.415.857.276.217.655.325,1.136.325.226,0,.433-.027.622-.083.188-.056.35-.137.483-.242.133-.105.234-.232.303-.383.069-.148.104-.312.104-.492,0-.239-.056-.445-.167-.617-.111-.171-.281-.322-.51-.455-.135-.072-.24-.151-.316-.236s-.114-.189-.114-.312c0-.146.056-.268.167-.365.111-.096.23-.145.356-.145Z"/>
    <path class="cls-1" d="M11.748,31.014l-.269-.11-3.718,1.477c-.214.091-.369.136-.466.136-.103,0-.198-.025-.286-.078s-.158-.126-.211-.218c-.053-.093-.078-.188-.078-.288,0-.173.055-.303.164-.391.11-.088.268-.166.473-.233l2.953-1.015-2.746-.963c-.223-.076-.397-.145-.523-.207-.126-.061-.211-.126-.255-.195-.044-.068-.065-.166-.065-.292,0-.091.023-.178.072-.262.048-.083.113-.147.195-.193.082-.045.169-.067.26-.067.056.012.135.03.236.057.104.026.207.059.312.097l4.096,1.564c.36.135.643.267.848.396s.363.3.473.512c.11.213.165.499.165.859,0,.352-.038.615-.114.791s-.215.264-.418.264c-.138,0-.243-.042-.318-.125-.074-.084-.111-.207-.111-.371,0-.064.008-.128.025-.189.018-.076.027-.142.027-.197,0-.138-.021-.246-.062-.326-.041-.078-.111-.149-.213-.213-.101-.062-.25-.135-.445-.217Z"/>
  </g>
</svg>