<?xml version="1.0" encoding="UTF-8"?>
<svg id="Layer_1" data-name="Layer 1" xmlns="http://www.w3.org/2000/svg" viewBox="0 0 100 100">
  <defs>
    <style>
      .cls-1 {
        fill: #fff;
      }
    </style>
  </defs>
  <g>
    <path class="cls-1" d="M45.48,12.93v1.9h1.11l.78.78v-2.68h-1.89ZM60.06,60.11c.12-.45.26-.88.43-1.31-.17.42-.32.86-.43,1.31Z"/>
    <path class="cls-1" d="M99.03,45.6l-14.15-11.38c-.48-.38-1.07-.59-1.67-.59-.39,0-.78.08-1.15.26-.93.44-1.51,1.36-1.51,2.41v4.61h-8.54v-5.24c0-.06,0-.12-.02-.18-.01-.18-.06-.36-.13-.53-.09-.23-.23-.45-.41-.63l-22.74-22.73c-.36-.37-.85-.56-1.34-.56H7.58C3.4,11.04,0,14.44,0,18.62v68.21C0,91.01,3.4,94.41,7.58,94.41h56.85c4.17,0,7.58-3.4,7.58-7.58v-32.49h8.54v4.74c0,1.02.57,1.94,1.5,2.39.37.18.76.27,1.16.27.6,0,1.19-.21,1.67-.58l14.15-11.4c.64-.52,1-1.27,1-2.08,0-.82-.36-1.57-1-2.08ZM49.27,17.51l16.26,16.27h-14.37c-1.04,0-1.89-.85-1.89-1.9v-14.37ZM68.21,86.83c0,2.09-1.7,3.79-3.78,3.79H7.58c-2.09,0-3.79-1.7-3.79-3.79V18.62c0-2.09,1.7-3.79,3.79-3.79h37.9v-1.9h1.89v2.68l-.78-.78h-1.11v17.05c0,3.14,2.55,5.69,5.68,5.69h17.05v3.6c-7.85,1.39-13.82,8.25-13.82,16.5s5.92,15.1,13.82,16.48v12.68ZM68.21,71.15c-3.36-1.2-5.76-4.43-5.76-8.15,0-3.76,2.41-6.97,5.76-8.16v16.31ZM83.31,58.86v-5.9c0-.76-.63-1.38-1.38-1.38h-10.83c-.16,0-.33,0-.5.01-.16.01-.32.02-.49.04-.16.01-.32.03-.48.05-.16.02-.32.04-.48.07-.32.05-.63.12-.94.2-.01,0-.02.01-.03.01-.3.08-.59.17-.87.27-.07.03-.13.05-.19.07-.07.02-.14.05-.2.08-.15.05-.31.12-.46.19-.02.01-.04.01-.06.03-.25.11-.5.23-.73.36-.33.17-.64.36-.94.57-.2.13-.39.27-.57.42-.15.11-.3.23-.44.35-.16.13-.3.27-.45.41-.19.18-.38.36-.55.56-.02.02-.04.04-.06.06-.19.21-.37.42-.54.64-.1.12-.19.24-.28.37-.09.12-.18.25-.26.38-.17.25-.33.52-.48.79-.03.06-.07.12-.1.18-.02.03-.03.06-.05.09-.17.33-.32.67-.46,1.02-.17.43-.31.86-.43,1.31-.04.16-.08.31-.11.47-.04.15-.07.31-.09.47-.02.11-.04.22-.06.33-.02.15-.04.3-.05.44-.01.11-.02.22-.03.33v.05c-.01.09-.01.2-.02.3-.01.16-.01.32-.01.49,0,1.16.18,2.31.53,3.42-1.97-2.47-3.06-5.53-3.06-8.75,0-.24.01-.48.02-.72.01-.23.03-.47.05-.7.04-.35.08-.7.15-1.04.02-.16.05-.31.09-.47.03-.17.07-.33.12-.5.04-.17.09-.34.14-.51s.1-.34.16-.51c.05-.17.11-.33.18-.5.06-.16.12-.33.19-.49.09-.21.18-.42.28-.62.09-.2.2-.4.31-.6.1-.2.22-.4.34-.59.1-.17.21-.34.32-.51.14-.21.29-.42.45-.62.02-.02.03-.05.05-.07.11-.15.23-.29.35-.44.24-.29.49-.57.75-.84.1-.11.2-.21.31-.31.11-.11.22-.21.33-.31.13-.13.27-.25.41-.36.17-.14.34-.28.51-.41.18-.14.36-.27.54-.39.18-.13.36-.25.55-.36.19-.12.38-.23.57-.34.17-.1.34-.19.52-.28.17-.09.35-.17.53-.25.18-.09.36-.17.55-.24.73-.3,1.49-.53,2.28-.7.15-.03.31-.06.47-.09.22-.04.44-.08.67-.1.02-.01.05-.01.08-.01.2-.03.4-.05.61-.06.02-.01.05-.01.07-.01.34-.03.68-.04,1.03-.04h10.79c.75,0,1.38-.62,1.38-1.38v-5.79l13.9,11.18-13.9,11.18Z"/>
    <path class="cls-1" d="M45.48,12.93v1.9h1.11l.78.78v-2.68h-1.89Z"/>
    <path class="cls-1" d="M45.48,12.93v1.9h1.11l.78.78v-2.68h-1.89Z"/>
  </g>
  <g>
    <path class="cls-1" d="M20.28,85.672h-9.92c-.713,0-1.292-.579-1.292-1.292v-23.25c0-.713.579-1.292,1.292-1.292h9.92c.713,0,1.292.578,1.292,1.292v23.25c0,.713-.579,1.292-1.292,1.292ZM11.652,83.088h7.336v-20.667h-7.336v20.667Z"/>
    <path class="cls-1" d="M35.09,85.672h-9.92c-.713,0-1.292-.579-1.292-1.292v-29.279c0-.713.579-1.292,1.292-1.292h9.92c.713,0,1.292.578,1.292,1.292v29.279c0,.713-.579,1.292-1.292,1.292ZM26.462,83.088h7.336v-26.696h-7.336v26.696Z"/>
    <path class="cls-1" d="M49.9,85.672h-9.92c-.713,0-1.292-.579-1.292-1.292v-35.31c0-.713.579-1.292,1.292-1.292h9.92c.713,0,1.292.578,1.292,1.292v35.31c0,.713-.579,1.292-1.292,1.292ZM41.272,83.088h7.336v-32.727h-7.336v32.727Z"/>
  </g>
</svg>