<?xml version="1.0" encoding="UTF-8"?>
<svg id="Layer_1" data-name="Layer 1" xmlns="http://www.w3.org/2000/svg" viewBox="0 0 100 100">
  <defs>
    <style>
      .cls-1 {
        fill: #fff;
      }

      .cls-2 {
        fill: #878787;
      }
    </style>
  </defs>
  <g>
    <rect class="cls-2" x="7.455" y="78.906" width="79.909" height=".856"/>
    <rect class="cls-2" x="7.455" y="65.588" width="79.909" height=".856"/>
    <rect class="cls-2" x="7.455" y="52.27" width="79.909" height=".856"/>
    <rect class="cls-2" x="7.455" y="38.952" width="79.909" height=".856"/>
    <rect class="cls-2" x="7.455" y="25.634" width="79.909" height=".856"/>
    <rect class="cls-2" x="73.618" y="12.744" width=".856" height="79.909"/>
    <rect class="cls-2" x="60.3" y="12.744" width=".856" height="79.909"/>
    <rect class="cls-2" x="46.982" y="12.744" width=".856" height="79.909"/>
    <rect class="cls-2" x="33.664" y="12.744" width=".856" height="79.909"/>
    <rect class="cls-2" x="20.345" y="12.744" width=".856" height="79.909"/>
  </g>
  <path class="cls-1" d="M98.516,93.794H10.88c-2.518,0-4.566-2.048-4.566-4.566V1.592c0-.63.511-1.141,1.141-1.141s1.141.511,1.141,1.141v87.636c0,1.258,1.024,2.283,2.283,2.283h87.636c.63,0,1.141.511,1.141,1.142s-.511,1.142-1.141,1.142Z"/>
  <path class="cls-1" d="M1.484,8.704c-.292,0-.584-.111-.807-.334-.446-.446-.446-1.169,0-1.614L6.648.785c.446-.446,1.168-.446,1.614,0l5.972,5.971c.446.446.446,1.169,0,1.614s-1.168.446-1.614,0L7.455,3.206l-5.164,5.164c-.223.223-.515.334-.807.334Z"/>
  <path class="cls-1" d="M92.545,99.765c-.292,0-.584-.112-.807-.335-.446-.446-.446-1.168,0-1.614l5.164-5.164-5.164-5.164c-.446-.446-.446-1.168,0-1.614.446-.446,1.168-.446,1.614,0l5.971,5.971c.446.446.446,1.168,0,1.614l-5.971,5.971c-.223.223-.515.335-.807.335Z"/>
  <g>
    <circle class="cls-1" cx="20.773" cy="66.016" r="2.884"/>
    <g>
      <path class="cls-1" d="M20.773,72.879c-.312,0-.565-.253-.565-.565v-12.594c0-.312.253-.565.565-.565s.565.253.565.565v12.594c0,.312-.253.565-.565.565Z"/>
      <path class="cls-1" d="M23.657,60.284h-5.767c-.312,0-.565-.253-.565-.565s.253-.565.565-.565h5.767c.312,0,.565.253.565.565s-.253.565-.565.565Z"/>
      <path class="cls-1" d="M23.657,72.879h-5.767c-.312,0-.565-.253-.565-.565s.253-.565.565-.565h5.767c.312,0,.565.253.565.565s-.253.565-.565.565Z"/>
      <path class="cls-1" d="M23.657,60.284h-5.767c-.312,0-.565-.253-.565-.565s.253-.565.565-.565h5.767c.312,0,.565.253.565.565s-.253.565-.565.565Z"/>
    </g>
  </g>
  <g>
    <circle class="cls-1" cx="47.41" cy="39.38" r="2.884"/>
    <g>
      <path class="cls-1" d="M47.41,46.243c-.312,0-.565-.253-.565-.565v-12.595c0-.312.253-.565.565-.565s.565.253.565.565v12.595c0,.312-.253.565-.565.565Z"/>
      <path class="cls-1" d="M50.293,33.648h-5.768c-.312,0-.565-.253-.565-.565s.253-.565.565-.565h5.768c.312,0,.565.253.565.565s-.253.565-.565.565Z"/>
      <path class="cls-1" d="M50.293,46.243h-5.768c-.312,0-.565-.253-.565-.565s.253-.565.565-.565h5.768c.312,0,.565.253.565.565s-.253.565-.565.565Z"/>
      <path class="cls-1" d="M50.293,33.648h-5.768c-.312,0-.565-.253-.565-.565s.253-.565.565-.565h5.768c.312,0,.565.253.565.565s-.253.565-.565.565Z"/>
    </g>
  </g>
  <g>
    <circle class="cls-1" cx="74.046" cy="52.698" r="2.884"/>
    <g>
      <path class="cls-1" d="M74.046,59.56c-.312,0-.565-.253-.565-.565v-12.594c0-.312.253-.565.565-.565s.565.253.565.565v12.594c0,.312-.253.565-.565.565Z"/>
      <path class="cls-1" d="M76.93,46.966h-5.768c-.312,0-.565-.253-.565-.565s.253-.565.565-.565h5.768c.312,0,.565.253.565.565s-.253.565-.565.565Z"/>
      <path class="cls-1" d="M76.93,59.56h-5.768c-.312,0-.565-.253-.565-.565s.253-.565.565-.565h5.768c.312,0,.565.253.565.565s-.253.565-.565.565Z"/>
      <path class="cls-1" d="M76.93,46.966h-5.768c-.312,0-.565-.253-.565-.565s.253-.565.565-.565h5.768c.312,0,.565.253.565.565s-.253.565-.565.565Z"/>
    </g>
  </g>
  <path class="cls-1" d="M20.773,66.587c-.146,0-.292-.056-.404-.167-.223-.223-.223-.584,0-.807l26.636-26.636c.174-.173.439-.215.659-.107l26.636,13.318c.282.141.397.484.256.766-.14.282-.484.397-.766.256l-26.268-13.134-26.345,26.345c-.112.112-.258.167-.404.167Z"/>
  <g>
    <path class="cls-1" d="M20.773,97.436c-.63,0-1.141-.511-1.141-1.142v-6.78c0-.631.511-1.142,1.141-1.142s1.141.511,1.141,1.142v6.78c0,.631-.511,1.142-1.141,1.142Z"/>
    <path class="cls-1" d="M34.092,97.436c-.63,0-1.141-.511-1.141-1.142v-6.78c0-.631.511-1.142,1.141-1.142s1.141.511,1.141,1.142v6.78c0,.631-.511,1.142-1.141,1.142Z"/>
    <path class="cls-1" d="M47.41,97.436c-.63,0-1.141-.511-1.141-1.142v-6.78c0-.631.511-1.142,1.141-1.142s1.141.511,1.141,1.142v6.78c0,.631-.511,1.142-1.141,1.142Z"/>
    <path class="cls-1" d="M60.728,97.436c-.63,0-1.141-.511-1.141-1.142v-6.78c0-.631.511-1.142,1.141-1.142s1.141.511,1.141,1.142v6.78c0,.631-.511,1.142-1.141,1.142Z"/>
    <path class="cls-1" d="M74.046,97.436c-.63,0-1.141-.511-1.141-1.142v-6.78c0-.631.511-1.142,1.141-1.142s1.141.511,1.141,1.142v6.78c0,.631-.511,1.142-1.141,1.142Z"/>
  </g>
  <g>
    <path class="cls-1" d="M10.846,80.476h-6.781c-.63,0-1.141-.511-1.141-1.141s.511-1.141,1.141-1.141h6.781c.63,0,1.141.511,1.141,1.141s-.511,1.141-1.141,1.141Z"/>
    <path class="cls-1" d="M10.846,67.158h-6.781c-.63,0-1.141-.511-1.141-1.141s.511-1.141,1.141-1.141h6.781c.63,0,1.141.511,1.141,1.141s-.511,1.141-1.141,1.141Z"/>
    <path class="cls-1" d="M10.846,53.839h-6.781c-.63,0-1.141-.511-1.141-1.141s.511-1.141,1.141-1.141h6.781c.63,0,1.141.511,1.141,1.141s-.511,1.141-1.141,1.141Z"/>
    <path class="cls-1" d="M10.846,40.521h-6.781c-.63,0-1.141-.511-1.141-1.141s.511-1.141,1.141-1.141h6.781c.63,0,1.141.511,1.141,1.141s-.511,1.141-1.141,1.141Z"/>
    <path class="cls-1" d="M10.846,27.203h-6.781c-.63,0-1.141-.511-1.141-1.141s.511-1.141,1.141-1.141h6.781c.63,0,1.141.511,1.141,1.141s-.511,1.141-1.141,1.141Z"/>
  </g>
</svg>