<?xml version="1.0" encoding="UTF-8"?>
<svg id="Layer_1" data-name="Layer 1" xmlns="http://www.w3.org/2000/svg" viewBox="0 0 100 100">
  <defs>
    <style>
      .cls-1 {
        fill: #fff;
      }
    </style>
  </defs>
  <g>
    <g>
      <path class="cls-1" d="M62.452,59.817c.113-.423.244-.827.404-1.231-.16.395-.301.808-.404,1.231Z"/>
      <path class="cls-1" d="M99.061,46.186l-13.293-10.69c-.451-.357-1.005-.554-1.569-.554-.366,0-.733.075-1.08.244-.874.413-1.419,1.278-1.419,2.264v4.331h-8.022v-4.923c0-.056,0-.113-.019-.169-.009-.169-.056-.338-.122-.498-.085-.216-.216-.423-.385-.592l-21.362-21.353c-.338-.348-.799-.526-1.259-.526h-13.33c-.319-3.232-3.053-5.759-6.369-5.759H6.407c-3.542,0-6.407,2.875-6.407,6.407v22.471c0,3.41,2.668,6.2,6.031,6.388v41.691c0,3.927,3.194,7.121,7.121,7.121h53.405c3.917,0,7.121-3.194,7.121-7.121v-30.521h8.022v4.453c0,.958.536,1.822,1.409,2.245.348.169.714.254,1.09.254.564,0,1.118-.197,1.569-.545l13.293-10.709c.601-.489.939-1.193.939-1.954,0-.77-.338-1.475-.939-1.954ZM52.316,19.798l15.275,15.284h-13.499c-.977,0-1.775-.799-1.775-1.785v-13.499ZM6.407,40.427c-.132,0-.254-.009-.376-.019-1.804-.188-3.213-1.719-3.213-3.57V14.368c0-1.982,1.606-3.588,3.589-3.588h24.425c1.757,0,3.222,1.268,3.523,2.94.047.207.066.432.066.648v22.471c0,1.973-1.606,3.589-3.589,3.589H6.407ZM70.108,84.918c0,1.963-1.597,3.56-3.551,3.56H13.152c-1.963,0-3.56-1.597-3.56-3.56v-41.672h21.24c3.532,0,6.407-2.875,6.407-6.407v-19.558h11.517v16.017c0,2.95,2.396,5.345,5.336,5.345h16.017v3.382c-7.374,1.306-12.983,7.75-12.983,15.5s5.561,14.185,12.983,15.481v11.912ZM70.108,70.188c-3.157-1.127-5.411-4.162-5.411-7.656,0-3.532,2.264-6.548,5.411-7.666v15.322ZM84.293,58.643v-5.542c0-.714-.592-1.296-1.296-1.296h-10.174c-.15,0-.31,0-.47.009-.15.009-.301.019-.46.038-.15.009-.301.028-.451.047-.15.019-.301.038-.451.066-.301.047-.592.113-.883.188-.009,0-.019.009-.028.009-.282.075-.554.16-.817.254-.066.028-.122.047-.178.066-.066.019-.132.047-.188.075-.141.047-.291.113-.432.178-.019.009-.038.009-.056.028-.235.103-.47.216-.686.338-.31.16-.601.338-.883.535-.188.122-.366.254-.535.395-.141.103-.282.216-.413.329-.15.122-.282.254-.423.385-.179.169-.357.338-.517.526-.019.019-.038.038-.056.056-.178.197-.348.395-.507.601-.094.113-.178.225-.263.348-.085.113-.169.235-.244.357-.16.235-.31.488-.451.742-.028.056-.066.113-.094.169-.019.028-.028.056-.047.085-.16.31-.301.629-.432.958-.16.404-.291.808-.404,1.231-.037.15-.075.291-.103.442-.038.141-.066.291-.085.441-.019.103-.038.207-.056.31-.019.141-.037.282-.047.413-.009.103-.019.207-.028.31v.047c-.009.085-.009.188-.019.282-.009.15-.009.301-.009.46,0,1.09.169,2.17.498,3.213-1.851-2.32-2.875-5.195-2.875-8.22,0-.226.009-.451.019-.676.009-.216.028-.441.047-.658.038-.329.075-.658.141-.977.019-.15.047-.291.085-.442.028-.16.066-.31.113-.47.038-.16.085-.319.132-.479.047-.16.094-.319.15-.479.047-.16.103-.31.169-.47.056-.15.113-.31.179-.46.085-.197.169-.395.263-.582.085-.188.188-.376.291-.564.094-.188.207-.376.319-.554.094-.16.197-.319.301-.479.132-.197.272-.395.423-.582.019-.019.028-.047.047-.066.103-.141.216-.272.329-.413.225-.272.46-.535.705-.789.094-.103.188-.197.291-.291.103-.103.207-.197.31-.291.122-.122.254-.235.385-.338.16-.132.319-.263.479-.385.169-.132.338-.254.507-.366.169-.122.338-.235.517-.338.179-.113.357-.216.535-.319.16-.094.319-.178.489-.263.16-.085.329-.16.498-.235.169-.085.338-.16.517-.225.686-.282,1.4-.498,2.142-.658.141-.028.291-.056.441-.085.207-.038.413-.075.629-.094.019-.009.047-.009.075-.009.188-.028.376-.047.573-.056.019-.009.047-.009.066-.009.319-.028.639-.038.968-.038h10.136c.705,0,1.296-.582,1.296-1.296v-5.439l13.058,10.503-13.058,10.503Z"/>
    </g>
    <g>
      <path class="cls-1" d="M25.082,59.563h-9.319c-.667,0-1.212.545-1.212,1.212v21.841c0,.676.545,1.221,1.212,1.221h9.319c.676,0,1.212-.545,1.212-1.221v-21.841c0-.667-.535-1.212-1.212-1.212ZM23.87,81.404h-6.895v-19.408h6.895v19.408Z"/>
      <path class="cls-1" d="M38.995,53.899h-9.319c-.667,0-1.212.545-1.212,1.221v27.496c0,.676.545,1.221,1.212,1.221h9.319c.676,0,1.221-.545,1.221-1.221v-27.496c0-.676-.545-1.221-1.221-1.221ZM37.783,81.404h-6.886v-25.073h6.886v25.073Z"/>
      <path class="cls-1" d="M52.907,48.234h-9.319c-.667,0-1.212.545-1.212,1.212v33.17c0,.676.545,1.221,1.212,1.221h9.319c.676,0,1.221-.545,1.221-1.221v-33.17c0-.667-.545-1.212-1.221-1.212ZM51.696,81.404h-6.886v-30.737h6.886v30.737Z"/>
    </g>
  </g>
  <g>
    <polygon class="cls-1" points="7.957 22.457 7.957 24.861 10.935 24.861 10.935 26.346 7.957 26.346 7.957 30.291 6.078 30.291 6.078 20.944 11.846 20.944 11.846 22.457 7.957 22.457"/>
    <path class="cls-1" d="M13.171,20.944v9.347h1.879v-9.347h-1.879Z"/>
    <path class="cls-1" d="M16.402,20.944v1.512h2.49v7.835h1.879v-7.835h2.489v-1.512h-6.858Z"/>
    <path class="cls-1" d="M30.737,26.186c-.272-.357-.601-.629-.986-.808s-.883-.357-1.484-.535c-.451-.132-.799-.254-1.043-.357s-.451-.235-.611-.395c-.169-.169-.254-.376-.254-.629,0-.357.113-.629.329-.817.216-.188.507-.282.874-.282.423,0,.761.113,1.015.319.254.207.395.479.404.798h2.067c-.066-.845-.394-1.494-.996-1.963-.601-.47-1.39-.705-2.349-.705-.648,0-1.221.113-1.719.329-.498.216-.883.535-1.165.949-.272.404-.413.892-.413,1.437,0,.592.141,1.062.413,1.419.272.348.592.611.977.789.376.169.864.348,1.475.526.451.122.799.244,1.052.338.254.103.47.244.639.423.169.178.254.413.254.686,0,.338-.132.611-.376.827-.254.207-.592.31-1.033.31-.423,0-.761-.113-1.005-.329-.254-.226-.385-.526-.413-.911h-2.01c.009.564.169,1.062.47,1.484.301.413.714.742,1.24.958.526.226,1.109.338,1.757.338.695,0,1.287-.122,1.785-.385.498-.254.874-.592,1.137-1.024.263-.423.385-.892.385-1.39,0-.582-.132-1.043-.413-1.4Z"/>
  </g>
</svg>