<?xml version="1.0" encoding="UTF-8"?>
<svg id="Layer_1" data-name="Layer 1" xmlns="http://www.w3.org/2000/svg" xmlns:xlink="http://www.w3.org/1999/xlink" viewBox="0 0 100 100">
  <defs>
    <style>
      .cls-1 {
        fill: #fff;
      }

      .cls-2 {
        fill: url(#linear-gradient);
      }
    </style>
    <linearGradient id="linear-gradient" x1="65.205" y1="8.552" x2="51.394" y2="55.865" gradientUnits="userSpaceOnUse">
      <stop offset=".314" stop-color="#fff"/>
      <stop offset=".374" stop-color="#fff" stop-opacity=".954"/>
      <stop offset=".481" stop-color="#fff" stop-opacity=".831"/>
      <stop offset=".623" stop-color="#fff" stop-opacity=".631"/>
      <stop offset=".795" stop-color="#fff" stop-opacity=".355"/>
      <stop offset=".99" stop-color="#fff" stop-opacity=".008"/>
      <stop offset=".994" stop-color="#fff" stop-opacity="0"/>
    </linearGradient>
  </defs>
  <path class="cls-2" d="M20.265,30.228v-5.535c0-.721.584-1.305,1.305-1.305h5.49c.721,0,1.305.584,1.305,1.305v7.11c0,.721.584,1.305,1.305,1.305h3.848c.721,0,1.305-.584,1.305-1.305v-2.25c0-.721.584-1.305,1.305-1.305h3.337c.721,0,1.305.584,1.305,1.305v8.73c0,.721.584,1.305,1.305,1.305h3.389c.721,0,1.305-.584,1.305-1.305v-2.43c0-.721.584-1.305,1.305-1.305h4.546c.721,0,1.305.584,1.305,1.305v4.59c0,.721.584,1.305,1.305,1.305h4.23c.721,0,1.305.584,1.305,1.305v3.87c0,.721.584,1.305,1.305,1.305h3.69c.721,0,1.305.584,1.305,1.305v4.23c0,.721.584,1.305,1.305,1.305h3.51c.721,0,1.305-.584,1.305-1.305v-1.53c0-.721.584-1.305,1.305-1.305h3.33c.721,0,1.305-.584,1.305-1.305v-3.51c0-.721.584-1.305,1.305-1.305h5.455c.721,0,1.305.584,1.305,1.305v25.127H20.265V30.228Z"/>
  <g>
    <path class="cls-1" d="M93.773,78.932h-50.523c-.885,0-1.603-.718-1.603-1.603s.718-1.603,1.603-1.603h50.523c1.666,0,3.021-1.355,3.021-3.02V17.024c0-1.665-1.355-3.02-3.021-3.02H6.226c-1.665,0-3.02,1.355-3.02,3.02v51.922c0,.885-.718,1.603-1.603,1.603s-1.603-.718-1.603-1.603V17.024c0-3.433,2.793-6.226,6.226-6.226h87.547c3.434,0,6.227,2.793,6.227,6.226v55.682c0,3.433-2.793,6.226-6.227,6.226Z"/>
    <path class="cls-1" d="M32.052,68.072h-.176v-4.808c0-5.813-4.729-10.542-10.542-10.542s-10.543,4.729-10.543,10.542v4.808h-.175c-1.564,0-2.833,1.268-2.833,2.833v15.465c0,1.564,1.268,2.833,2.833,2.833h21.437c1.565,0,2.833-1.268,2.833-2.833v-15.465c0-1.564-1.268-2.833-2.833-2.833ZM14.469,63.264c0-3.785,3.08-6.864,6.865-6.864s6.864,3.079,6.864,6.864v4.808h-13.729v-4.808Z"/>
  </g>
</svg>