<?xml version="1.0" encoding="UTF-8"?>
<svg id="Layer_1" data-name="Layer 1" xmlns="http://www.w3.org/2000/svg" xmlns:xlink="http://www.w3.org/1999/xlink" viewBox="0 0 100 100">
  <defs>
    <style>
      .cls-1 {
        fill: #fff;
      }

      .cls-2 {
        fill: url(#linear-gradient);
      }
    </style>
    <linearGradient id="linear-gradient" x1="66.077" y1="8.591" x2="50.06" y2="63.464" gradientUnits="userSpaceOnUse">
      <stop offset=".314" stop-color="#fff"/>
      <stop offset=".374" stop-color="#fff" stop-opacity=".954"/>
      <stop offset=".481" stop-color="#fff" stop-opacity=".831"/>
      <stop offset=".623" stop-color="#fff" stop-opacity=".631"/>
      <stop offset=".795" stop-color="#fff" stop-opacity=".355"/>
      <stop offset=".99" stop-color="#fff" stop-opacity=".008"/>
      <stop offset=".994" stop-color="#fff" stop-opacity="0"/>
    </linearGradient>
  </defs>
  <path class="cls-2" d="M13.956,33.73v-6.419c0-.836.678-1.514,1.514-1.514h6.367c.836,0,1.514.678,1.514,1.514v8.246c0,.836.678,1.514,1.514,1.514h4.462c.836,0,1.514-.678,1.514-1.514v-2.61c0-.836.678-1.514,1.514-1.514h3.87c.836,0,1.514.678,1.514,1.514v10.125c0,.836.678,1.514,1.514,1.514h3.931c.836,0,1.514-.678,1.514-1.514v-2.818c0-.836.678-1.514,1.514-1.514h5.273c.836,0,1.514.678,1.514,1.514v5.323c0,.836.678,1.514,1.514,1.514h4.906c.836,0,1.514.678,1.514,1.514v4.488c0,.836.678,1.514,1.514,1.514h4.28c.836,0,1.514.678,1.514,1.514v4.906c0,.836.678,1.514,1.514,1.514h4.071c.836,0,1.514-.678,1.514-1.514v-1.774c0-.836.678-1.514,1.514-1.514h3.862c.836,0,1.514-.678,1.514-1.514v-4.071c0-.836.678-1.514,1.514-1.514h6.326c.836,0,1.514.678,1.514,1.514v29.142H13.956v-47.565Z"/>
  <path class="cls-1" d="M100,25.44v55.39c0,3.56-2.9,6.46-6.46,6.46h-38.56c-1.03,0-1.86-.83-1.86-1.86s.83-1.86,1.86-1.86h38.56c1.51,0,2.74-1.23,2.74-2.74V25.44c0-1.51-1.23-2.74-2.74-2.74H6.46c-1.51,0-2.74,1.23-2.74,2.74v47.4c0,1.02-.83,1.86-1.86,1.86S0,73.86,0,72.84V25.44C0,21.88,2.9,18.98,6.46,18.98h87.08c3.56,0,6.46,2.9,6.46,6.46Z"/>
  <g>
    <path class="cls-1" d="M40.784,75.171c-.224-.644-.877-.868-1.446-1.064-.261-.084-.522-.177-.691-.289l-.606-1.549c.047-.168.159-.392.252-.606.271-.551.541-1.129.364-1.652-.289-.849-2.529-2.995-3.275-3.434l-.065-.037c-.159-.093-.383-.233-.672-.233h-.103c-.289.028-.644.205-1.027.392-.224.112-.597.299-.746.327l-1.568-.644c-.084-.159-.168-.392-.243-.625-.196-.569-.42-1.213-.989-1.456-.373-.159-1.148-.224-1.586-.252-.196,0-.485-.009-.83-.009-1.446,0-2.38.121-2.781.373-.392.261-.569.784-.756,1.306-.084.243-.177.523-.28.681l-1.54.616c-.177-.047-.411-.159-.635-.271-.429-.205-.859-.411-1.269-.411-.131,0-.252.019-.364.056-.802.299-3.023,2.538-3.453,3.275-.074.149-.177.327-.215.532-.084.448.159.942.383,1.418.121.252.243.513.289.7l-.644,1.54c-.159.084-.382.159-.588.224-.588.205-1.241.429-1.474.998-.382.905-.308,3.882-.093,4.731.187.765.942,1.026,1.549,1.232.233.084.457.159.625.252l.625,1.558c-.047.159-.149.383-.252.588-.261.541-.56,1.157-.373,1.689.159.457,1.297,1.745,1.474,1.922.289.289,1.465,1.372,1.978,1.614.177.084.355.121.551.121.457,0,.896-.224,1.269-.42.243-.121.513-.261.663-.261.149.047,1.232.504,1.54.644.065.131.177.457.252.662.112.327.215.616.308.784.261.467.504.644,1.054.756.392.084,1.213.14,2.09.14.728,0,2.025-.037,2.557-.299.532-.252.728-.877.896-1.428.065-.196.149-.467.215-.588l1.614-.662c.159.056.373.149.569.252.476.224.952.448,1.362.448.103,0,.196-.009.289-.037.336-.112,1.017-.672,1.39-.998.467-.411,1.932-1.848,2.24-2.585.233-.56-.056-1.176-.317-1.708-.103-.205-.205-.429-.261-.607.14-.252.233-.569.336-.877.084-.271.168-.541.252-.681.065-.084.392-.196.616-.271.578-.187,1.306-.42,1.54-1.101.308-.914.308-3.863,0-4.778ZM38.955,79.052c-.439.289-1.577.485-1.866.868-.177.233-.392,1.082-.541,1.446-.14.355-.485.868-.56,1.176-.159.597.485,1.446.672,2.025.028.252-1.773,1.941-2.1,2.174l-1.894-.737c-.411.103-.737.373-1.12.541-.476.187-1.213.345-1.596.56-.476.252-.672,1.4-.933,1.876-.98.271-2.034.205-3.023.047-.308-.411-.494-1.605-.868-1.866-.271-.196-1.278-.457-1.689-.616-.289-.121-.83-.485-1.064-.532-.429-.065-1.437.606-1.894.728-.28,0-1.95-1.773-2.165-2.118l.728-1.885c-.131-.401-.382-.737-.532-1.12-.187-.467-.355-1.213-.56-1.596-.271-.495-1.418-.625-1.885-.933-.271-.98-.205-2.025-.047-3.023.112-.168,1.549-.485,1.829-.821.215-.261.345-.97.494-1.325.177-.439.737-1.353.672-1.745-.093-.467-.569-1.129-.7-1.624-.028-.252,1.773-1.941,2.109-2.174l1.801.737c.662-.205,1.288-.541,1.932-.802.457-.187.933-.14,1.194-.625.131-.243.523-1.521.644-1.596.271-.028.551-.075.812-.093.737-.065,1.446-.009,2.174.093.28.457.476,1.577.868,1.866.271.196,1.11.411,1.502.56.355.149.765.457,1.12.541.588.14,1.456-.476,2.025-.681.84.579,1.521,1.344,2.165,2.118l-.737,1.801c.187.681.551,1.278.821,1.932.187.476.121.905.625,1.194.252.149,1.512.523,1.586.644.159.998.159,1.988,0,2.986Z"/>
    <path class="cls-1" d="M33.664,74.013c-1.297-2.249-3.611-3.583-6.196-3.583-.233,0-.467,0-.7.028-2.641.243-4.834,1.885-5.869,4.386s-.644,5.207,1.045,7.25c1.372,1.652,3.396,2.594,5.543,2.594,2.585,0,4.899-1.325,6.177-3.555,1.288-2.23,1.288-4.899,0-7.12ZM27.617,82.775c-6.756.215-7.129-10.218-.308-10.414,6.868-.187,7.129,10.208.308,10.414Z"/>
  </g>
  <g>
    <path class="cls-1" d="M48.582,71.499c-.079-.35-.289-.646-.594-.833-.209-.13-.45-.198-.697-.198-.463,0-.884.232-1.126.622l-.019.031c-2.725-7.889-10.256-13.307-18.688-13.307-.538,0-1.084.022-1.621.067-9.343.765-16.903,8.092-17.982,17.483-.003.084-.004.159.006.239.081.71.68,1.246,1.394,1.246.054,0,.107-.003.162-.009.66-.076,1.182-.609,1.238-1.254.938-7.964,7.422-14.232,15.415-14.904.468-.039.932-.058,1.394-.058,7.078,0,13.428,4.465,15.882,11.01-.17-.077-.355-.117-.544-.117-.467,0-.889.237-1.122.625-.189.298-.251.652-.172.998.079.349.29.644.592.83l2.782,1.728c.214.125.452.19.69.19.05,0,.1-.002.145-.008l.178-.028.028-.014c.322-.083.597-.286.78-.581l1.706-2.763c.19-.298.253-.651.174-.997Z"/>
    <path class="cls-1" d="M45.697,78.268c-.054,0-.107.003-.162.009-.632.073-1.145.574-1.229,1.197l-.02.072.006.057c-.968,7.942-7.44,14.181-15.409,14.842-.466.038-.93.058-1.391.058-7.088,0-13.442-4.471-15.89-11.023.174.083.364.126.558.126.463,0,.898-.247,1.133-.638.185-.298.242-.65.161-.995-.082-.347-.292-.641-.596-.828l-2.773-1.691c-.203-.134-.444-.205-.695-.205-.108,0-.218.014-.321.04-.342.084-.641.301-.818.593l-1.703,2.781c-.376.626-.187,1.426.448,1.831.204.121.438.185.676.185l.153-.009c.423-.048.783-.28.982-.624l.012-.02c2.729,7.877,10.255,13.288,18.675,13.288h0c.538,0,1.083-.022,1.615-.066.213-.016.414-.038.616-.061,9.036-1.036,16.34-8.346,17.369-17.412.005-.084.007-.168-.004-.26-.081-.71-.68-1.246-1.394-1.246Z"/>
  </g>
</svg>