<?xml version="1.0" encoding="UTF-8"?>
<svg id="Layer_1" data-name="Layer 1" xmlns="http://www.w3.org/2000/svg" viewBox="0 0 100 100">
  <defs>
    <style>
      .cls-1 {
        fill: #fff;
      }
    </style>
  </defs>
  <g>
    <path class="cls-1" d="M60.83,66.986c-.368-.349-.849-.541-1.356-.541-.539,0-1.061.224-1.431.615-.362.382-.554.883-.54,1.409s.232,1.016.615,1.378c.421.399.828.814,1.258,1.285,2.917,3.04,4.241,6.364,3.937,9.881-.384,4.422-3.394,9.006-8.262,12.579-.875.644-1.065,1.879-.422,2.756.371.503.965.804,1.59.804.42,0,.822-.131,1.166-.382,5.783-4.245,9.375-9.864,9.855-15.416.401-4.633-1.328-9.104-4.985-12.914-.463-.508-.942-.997-1.424-1.454Z"/>
    <path class="cls-1" d="M73.897,48.343c-.084-.836-.488-1.59-1.138-2.122l-4.406-3.606c-.561-.458-1.269-.71-1.994-.71-.102,0-.204.005-.311.015-.837.084-1.591.489-2.121,1.139l-6.84,8.358c-.532.65-.779,1.469-.696,2.306.038.374.148.728.307,1.056l-11.704,14.302c-.532.65-.779,1.468-.696,2.305.056.561.267,1.078.59,1.523l-.16.199c-2.348,2.925-4.777,5.949-7.253,8.839-.722.853-1.437,1.74-2.188,2.672-3.154,3.921-6.415,7.974-10.95,9.62-2.524.998-5.166,1.526-7.639,1.526-2.294,0-4.396-.433-6.247-1.286-2.445-1.127-4.327-3.109-5.033-5.303-.892-2.77-.752-5.193.428-7.406,3.534-6.626,15.569-10.077,23.555-12.366,1.77-.508,3.298-.946,4.602-1.375.418-.138,1.495-.483,1.495-.483,5.493-1.756,12.329-3.943,14.875-9.879,2.41-5.619-.666-11.997-4.951-15.393-2.113-1.675-4.581-3.076-7.335-4.166-3.896-1.541-7.865-2.322-11.795-2.322-3.749,0-7.33.713-10.645,2.119-4.468,1.895-7.728,4.907-8.943,8.265-.926,2.558-.706,5.196.654,7.842,2.524,4.911,8.529,6.702,11.884,7.332,4.349.816,8.88.999,13.262,1.177,1.161.047,2.322.094,3.477.152.484.025.967.051,1.451.081-1.064.377-2.127.717-3.137,1.039-.525.168-1.036.331-1.527.493-1.231.406-2.725.834-4.474,1.336-8.604,2.466-21.606,6.194-25.927,14.295-1.686,3.16-1.922,6.682-.702,10.469,1.054,3.273,3.655,6.07,7.136,7.676,2.37,1.092,5.028,1.646,7.902,1.646,2.962,0,6.093-.618,9.03-1.779,5.52-2.003,9.133-6.493,12.626-10.835.709-.883,1.412-1.756,2.116-2.588,2.525-2.946,4.985-6.011,7.365-8.975l.153-.19c.324.11.664.172,1.009.172.104,0,.209-.005.317-.016.837-.084,1.591-.488,2.122-1.138l11.707-14.306c.254.065.513.11.778.11.95,0,1.838-.42,2.437-1.153l6.84-8.358c.532-.65.779-1.469.696-2.306ZM48.546,70.962l11.011-13.456.345.282-11.011,13.456-.345-.282ZM63.016,55.244s-.001-.002-.002-.002l-1.577-1.291s-.004-.002-.005-.004l-.793-.649,5.833-7.128,3.174,2.597-5.833,7.128-.797-.652ZM39.522,59.516c-.348-.395-.828-.632-1.353-.667-.661-.043-1.326-.081-1.991-.114-1.169-.059-2.343-.107-3.525-.154-4.24-.172-8.624-.35-12.686-1.112-2.131-.4-7.284-1.714-9.105-5.259-.839-1.632-.991-3.212-.453-4.697.843-2.33,3.313-4.509,6.776-5.978,2.868-1.217,5.933-1.834,9.108-1.834,3.382,0,6.861.698,10.342,2.075,2.393.946,4.525,2.154,6.336,3.589,3.11,2.465,5.406,6.948,3.776,10.749-1.165,2.716-3.957,4.466-7.052,5.77.177-.273.289-.593.312-.938.034-.525-.138-1.033-.485-1.429Z"/>
  </g>
  <g>
    <g>
      <path class="cls-1" d="M58.016,26.913c-.39,0-.774-.132-1.08-.372-.762-.596-.897-1.701-.301-2.462l1.942-2.484c.336-.429.84-.674,1.383-.674.39,0,.774.132,1.08.373l2.484,1.941c.762.595.898,1.7.302,2.462-.335.429-.839.675-1.383.675-.39,0-.773-.132-1.08-.373l-1.102-.862-.862,1.102c-.334.428-.838.674-1.382.674Z"/>
      <path class="cls-1" d="M58.016,25.958c-.172,0-.345-.055-.491-.169-.348-.272-.409-.774-.138-1.121l1.942-2.484c.272-.348.775-.409,1.121-.138l2.485,1.942c.348.272.409.774.138,1.121-.271.348-.774.41-1.121.138l-1.855-1.45-1.45,1.855c-.157.202-.393.307-.63.307Z"/>
    </g>
    <g>
      <path class="cls-1" d="M95.395,20.729c-.394,0-.781-.134-1.089-.379l-2.473-1.957c-.367-.29-.599-.707-.654-1.172-.054-.466.076-.924.367-1.291.334-.424.836-.667,1.376-.667.394,0,.781.135,1.089.379l1.097.868.868-1.097c.335-.424.836-.667,1.376-.667.392,0,.779.134,1.087.378.758.6.887,1.705.289,2.464l-1.958,2.474c-.29.367-.706.599-1.172.654l-.056.007-.148.005Z"/>
      <path class="cls-1" d="M95.395,19.774c-.179,0-.354-.06-.496-.172l-2.473-1.957c-.346-.274-.405-.776-.131-1.122.273-.346.775-.406,1.122-.131l1.847,1.461,1.461-1.847c.274-.346.775-.405,1.122-.131.346.274.405.776.131,1.122l-1.956,2.473c-.131.166-.323.273-.534.298-.031.004-.062.005-.092.005Z"/>
    </g>
    <g>
      <path class="cls-1" d="M77.675,41.35c-.202,0-.401-.003-.604-.009-9.786-.304-17.898-7.872-18.869-17.605-.05-.499.109-1.004.437-1.383.326-.378.798-.609,1.296-.634h.005c1.033,0,1.812.703,1.903,1.635.78,7.921,7.375,14.08,15.342,14.327.165.005.33.008.494.008,7.721,0,14.471-5.742,15.702-13.357.143-.884.901-1.526,1.802-1.526.067,0,.135.004.203.011.496.056.954.316,1.256.713.303.399.43.912.349,1.407-1.522,9.356-9.826,16.412-19.317,16.412Z"/>
      <path class="cls-1" d="M77.675,40.395c-.191,0-.381-.003-.573-.009-9.321-.289-17.034-7.567-17.949-16.745-.05-.501.327-.944.83-.968h0c.461-.023.865.316.91.775.819,8.323,7.811,14.926,16.263,15.188,8.443.264,15.834-5.895,17.168-14.152.074-.455.498-.768.956-.717h0c.5.056.849.521.768,1.017-1.451,8.916-9.297,15.61-18.374,15.61Z"/>
    </g>
    <g>
      <path class="cls-1" d="M95.328,19.933c-.945,0-1.727-.704-1.818-1.639-.776-7.922-7.37-14.083-15.337-14.33-.158-.005-.318-.007-.476-.007-7.739,0-14.5,5.743-15.725,13.359-.142.885-.9,1.526-1.802,1.527-.067,0-.135-.004-.203-.011-.496-.055-.954-.315-1.256-.713-.303-.399-.431-.913-.35-1.408C59.88,7.352,68.181.294,77.668.294c.206,0,.411.003.618.01,9.788.304,17.899,7.874,18.866,17.61.049.5-.11,1.004-.438,1.384-.326.378-.799.608-1.297.633l-.09.002Z"/>
      <path class="cls-1" d="M95.371,18.976c-.461.022-.865-.316-.91-.775-.815-8.325-7.806-14.93-16.259-15.192-8.467-.254-15.845,5.897-17.173,14.155-.073.455-.498.768-.956.717h0c-.5-.056-.849-.521-.768-1.018,1.479-9.107,9.643-15.902,18.952-15.605,9.323.289,17.034,7.569,17.945,16.749.05.501-.327.944-.83.968h0Z"/>
    </g>
    <g>
      <path class="cls-1" d="M81.986,26.931c-.452,0-.905-.173-1.25-.518l-8.449-8.449c-.691-.69-.691-1.81,0-2.5.69-.69,1.81-.69,2.5,0l8.449,8.449c.691.69.691,1.81,0,2.5-.345.345-.797.518-1.25.518Z"/>
      <path class="cls-1" d="M73.537,26.931c-.452,0-.905-.173-1.25-.518-.691-.69-.691-1.81,0-2.5l8.449-8.449c.69-.69,1.81-.69,2.5,0,.691.69.691,1.81,0,2.5l-8.449,8.449c-.345.345-.797.518-1.25.518Z"/>
    </g>
  </g>
</svg>