<?xml version="1.0" encoding="UTF-8"?>
<svg id="Layer_1" data-name="Layer 1" xmlns="http://www.w3.org/2000/svg" xmlns:xlink="http://www.w3.org/1999/xlink" viewBox="0 0 100 100">
  <defs>
    <style>
      .cls-1 {
        fill: #fff;
      }

      .cls-2 {
        fill: url(#linear-gradient);
      }
    </style>
    <linearGradient id="linear-gradient" x1="65.659" y1="8.432" x2="51.848" y2="55.744" gradientUnits="userSpaceOnUse">
      <stop offset=".314" stop-color="#fff"/>
      <stop offset=".374" stop-color="#fff" stop-opacity=".954"/>
      <stop offset=".481" stop-color="#fff" stop-opacity=".831"/>
      <stop offset=".623" stop-color="#fff" stop-opacity=".631"/>
      <stop offset=".795" stop-color="#fff" stop-opacity=".355"/>
      <stop offset=".99" stop-color="#fff" stop-opacity=".008"/>
      <stop offset=".994" stop-color="#fff" stop-opacity="0"/>
    </linearGradient>
  </defs>
  <path class="cls-2" d="M20.718,30.107v-5.535c0-.721.584-1.305,1.305-1.305h5.49c.721,0,1.305.584,1.305,1.305v7.11c0,.721.584,1.305,1.305,1.305h3.848c.721,0,1.305-.584,1.305-1.305v-2.25c0-.721.584-1.305,1.305-1.305h3.337c.721,0,1.305.584,1.305,1.305v8.73c0,.721.584,1.305,1.305,1.305h3.389c.721,0,1.305-.584,1.305-1.305v-2.43c0-.721.584-1.305,1.305-1.305h4.546c.721,0,1.305.584,1.305,1.305v4.59c0,.721.584,1.305,1.305,1.305h4.23c.721,0,1.305.584,1.305,1.305v3.87c0,.721.584,1.305,1.305,1.305h3.69c.721,0,1.305.584,1.305,1.305v4.23c0,.721.584,1.305,1.305,1.305h3.51c.721,0,1.305-.584,1.305-1.305v-1.53c0-.721.584-1.305,1.305-1.305h3.33c.721,0,1.305-.584,1.305-1.305v-3.51c0-.721.584-1.305,1.305-1.305h5.455c.721,0,1.305.584,1.305,1.305v25.127H20.718V30.107Z"/>
  <g>
    <path class="cls-1" d="M93.808,78.768h-50.236c-.88,0-1.594-.714-1.594-1.594s.714-1.594,1.594-1.594h50.236c1.656,0,3.004-1.347,3.004-3.002V17.212c0-1.655-1.347-3.002-3.004-3.002H6.76c-1.655,0-3.002,1.347-3.002,3.002v51.627c0,.88-.714,1.594-1.594,1.594s-1.594-.714-1.594-1.594V17.212c0-3.413,2.777-6.191,6.191-6.191h87.049c3.415,0,6.192,2.777,6.192,6.191v55.365c0,3.413-2.777,6.191-6.192,6.191Z"/>
    <path class="cls-1" d="M35.519,53.458c-5.843-5.843-15.356-5.843-21.189,0-5.007,5.007-5.725,12.69-2.154,18.464l-11.165,11.175c-1.348,1.348-1.348,3.522,0,4.869.669.669,1.544,1.013,2.43,1.013s1.761-.344,2.43-1.013l11.175-11.175c2.4,1.495,5.145,2.243,7.879,2.243,3.836,0,7.673-1.466,10.594-4.387,5.843-5.843,5.843-15.346,0-21.189ZM32.735,71.863c-2.085,2.085-4.859,3.236-7.81,3.236-2.066,0-4.053-.571-5.774-1.623-.728-.452-1.417-.994-2.046-1.613-.63-.63-1.171-1.318-1.613-2.046-2.607-4.259-2.066-9.906,1.613-13.585,2.095-2.085,4.869-3.236,7.82-3.236s5.725,1.151,7.81,3.236c4.309,4.309,4.309,11.322,0,15.631Z"/>
  </g>
</svg>