<?xml version="1.0" encoding="UTF-8"?>
<svg id="Layer_1" data-name="Layer 1" xmlns="http://www.w3.org/2000/svg" xmlns:xlink="http://www.w3.org/1999/xlink" viewBox="0 0 100 100">
  <defs>
    <style>
      .cls-1 {
        fill: url(#linear-gradient);
      }
    </style>
    <linearGradient id="linear-gradient" x1="68.82" y1="14.169" x2="55.009" y2="61.481" gradientUnits="userSpaceOnUse">
      <stop offset=".314" stop-color="#303030"/>
      <stop offset=".537" stop-color="#303030" stop-opacity=".756"/>
      <stop offset=".935" stop-color="#303030" stop-opacity=".108"/>
      <stop offset=".994" stop-color="#303030" stop-opacity="0"/>
    </linearGradient>
  </defs>
  <path class="cls-1" d="M23.88,35.844v-5.535c0-.721.584-1.305,1.305-1.305h5.49c.721,0,1.305.584,1.305,1.305v7.11c0,.721.584,1.305,1.305,1.305h3.848c.721,0,1.305-.584,1.305-1.305v-2.25c0-.721.584-1.305,1.305-1.305h3.337c.721,0,1.305.584,1.305,1.305v8.73c0,.721.584,1.305,1.305,1.305h3.389c.721,0,1.305-.584,1.305-1.305v-2.43c0-.721.584-1.305,1.305-1.305h4.546c.721,0,1.305.584,1.305,1.305v4.59c0,.721.584,1.305,1.305,1.305h4.23c.721,0,1.305.584,1.305,1.305v3.87c0,.721.584,1.305,1.305,1.305h3.69c.721,0,1.305.584,1.305,1.305v4.23c0,.721.584,1.305,1.305,1.305h3.51c.721,0,1.305-.584,1.305-1.305v-1.53c0-.721.584-1.305,1.305-1.305h3.33c.721,0,1.305-.584,1.305-1.305v-3.51c0-.721.584-1.305,1.305-1.305h5.455c.721,0,1.305.584,1.305,1.305v25.127H23.88v-41.012Z"/>
  <g>
    <path d="M45.756,76.452c-.219-.241-.519-.387-.843-.411-.346-.026-.691.093-.946.326-.25.228-.397.54-.413.878s.101.662.329.913c.251.276.492.561.745.883,1.725,2.087,2.416,4.281,2.054,6.521-.456,2.816-2.604,5.612-5.894,7.671-.592.371-.772,1.154-.401,1.747.214.34.58.561.981.591.269.02.533-.045.765-.19,3.909-2.446,6.478-5.878,7.05-9.414.477-2.951-.419-5.899-2.582-8.515-.273-.347-.557-.684-.844-1Z"/>
    <path d="M55.018,65.122c-.014-.54-.237-1.043-.629-1.415l-2.653-2.521c-.338-.32-.78-.515-1.245-.55-.065-.005-.131-.006-.2-.005-.541.014-1.043.238-1.414.629l-4.782,5.033c-.372.391-.569.905-.556,1.445.006.242.06.473.147.692l-8.182,8.613c-.372.391-.569.904-.556,1.445.009.362.12.704.306,1.004l-.112.12c-1.644,1.763-3.345,3.587-5.07,5.321-.504.512-1.004,1.047-1.529,1.609-2.208,2.363-4.491,4.807-7.477,5.646-1.666.52-3.384.733-4.969.615-1.471-.109-2.797-.486-3.943-1.121-1.514-.839-2.626-2.199-2.975-3.639-.441-1.818-.236-3.365.626-4.727,2.58-4.08,10.459-5.72,15.687-6.808,1.159-.241,2.159-.45,3.016-.663.274-.068.982-.239.982-.239,3.605-.865,8.091-1.942,10.005-5.626,1.812-3.488.143-7.722-2.442-10.103-1.275-1.174-2.79-2.19-4.504-3.019-2.424-1.173-4.931-1.862-7.451-2.049-2.403-.178-4.733.109-6.924.853-2.954,1.002-5.187,2.779-6.125,4.873-.715,1.596-.7,3.297.046,5.058,1.385,3.268,5.149,4.701,7.27,5.265,2.749.73,5.645,1.062,8.446,1.384.742.085,1.484.171,2.222.263.309.039.618.079.927.121-.7.191-1.398.358-2.06.517-.344.083-.68.163-1.002.243-.808.202-1.786.405-2.932.644-5.633,1.172-14.145,2.944-17.3,7.932-1.231,1.946-1.549,4.192-.947,6.678.52,2.148,2.055,4.065,4.21,5.26,1.467.813,3.145,1.294,4.987,1.431,1.899.141,3.935-.107,5.873-.712,3.634-1.022,6.163-3.728,8.609-6.346.497-.532.989-1.059,1.479-1.558,1.758-1.769,3.481-3.617,5.148-5.404l.107-.115c.202.086.417.142.638.158.067.005.135.007.204.005.54-.014,1.043-.237,1.414-.629l8.185-8.615c.16.054.324.095.494.107.609.045,1.198-.182,1.617-.623l4.782-5.033c.372-.391.569-.905.556-1.445ZM37.693,78.417l7.698-8.103.208.197-7.698,8.103-.208-.197ZM47.716,69.029s0-.001-.001-.002l-.95-.903s-.002-.002-.003-.003l-.477-.453,4.078-4.292,1.911,1.816-4.078,4.292-.48-.456ZM32.452,70.651c-.204-.27-.501-.445-.836-.492-.422-.059-.846-.115-1.271-.168-.747-.094-1.497-.18-2.252-.266-2.71-.312-5.512-.634-8.079-1.316-1.347-.358-4.588-1.445-5.587-3.804-.46-1.086-.483-2.106-.067-3.033.651-1.454,2.338-2.733,4.627-3.51,1.897-.644,3.89-.894,5.926-.743,2.168.161,4.365.773,6.531,1.821,1.489.72,2.798,1.596,3.891,2.602,1.877,1.728,3.136,4.711,1.91,7.07-.876,1.686-2.749,2.675-4.794,3.364.127-.167.213-.366.244-.586.047-.335-.04-.669-.243-.939Z"/>
  </g>
  <path d="M92.654,84.668h-36.27c-.967,0-1.75-.783-1.75-1.75s.783-1.75,1.75-1.75h36.27c1.421,0,2.576-1.156,2.576-2.576V26.497c0-1.42-1.155-2.576-2.576-2.576h-.974c-.967,0-1.75-.784-1.75-1.75s.783-1.75,1.75-1.75h.974c3.351,0,6.076,2.726,6.076,6.076v52.095c0,3.351-2.726,6.076-6.076,6.076Z"/>
  <path d="M6.42,72.824c-.967,0-1.75-.784-1.75-1.75V26.497c0-3.35,2.726-6.076,6.075-6.076h49.374c.967,0,1.75.784,1.75,1.75s-.783,1.75-1.75,1.75H10.746c-1.42,0-2.575,1.155-2.575,2.576v44.578c0,.966-.783,1.75-1.75,1.75Z"/>
  <g>
    <path d="M85.512,38.244c-.828,0-1.5-.671-1.5-1.5V13.855h-22.89c-.828,0-1.5-.671-1.5-1.5s.672-1.5,1.5-1.5h24.39c.828,0,1.5.671,1.5,1.5v24.389c0,.829-.672,1.5-1.5,1.5Z"/>
    <path d="M90.805,32.952h-24.39c-.828,0-1.5-.671-1.5-1.5V7.062c0-.829.672-1.5,1.5-1.5s1.5.671,1.5,1.5v22.89h22.89c.828,0,1.5.671,1.5,1.5s-.672,1.5-1.5,1.5Z"/>
  </g>
  <g>
    <path d="M50.756,59.464c-.067,0-.136-.014-.201-.042-.159-.07-.316-.142-.471-.216-.249-.12-.354-.418-.234-.667.121-.25.42-.353.668-.234.145.069.29.137.439.203.253.111.368.406.257.659-.083.188-.266.299-.458.299Z"/>
    <path d="M76.846,72.89c-.566,0-1.156-.026-1.752-.078-.275-.024-.479-.266-.455-.542.023-.275.279-.477.541-.455.567.049,1.128.074,1.666.074l.28-.002h.008c.272,0,.496.219.5.492.004.276-.216.503-.492.508l-.296.002ZM80.112,72.585c-.229,0-.438-.16-.487-.395-.059-.27.113-.536.383-.594.629-.136,1.223-.343,1.764-.615.244-.124.548-.026.671.222.124.247.025.547-.222.671-.617.31-1.29.545-2.002.699-.035.008-.071.011-.106.011ZM72.173,72.36c-.035,0-.07-.003-.105-.011-.646-.138-1.309-.305-1.973-.494-.266-.076-.419-.353-.343-.619.075-.265.348-.418.618-.343.643.184,1.284.345,1.906.479.271.058.442.324.385.594-.051.234-.258.395-.488.395ZM67.388,70.927c-.059,0-.118-.01-.176-.032-.633-.238-1.259-.492-1.877-.758-.254-.109-.371-.403-.262-.657.108-.254.402-.37.656-.262.604.26,1.217.508,1.834.741.259.097.39.386.292.644-.075.2-.266.324-.468.324ZM84.317,70.064c-.111,0-.223-.037-.315-.112-.214-.174-.247-.489-.072-.703.385-.474.713-1.008.975-1.589.114-.252.411-.363.661-.25.252.114.364.41.251.662-.298.66-.672,1.268-1.111,1.809-.099.122-.243.185-.388.185ZM62.812,68.91c-.075,0-.152-.017-.224-.053-.608-.305-1.205-.618-1.788-.934-.243-.132-.333-.436-.201-.678.133-.243.438-.331.678-.201.573.312,1.16.619,1.759.918.247.124.347.424.224.671-.088.175-.265.276-.447.276ZM58.435,66.492c-.089,0-.178-.023-.258-.072l-.717-.437c-.235-.145-.309-.452-.164-.688.144-.237.451-.309.688-.164l.709.432c.237.143.312.45.17.687-.094.156-.259.242-.428.242ZM86.111,65.475c-.016,0-.031,0-.048-.002-.274-.026-.477-.27-.451-.544.029-.309.044-.619.044-.932,0-.324-.015-.648-.047-.972-.026-.275.175-.519.449-.546.269-.024.52.174.547.449.034.357.052.715.051,1.07,0,.342-.017.684-.048,1.023-.024.259-.242.454-.497.454ZM85.415,60.567c-.2,0-.39-.121-.466-.319-.229-.588-.511-1.154-.842-1.684-.144-.232-.082-.545.148-.693.228-.148.528-.094.681.134l-.416.277.419-.272c.38.608.691,1.231.941,1.877.101.257-.027.547-.285.647-.06.023-.12.034-.181.034ZM48.544,58.262c-.095,0-.19-.026-.274-.082-.579-.381-1.132-.802-1.645-1.253-.208-.183-.228-.499-.045-.706.183-.207.499-.228.705-.045.479.42.994.814,1.533,1.168.231.152.295.462.144.693-.097.146-.256.225-.418.225ZM82.551,56.527c-.123,0-.247-.045-.344-.137-.477-.451-.976-.883-1.477-1.313-.209-.18-.233-.496-.053-.705s.495-.233.705-.054c.513.441,1.023.883,1.512,1.345.2.19.209.506.02.707-.099.104-.23.156-.363.156ZM44.937,54.839c-.154,0-.307-.072-.404-.207-.408-.562-.773-1.158-1.085-1.771-.126-.246-.027-.547.219-.672.243-.123.547-.027.672.219.288.566.626,1.117,1.003,1.637.162.223.113.536-.11.698-.089.064-.191.095-.294.095ZM78.826,53.194c-.128,0-.255-.048-.353-.146-.405-.403-.755-.787-1.069-1.173-.095-.105-.198-.229-.301-.354-.174-.214-.143-.529.071-.704.213-.174.528-.144.704.071.093.115.188.228.287.339.306.375.633.734,1.013,1.112.196.195.196.511.002.707-.098.098-.227.147-.354.147ZM42.879,50.32c-.229,0-.437-.158-.488-.391-.152-.685-.244-1.381-.271-2.069-.011-.276.204-.509.48-.52.007,0,.014,0,.02,0,.268,0,.489.211.5.48.024.628.108,1.265.248,1.891.06.27-.11.537-.38.597-.036.008-.073.012-.108.012ZM75.788,49.24c-.168,0-.333-.085-.428-.24-.28-.463-.554-.932-.826-1.401l-.192-.331c-.14-.239-.059-.545.18-.684.236-.139.544-.059.684.18l.193.332c.27.463.539.927.817,1.384.143.236.068.543-.168.687-.081.049-.171.073-.26.073ZM42.906,45.365c-.038,0-.077-.004-.116-.014-.269-.064-.435-.334-.37-.603.161-.674.386-1.34.669-1.979.113-.253.411-.366.659-.254.253.112.367.407.255.66-.258.583-.464,1.19-.61,1.806-.055.229-.26.384-.486.384ZM73.182,44.973c-.156,0-.312-.074-.408-.212-.276-.391-.564-.771-.875-1.137-.103-.115-.216-.239-.333-.363-.19-.2-.183-.517.018-.707.2-.19.518-.183.707.018.125.131.246.263.364.396.317.375.621.77.936,1.216.159.226.105.538-.12.697-.088.062-.188.091-.288.091ZM69.667,41.451c-.103,0-.207-.031-.296-.097-.511-.375-1.059-.74-1.627-1.084-.236-.144-.312-.451-.169-.687.144-.236.452-.31.687-.168.594.36,1.166.741,1.701,1.133.223.164.271.476.107.699-.098.134-.25.205-.403.205ZM45.097,40.915c-.109,0-.219-.035-.311-.108-.216-.171-.253-.486-.081-.703.419-.53.893-1.042,1.405-1.523.202-.188.519-.177.707.023.188.202.178.518-.023.707-.478.446-.916.922-1.306,1.414-.099.125-.244.189-.392.189ZM65.352,38.939c-.07,0-.142-.015-.209-.046-.593-.273-1.203-.528-1.812-.758-.259-.098-.389-.386-.291-.645.098-.259.383-.388.645-.291.631.239,1.263.503,1.877.786.251.115.36.412.245.663-.084.183-.266.291-.454.291ZM48.898,37.733c-.185,0-.362-.103-.449-.28-.121-.248-.019-.547.229-.669.605-.297,1.261-.547,1.949-.744.267-.075.543.078.618.344.076.266-.077.542-.343.618-.632.18-1.231.409-1.783.68-.071.035-.146.051-.221.051ZM60.646,37.257c-.041,0-.083-.005-.125-.016-.643-.166-1.287-.307-1.916-.419-.271-.048-.453-.308-.404-.58s.305-.453.58-.404c.654.116,1.323.263,1.99.436.268.069.429.342.359.609-.059.225-.262.375-.484.375ZM53.714,36.522c-.261,0-.48-.202-.498-.466-.019-.275.189-.514.465-.533.675-.045,1.358-.055,2.055-.024.276.012.49.245.479.521-.013.275-.273.498-.521.479-.66-.027-1.31-.02-1.945.023-.012,0-.023,0-.035,0Z"/>
    <path d="M56.871,65.524c-.092,0-.185-.025-.268-.078l-.424-.271c-.231-.149-.299-.459-.148-.691.15-.233.46-.297.691-.149l.416.266c.233.148.303.457.154.69-.095.15-.257.232-.422.232Z"/>
  </g>
</svg>