<?xml version="1.0" encoding="UTF-8"?>
<svg id="Layer_1" data-name="Layer 1" xmlns="http://www.w3.org/2000/svg" viewBox="0 0 100 100">
  <path d="M88.528,35.608l-25.336-20.368c-1.176-.96-2.768-1.152-4.152-.496-1.384.664-2.248,2.024-2.248,3.56v9.096h-17.656c-16.064,0-29.136,13.064-29.136,29.128v.024c0,15.528,12.136,28.304,27.632,29.088h.08c.864,0,1.584-.672,1.64-1.536.056-.896-.616-1.672-1.512-1.736-8.456-.648-15.08-7.792-15.08-16.272,0-9.016,7.312-16.328,16.304-16.328h17.728v9.304c0,1.52.856,2.872,2.224,3.536,1.384.656,2.984.48,4.168-.472l25.344-20.4c.936-.744,1.472-1.864,1.472-3.064s-.536-2.312-1.472-3.064ZM86.48,39.176l-25.344,20.4c-.288.232-.584.128-.696.072-.136-.064-.368-.232-.368-.576v-10.944c0-.904-.736-1.64-1.64-1.64h-19.368c-10.8,0-19.584,8.784-19.584,19.584,0,3.688,1.032,7.16,2.84,10.136-5.552-4.752-9.04-11.808-9.04-19.656v-.024c0-14.256,11.6-25.856,25.856-25.856h19.296c.904,0,1.64-.728,1.64-1.632v-10.736c0-.36.232-.528.376-.592.136-.072.408-.144.68.072l25.344,20.384c.216.168.248.392.248.504,0,.12-.032.336-.24.504Z"/>
</svg>