<?xml version="1.0" encoding="UTF-8"?>
<svg id="Layer_1" data-name="Layer 1" xmlns="http://www.w3.org/2000/svg" viewBox="0 0 100 100">
  <path d="M1.951,60.212c-.421,0-.844-.135-1.201-.414-.849-.664-1-1.891-.336-2.74l4.745-6.07c.319-.408.786-.672,1.3-.735.514-.065,1.032.081,1.44.399l6.07,4.746c.848.664.999,1.891.335,2.74-.662.85-1.89,1-2.74.336l-4.531-3.544-3.544,4.532c-.384.492-.958.75-1.538.75Z"/>
  <path d="M93.268,49.773c-.438,0-.864-.147-1.211-.421l-6.043-4.78c-.845-.669-.989-1.897-.32-2.742.669-.846,1.897-.987,2.741-.32l4.513,3.569,3.568-4.512c.671-.846,1.899-.988,2.742-.32.845.669.989,1.896.32,2.742l-4.78,6.043c-.321.406-.79.668-1.304.728-.076.009-.151.013-.227.013Z"/>
  <path d="M49.979,95.482c-.467,0-.931-.007-1.4-.022-22.772-.706-41.614-18.486-43.85-40.908-.122-1.223.799-2.305,2.027-2.366h.001c1.125-.055,2.113.772,2.224,1.893,2.001,20.334,19.083,36.465,39.731,37.106,20.626.644,38.683-14.402,41.943-34.573.18-1.112,1.217-1.876,2.337-1.751h0c1.221.136,2.074,1.272,1.877,2.484-3.544,21.783-22.712,38.137-44.888,38.137Z"/>
  <path d="M93.209,47.824c-1.125.055-2.113-.773-2.223-1.894-1.992-20.339-19.069-36.474-39.721-37.115-20.685-.62-38.709,14.406-41.955,34.581-.179,1.112-1.216,1.877-2.336,1.753h-.001c-1.222-.136-2.075-1.273-1.877-2.486C8.709,20.415,28.655,3.814,51.397,4.54c22.777.706,41.615,18.491,43.841,40.919.121,1.223-.8,2.305-2.028,2.365h-.001Z"/>
  <path d="M66.347,74.476h-32.724c-5.075,0-9.203-4.129-9.203-9.203v-30.541c0-5.074,4.128-9.203,9.203-9.203h32.724c5.075,0,9.203,4.128,9.203,9.203v30.541c0,5.074-4.128,9.203-9.203,9.203ZM33.623,29.807c-2.716,0-4.926,2.209-4.926,4.925v30.541c0,2.716,2.21,4.926,4.926,4.926h32.724c2.716,0,4.926-2.21,4.926-4.926v-30.541c0-2.716-2.21-4.925-4.926-4.925h-32.724Z"/>
  <g>
    <rect x="34.526" y="40.986" width="7.437" height="7.09" rx="2.147" ry="2.147"/>
    <rect x="46.267" y="40.986" width="7.437" height="7.09" rx="2.147" ry="2.147"/>
    <rect x="58.007" y="40.986" width="7.437" height="7.09" rx="2.147" ry="2.147"/>
    <rect x="34.526" y="51.93" width="7.437" height="7.09" rx="2.147" ry="2.147"/>
    <rect x="46.267" y="51.93" width="7.437" height="7.09" rx="2.147" ry="2.147"/>
    <rect x="58.007" y="51.93" width="7.437" height="7.09" rx="2.147" ry="2.147"/>
  </g>
</svg>