<?xml version="1.0" encoding="UTF-8"?>
<svg id="Layer_1" data-name="Layer 1" xmlns="http://www.w3.org/2000/svg" xmlns:xlink="http://www.w3.org/1999/xlink" viewBox="0 0 100 100">
  <defs>
    <style>
      .cls-1 {
        fill: url(#linear-gradient);
      }
    </style>
    <linearGradient id="linear-gradient" x1="66.386" y1="5.137" x2="51.625" y2="55.707" gradientUnits="userSpaceOnUse">
      <stop offset=".314" stop-color="#303030"/>
      <stop offset=".537" stop-color="#303030" stop-opacity=".756"/>
      <stop offset=".935" stop-color="#303030" stop-opacity=".108"/>
      <stop offset=".994" stop-color="#303030" stop-opacity="0"/>
    </linearGradient>
  </defs>
  <path class="cls-1" d="M18.352,28.305v-5.916c0-.77.624-1.395,1.395-1.395h5.868c.77,0,1.395.624,1.395,1.395v7.599c0,.77.624,1.395,1.395,1.395h4.113c.77,0,1.395-.624,1.395-1.395v-2.405c0-.77.624-1.395,1.395-1.395h3.567c.77,0,1.395.624,1.395,1.395v9.331c0,.77.624,1.395,1.395,1.395h3.622c.77,0,1.395-.624,1.395-1.395v-2.597c0-.77.624-1.395,1.395-1.395h4.859c.77,0,1.395.624,1.395,1.395v4.906c0,.77.624,1.395,1.395,1.395h4.521c.77,0,1.395.624,1.395,1.395v4.136c0,.77.624,1.395,1.395,1.395h3.944c.77,0,1.395.624,1.395,1.395v4.521c0,.77.624,1.395,1.395,1.395h3.752c.77,0,1.395-.624,1.395-1.395v-1.635c0-.77.624-1.395,1.395-1.395h3.559c.77,0,1.395-.624,1.395-1.395v-3.752c0-.77.624-1.395,1.395-1.395h5.83c.77,0,1.395.624,1.395,1.395v26.857H18.352V28.305Z"/>
  <path d="M93.773,78.932h-50.523c-.885,0-1.603-.718-1.603-1.603s.718-1.603,1.603-1.603h50.523c1.666,0,3.021-1.355,3.021-3.02V17.024c0-1.665-1.355-3.02-3.021-3.02H6.226c-1.665,0-3.02,1.355-3.02,3.02v51.922c0,.885-.718,1.603-1.603,1.603s-1.603-.718-1.603-1.603V17.024c0-3.433,2.793-6.226,6.226-6.226h87.547c3.434,0,6.227,2.793,6.227,6.226v55.682c0,3.433-2.793,6.226-6.227,6.226Z"/>
  <path d="M31.876,60.264c0-6.149-5.291-11.085-11.56-10.494-5.462.515-9.526,5.318-9.526,10.804v7.497s-.175,0-.175,0c-1.564,0-2.833,1.268-2.833,2.833v15.465c0,1.564,1.268,2.833,2.833,2.833h21.437c1.565,0,2.833-1.268,2.833-2.833v-15.465c0-1.565-1.268-2.833-2.833-2.833H14.469v-7.567c0-3.489,2.501-6.602,5.961-7.046,4.186-.538,7.768,2.724,7.768,6.806v1.112c0,1.016.823,1.839,1.839,1.839h0c1.016,0,1.839-.823,1.839-1.839v-1.112Z"/>
</svg>