<?xml version="1.0" encoding="UTF-8"?>
<svg id="Layer_1" data-name="Layer 1" xmlns="http://www.w3.org/2000/svg" viewBox="0 0 100 100">
  <path d="M58.951,22.455H6.459c-1.51,0-2.738,1.228-2.738,2.738v47.393c0,1.027-.833,1.861-1.861,1.861s-1.861-.833-1.861-1.861V25.193c0-3.562,2.898-6.459,6.459-6.459h87.081c3.562,0,6.46,2.898,6.46,6.459v55.385c0,3.562-2.898,6.459-6.46,6.459h-45.56c-1.028,0-1.861-.833-1.861-1.86s.833-1.861,1.861-1.861h45.56c1.511,0,2.739-1.229,2.739-2.739V25.193c0-1.51-1.228-2.738-2.739-2.738h-34.589Z"/>
  <g>
    <g>
      <path d="M24.178,87.911c-.967,0-1.75-.783-1.75-1.75v-18.483c0-.966.783-1.75,1.75-1.75s1.75.784,1.75,1.75v18.483c0,.967-.783,1.75-1.75,1.75Z"/>
      <path d="M33.42,78.67H14.937c-.967,0-1.75-.784-1.75-1.75s.783-1.75,1.75-1.75h18.483c.967,0,1.75.784,1.75,1.75s-.783,1.75-1.75,1.75Z"/>
    </g>
    <path d="M34.251,93.131H14.106c-3.386,0-6.14-2.754-6.14-6.14v-20.145c0-3.385,2.754-6.139,6.14-6.139h20.146c3.385,0,6.139,2.754,6.139,6.139v20.145c0,3.386-2.754,6.14-6.139,6.14ZM14.106,64.208c-1.455,0-2.64,1.184-2.64,2.639v20.145c0,1.455,1.185,2.64,2.64,2.64h20.146c1.455,0,2.639-1.185,2.639-2.64v-20.145c0-1.455-1.184-2.639-2.639-2.639H14.106Z"/>
  </g>
  <g>
    <path d="M27.99,27.29c-.39,0-.78-.16-1.06-.44-.061-.07-.131-.15-.181-.23-.06-.08-.1-.17-.14-.26-.04-.09-.07-.18-.09-.28-.021-.09-.03-.19-.03-.29s.01-.2.03-.3c.02-.09.05-.19.09-.28.04-.09.08-.17.14-.26.05-.08.12-.15.181-.22.069-.07.149-.13.229-.19.08-.05.17-.1.26-.14.091-.03.181-.06.28-.08.19-.04.39-.04.59,0,.09.02.19.05.28.08.09.04.18.09.26.14.08.06.16.12.22.19.07.07.141.14.19.22.05.09.1.17.14.26.04.09.07.19.08.28.021.1.03.2.03.3,0,.39-.16.78-.44,1.06-.06.07-.14.13-.22.19-.08.05-.17.1-.26.13-.09.04-.19.07-.28.09-.1.02-.2.03-.3.03Z"/>
    <path d="M79.51,58.22c-.82-.08-1.421-.82-1.341-1.64h0c.091-.83.83-1.43,1.65-1.34h0c.82.08,1.42.82,1.34,1.64h0c-.08.78-.729,1.35-1.49,1.35h0c-.05,0-.109,0-.159-.01ZM71.68,56.99c-.811-.18-1.33-.97-1.15-1.78h0c.17-.81.97-1.33,1.78-1.15h0c.81.17,1.319.96,1.149,1.78h0c-.149.7-.77,1.18-1.46,1.18h0c-.109,0-.21-.01-.319-.03ZM64.03,54.9h0c-.79-.26-1.22-1.11-.95-1.9h0c.26-.78,1.11-1.21,1.9-.94h0v-.01h0c.78.27,1.2,1.12.939,1.9h0c-.21.63-.79,1.03-1.42,1.03h0c-.16,0-.319-.03-.47-.08ZM56.65,51.97h0c-.75-.34-1.08-1.24-.73-1.99h0c.351-.75,1.24-1.08,1.99-.73h0c.75.35,1.08,1.24.73,1.99h0c-.25.55-.79.87-1.36.87h0c-.21,0-.42-.04-.63-.14ZM49.65,48.25h0c-.71-.43-.94-1.35-.51-2.06h0c.43-.71,1.35-.94,2.06-.51h0c.71.43.93,1.35.51,2.06h0c-.29.47-.779.73-1.29.73h0c-.26,0-.529-.07-.77-.22ZM43.089,43.8c-.659-.5-.79-1.44-.29-2.1h0c.5-.66,1.44-.79,2.101-.29h0c.66.5.79,1.44.29,2.1h0c-.29.39-.74.59-1.2.59h0c-.31,0-.63-.1-.9-.3ZM37.03,38.68c-.6-.56-.63-1.51-.07-2.12h0c.57-.6,1.521-.63,2.13-.07h0c.601.57.631,1.52.061,2.12h0c-.29.32-.69.48-1.09.48h0c-.37,0-.74-.14-1.03-.41ZM31.54,32.96h0c-.54-.62-.47-1.57.16-2.11h0c.62-.54,1.57-.47,2.11.15h0c.54.63.47,1.58-.16,2.12h0c-.28.24-.63.36-.97.36h0c-.431,0-.851-.17-1.141-.52Z"/>
    <path d="M87.43,58.62c-.391,0-.78-.16-1.061-.44-.07-.07-.13-.14-.18-.22-.061-.09-.101-.17-.141-.26-.039-.09-.069-.19-.09-.28-.02-.1-.029-.2-.029-.3,0-.09.01-.19.029-.29.021-.09.051-.19.09-.28.04-.09.08-.18.141-.26.05-.08.109-.16.18-.23.351-.34.87-.5,1.36-.41.09.02.189.05.28.09.09.04.17.08.26.14.08.05.149.11.22.18.07.07.14.15.19.23.05.08.1.17.14.26.04.09.06.19.08.28.02.1.03.2.03.29,0,.1-.011.2-.03.3-.021.09-.04.19-.08.28s-.09.17-.14.26c-.051.08-.12.15-.19.22s-.14.14-.22.19c-.09.05-.17.1-.26.14-.091.04-.19.06-.28.08-.101.02-.2.03-.3.03Z"/>
  </g>
  <g>
    <path d="M24.18,34.59c-.101,0-.2-.01-.29-.03-.101-.02-.19-.05-.29-.09-.09-.04-.17-.08-.25-.14-.09-.05-.16-.11-.23-.18-.07-.07-.13-.15-.189-.23-.051-.08-.101-.17-.141-.26-.029-.09-.06-.18-.08-.28-.02-.1-.029-.19-.029-.29,0-.4.159-.79.439-1.06.07-.07.141-.14.23-.19.08-.05.16-.1.25-.14.1-.04.189-.06.29-.08.189-.04.39-.04.58,0,.1.02.189.04.279.08s.181.09.261.14c.079.05.159.12.229.19.07.07.13.14.18.22.061.09.11.17.141.26.04.09.069.19.09.28.02.1.03.2.03.3s-.011.19-.03.29c-.021.1-.05.19-.09.28-.03.09-.08.18-.141.26-.05.08-.109.16-.18.23-.07.07-.15.13-.229.18-.08.06-.171.1-.261.14s-.18.07-.279.09c-.091.02-.19.03-.29.03Z"/>
    <path d="M69.29,76.21h0c-.79-.26-1.21-1.11-.95-1.89h0c.261-.79,1.11-1.21,1.9-.95h0c.78.26,1.21,1.11.95,1.9h0c-.22.63-.8,1.02-1.43,1.02h0c-.15,0-.311-.02-.471-.08ZM61.749,73.25h0c-.75-.35-1.08-1.24-.739-1.99h0c.34-.75,1.229-1.09,1.989-.74h0c.75.34,1.08,1.23.74,1.99h0c-.25.55-.8.87-1.36.87h0c-.21,0-.43-.04-.63-.13ZM54.57,69.49c-.71-.42-.94-1.34-.521-2.06h0c.421-.71,1.341-.94,2.051-.52h0c.72.42.949,1.35.529,2.06h0c-.279.47-.779.73-1.29.73h0c-.26,0-.529-.07-.77-.21ZM47.83,64.99h0c-.66-.5-.79-1.44-.3-2.1h0c.5-.66,1.44-.8,2.1-.3h0c.67.49.801,1.43.301,2.1h0c-.29.39-.74.6-1.2.6h0c-.311,0-.63-.1-.9-.3ZM41.61,59.81c-.61-.56-.65-1.51-.08-2.12h0c.56-.61,1.51-.65,2.12-.09h0c.6.57.64,1.52.08,2.13h0c-.3.31-.7.48-1.101.48h0c-.369,0-.729-.14-1.02-.4ZM35.95,54.03v-.01c-.55-.62-.49-1.56.12-2.11h0c.62-.55,1.57-.5,2.12.13h0v-.01h0c.55.62.49,1.57-.12,2.12h0c-.29.26-.65.38-1,.38h0c-.41,0-.83-.17-1.12-.5ZM30.879,47.71c-.479-.67-.34-1.61.341-2.09h0c.659-.49,1.6-.34,2.09.33h0c.489.67.34,1.61-.33,2.1h0c-.271.19-.58.28-.88.28h0c-.471,0-.92-.21-1.221-.62ZM26.459,40.93h0c-.42-.71-.18-1.63.54-2.05h0c.71-.42,1.63-.18,2.05.54h0c.421.72.171,1.64-.539,2.05h0c-.24.14-.5.21-.761.21h0c-.51,0-1.02-.27-1.29-.75Z"/>
    <path d="M77.43,78.42c-.4,0-.79-.16-1.061-.44-.07-.07-.14-.15-.189-.23-.051-.08-.101-.17-.141-.26s-.069-.18-.08-.28c-.02-.09-.029-.19-.029-.29,0-.4.159-.78.439-1.06.061-.07.141-.13.22-.19.08-.05.171-.1.261-.14.09-.03.189-.06.279-.08.2-.04.4-.04.591,0,.1.02.189.05.279.08.09.04.181.09.261.14.079.06.159.12.229.19.07.07.13.14.18.23.061.08.101.17.141.26s.069.18.09.28c.02.09.03.19.03.29,0,.39-.16.78-.44,1.06-.07.07-.15.13-.229.19-.08.05-.171.1-.261.14-.09.03-.18.06-.279.08-.101.02-.19.03-.29.03Z"/>
  </g>
</svg>