<?xml version="1.0" encoding="UTF-8"?>
<svg id="Layer_1" data-name="Layer 1" xmlns="http://www.w3.org/2000/svg" viewBox="0 0 100 100">
  <path d="M58.951,22.455H6.459c-1.51,0-2.738,1.228-2.738,2.738v47.393c0,1.027-.833,1.861-1.861,1.861s-1.861-.833-1.861-1.861V25.193c0-3.562,2.898-6.459,6.459-6.459h87.081c3.562,0,6.46,2.898,6.46,6.459v55.385c0,3.562-2.898,6.459-6.46,6.459h-45.56c-1.028,0-1.861-.833-1.861-1.86s.833-1.861,1.861-1.861h45.56c1.511,0,2.739-1.229,2.739-2.739V25.193c0-1.51-1.228-2.738-2.739-2.738h-34.589Z"/>
  <g>
    <path d="M27.99,27.29c-.391,0-.78-.16-1.061-.44-.279-.28-.439-.67-.439-1.06,0-.4.16-.78.439-1.06.351-.35.87-.51,1.36-.41.09.02.189.05.28.08.09.04.17.09.25.14.09.06.159.12.229.19.07.07.13.14.19.23.05.08.1.16.14.25.04.09.07.19.08.29.02.09.03.19.03.29,0,.4-.16.78-.44,1.06-.07.07-.14.13-.229.19-.08.05-.16.1-.25.13-.091.04-.19.07-.28.09-.101.02-.2.03-.3.03Z"/>
    <path d="M79.51,58.22c-.82-.08-1.42-.82-1.34-1.64h0c.09-.83.82-1.43,1.65-1.34h0c.819.08,1.42.82,1.34,1.64h0c-.08.77-.73,1.35-1.49,1.35h0c-.05,0-.11,0-.16-.01ZM71.68,56.99c-.81-.17-1.33-.97-1.149-1.78h0c.17-.81.97-1.33,1.779-1.15h0c.811.17,1.33.96,1.15,1.78h0c-.15.7-.771,1.18-1.46,1.18h0c-.11,0-.21-.01-.32-.03ZM64.03,54.9c-.79-.26-1.21-1.11-.95-1.9h0c.26-.78,1.109-1.21,1.899-.94h0c.78.26,1.21,1.11.94,1.89h0c-.2.63-.79,1.03-1.42,1.03h0c-.15,0-.311-.03-.47-.08ZM56.65,51.98c-.75-.35-1.08-1.24-.73-1.99h0c.35-.76,1.24-1.09,1.99-.74h0c.75.35,1.08,1.24.74,1.99h0c-.261.55-.801.87-1.37.87h0c-.21,0-.42-.04-.63-.13ZM49.65,48.25c-.711-.43-.94-1.35-.511-2.06h0c.431-.71,1.351-.93,2.061-.51h0c.71.43.93,1.35.51,2.06h0c-.28.47-.78.73-1.29.73h0c-.26,0-.53-.07-.77-.22ZM43.09,43.8c-.66-.5-.79-1.44-.29-2.1h0c.5-.66,1.44-.79,2.101-.29h0c.659.5.789,1.44.289,2.1h0c-.289.39-.739.59-1.199.59h0c-.311,0-.63-.09-.9-.3ZM37.03,38.68c-.601-.56-.63-1.51-.07-2.12h0c.57-.6,1.52-.63,2.12-.06h0c.609.56.64,1.51.07,2.12h0c-.29.31-.69.47-1.091.47h0c-.37,0-.739-.14-1.029-.41ZM31.54,32.96h0c-.54-.63-.47-1.57.16-2.11h0c.63-.54,1.569-.48,2.109.15h0c.54.63.471,1.58-.149,2.12h0c-.29.24-.641.36-.98.36h0c-.42,0-.84-.17-1.14-.52Z"/>
    <path d="M87.439,58.62c-.1,0-.199-.01-.3-.03-.09-.02-.189-.04-.279-.08-.091-.04-.181-.09-.261-.14-.08-.05-.16-.12-.229-.19-.28-.28-.44-.66-.44-1.06,0-.39.16-.78.44-1.06.069-.07.149-.13.229-.18.08-.06.17-.1.261-.14.09-.04.189-.07.279-.09.49-.09,1.011.07,1.351.41.29.29.449.67.449,1.06,0,.4-.159.78-.449,1.06-.271.28-.66.44-1.051.44Z"/>
  </g>
  <g>
    <path d="M24.18,34.59c-.399,0-.779-.16-1.06-.44-.28-.28-.44-.67-.44-1.06,0-.4.16-.78.44-1.06.56-.56,1.56-.56,2.12,0,.279.28.439.66.439,1.06,0,.39-.16.78-.439,1.06-.28.28-.67.44-1.061.44Z"/>
    <path d="M69.29,76.21c-.79-.26-1.21-1.11-.95-1.89h0c.26-.79,1.11-1.21,1.9-.95h0c.79.26,1.21,1.11.949,1.9h0c-.21.63-.8,1.02-1.43,1.02h0c-.149,0-.31-.02-.47-.08ZM61.75,73.25c-.75-.35-1.08-1.24-.74-1.99h0c.34-.75,1.23-1.09,1.99-.74h0c.75.34,1.08,1.23.74,1.98h0c-.25.56-.801.88-1.37.88h0c-.2,0-.42-.04-.62-.13ZM54.57,69.49c-.71-.42-.94-1.34-.521-2.05h0c.42-.72,1.34-.95,2.05-.53h0c.721.42.95,1.34.53,2.06h0c-.28.47-.78.73-1.29.73h0c-.27,0-.53-.07-.77-.21ZM47.84,64.99c-.67-.5-.8-1.44-.31-2.1h0c.5-.66,1.439-.8,2.1-.3h0c.67.49.8,1.43.31,2.1h0c-.3.39-.75.6-1.21.6h0c-.31,0-.619-.1-.89-.3ZM41.61,59.81c-.61-.56-.65-1.51-.08-2.12h0c.56-.61,1.51-.65,2.12-.08h0c.6.56.64,1.5.079,2.11h0c-.29.32-.699.49-1.1.49h0c-.36,0-.729-.14-1.02-.4ZM35.95,54.02v.01c-.55-.62-.49-1.57.13-2.12h0c.609-.55,1.56-.5,2.109.12h0v.01h0c.551.62.49,1.56-.13,2.11h0c-.279.26-.64.38-.989.38h0c-.41,0-.83-.17-1.12-.51ZM30.88,47.71c-.49-.67-.33-1.61.34-2.09h0c.67-.49,1.601-.34,2.09.33h0c.49.67.341,1.61-.33,2.1h0c-.27.19-.579.28-.88.28h0c-.47,0-.92-.21-1.22-.62ZM26.46,40.93c-.42-.71-.18-1.63.54-2.05h0c.71-.42,1.63-.18,2.05.54h0c.42.72.17,1.64-.54,2.05h0c-.24.14-.5.21-.75.21h0c-.52,0-1.02-.27-1.3-.75Z"/>
    <path d="M77.43,78.42c-.1,0-.2-.01-.3-.03-.09-.02-.19-.05-.28-.08-.09-.04-.17-.09-.26-.14-.08-.06-.15-.12-.22-.19-.07-.07-.141-.15-.19-.23-.06-.08-.1-.17-.14-.26s-.061-.18-.08-.28c-.021-.09-.03-.19-.03-.29s.01-.2.03-.29c.02-.1.04-.19.08-.28s.08-.18.14-.26c.05-.09.12-.16.19-.23.069-.07.14-.13.22-.19.09-.05.17-.1.26-.14.09-.03.19-.06.28-.08.2-.04.4-.04.59,0,.101.02.19.05.28.08.09.04.18.09.26.14.08.06.16.12.23.19.069.07.13.14.18.23.06.08.1.17.14.26s.07.18.091.28c.01.09.029.19.029.29s-.02.2-.029.29c-.021.1-.051.19-.091.28s-.08.18-.14.26c-.05.08-.11.16-.18.23-.28.28-.67.44-1.061.44Z"/>
  </g>
  <path d="M24.065,90.842h13.904c.254,0,.972.449,1.151.654,1.103,1.264.17,3.179-1.45,3.237l-25.997.013c-1.033-.028-1.942-.389-2.779-.977-1.67-1.843-3.609-3.588-5.236-5.454-1.284-1.474-1.472-2.866-.144-4.408l22.065-22.067c.495-.373,1.253-.408,1.737,0l11.846,11.846c.415.409.469,1.014.228,1.532-4.037,4.241-8.262,8.362-12.363,12.557-.993,1.015-2.072,1.965-2.963,3.068ZM16.094,77.866c-.41-.368-.701-.439-1.166-.097l-7.731,7.726c-.237.354-.383.546-.136.935l4.198,4.397h7.554s4.314-4.281,4.314-4.281c.367-.435.596-.69.215-1.23-2.48-2.319-4.742-5.197-7.249-7.45Z"/>
</svg>