<?xml version="1.0" encoding="UTF-8"?>
<svg id="Layer_1" data-name="Layer 1" xmlns="http://www.w3.org/2000/svg" viewBox="0 0 100 100">
  <path d="M93.74,17.18H6.659c-1.462,0-2.807.494-3.891,1.316-1.557,1.18-2.568,3.044-2.568,5.143v55.385c0,3.562,2.898,6.459,6.46,6.459h87.081c1.462,0,2.807-.494,3.891-1.316,1.556-1.18,2.568-3.043,2.568-5.143V23.639c0-3.562-2.898-6.459-6.46-6.459ZM7.695,81.763h-1.035c-1.51,0-2.739-1.228-2.739-2.738V23.639c0-1.51,1.229-2.738,2.738-2.738h87.081c1.511,0,2.739,1.228,2.739,2.738v55.385c0,1.51-1.228,2.738-2.738,2.738H7.695Z"/>
  <g>
    <path d="M35.803,52.55c-.588-1.143-1.406-2.099-2.459-2.866-.694-.505-1.475-.9-2.325-1.203,1.038-.475,1.902-1.128,2.573-1.979.948-1.203,1.421-2.663,1.421-4.378s-.353-3.166-1.061-4.355c-.706-1.188-1.751-2.083-3.135-2.685-1.384-.601-3.085-.903-5.099-.903h-12.178c-.552,0-1,.448-1,1v29.59c0,.552.448,1,1,1h12.628c1.654,0,3.13-.203,4.423-.609s2.397-1,3.315-1.783c.918-.782,1.611-1.752,2.077-2.91.465-1.158.701-2.489.701-3.994,0-1.474-.295-2.783-.881-3.926ZM17.414,39.876c0-.552.448-1,1-1h6.491c1.684,0,2.977.361,3.881,1.083.903.722,1.354,1.76,1.354,3.114,0,.812-.203,1.534-.608,2.166-.408.632-.963,1.128-1.671,1.489-.706.361-1.511.541-2.414.541h-7.031c-.552,0-1-.448-1-1v-6.393ZM31.019,58.936c-.468.707-1.128,1.241-1.987,1.602-.856.361-1.901.542-3.135.542h-7.484c-.552,0-1-.448-1-1v-7.116c0-.552.448-1,1-1h7.259c1.233,0,2.302.173,3.203.519.903.347,1.604.851,2.099,1.512.495.662.746,1.46.746,2.392,0,.993-.235,1.843-.701,2.55Z"/>
    <path d="M48.792,56.506l-3.874-9.515c-.153-.377-.52-.623-.926-.623h-1.481c-.716,0-1.2.73-.921,1.389l6.479,15.322c.156.37.519.611.921.611h1.128c.395,0,.754-.233.914-.594l6.8-15.322c.293-.661-.191-1.406-.914-1.406h-1.299c-.401,0-.763.24-.92.609l-4.059,9.544c-.348.818-1.511.809-1.846-.014Z"/>
    <path d="M85.71,65.804c.774.006,1.261-.831.873-1.501l-6.468-11.169c.382-.162.755-.347,1.117-.561,1.504-.887,2.707-2.068,3.608-3.543.903-1.474,1.356-3.069,1.356-4.784,0-1.895-.453-3.602-1.356-5.122-.901-1.519-2.112-2.723-3.633-3.61-1.519-.887-3.18-1.332-4.986-1.332h-12.448c-.552,0-1,.448-1,1v29.59c0,.552.448,1,1,1h2.874c.552,0,1-.448,1-1v-9.869c0-.552.448-1,1-1h5.63c.361,0,.694.195.871.509l6.115,10.855c.176.312.505.506.864.509l3.583.027ZM67.647,39.876c0-.552.448-1,1-1h6.764c1.111,0,2.112.226,3,.677s1.579,1.076,2.077,1.873c.495.797.746,1.723.746,2.775,0,.933-.198,1.783-.588,2.55-.39.767-.933,1.369-1.624,1.805-.693.436-1.476.654-2.347.654h-8.027c-.552,0-1-.448-1-1v-8.334Z"/>
  </g>
</svg>