<?xml version="1.0" encoding="UTF-8"?>
<svg id="Layer_1" data-name="Layer 1" xmlns="http://www.w3.org/2000/svg" xmlns:xlink="http://www.w3.org/1999/xlink" viewBox="0 0 100 100">
  <defs>
    <style>
      .cls-1 {
        fill: none;
        stroke: #000;
        stroke-linecap: round;
        stroke-linejoin: round;
        stroke-width: 4px;
      }

      .cls-2 {
        fill: url(#linear-gradient);
      }
    </style>
    <linearGradient id="linear-gradient" x1="66.077" y1="6.791" x2="50.059" y2="61.663" gradientUnits="userSpaceOnUse">
      <stop offset=".314" stop-color="#303030"/>
      <stop offset=".537" stop-color="#303030" stop-opacity=".756"/>
      <stop offset=".935" stop-color="#303030" stop-opacity=".108"/>
      <stop offset=".994" stop-color="#303030" stop-opacity="0"/>
    </linearGradient>
  </defs>
  <path class="cls-2" d="M13.956,31.93v-6.419c0-.836.678-1.514,1.514-1.514h6.367c.836,0,1.514.678,1.514,1.514v8.246c0,.836.678,1.514,1.514,1.514h4.462c.836,0,1.514-.678,1.514-1.514v-2.61c0-.836.678-1.514,1.514-1.514h3.87c.836,0,1.514.678,1.514,1.514v10.125c0,.836.678,1.514,1.514,1.514h3.931c.836,0,1.514-.678,1.514-1.514v-2.818c0-.836.678-1.514,1.514-1.514h5.273c.836,0,1.514.678,1.514,1.514v5.323c0,.836.678,1.514,1.514,1.514h4.906c.836,0,1.514.678,1.514,1.514v4.488c0,.836.678,1.514,1.514,1.514h4.28c.836,0,1.514.678,1.514,1.514v4.906c0,.836.678,1.514,1.514,1.514h4.071c.836,0,1.514-.678,1.514-1.514v-1.774c0-.836.678-1.514,1.514-1.514h3.862c.836,0,1.514-.678,1.514-1.514v-4.071c0-.836.678-1.514,1.514-1.514h6.326c.836,0,1.514.678,1.514,1.514v29.142H13.956V31.93Z"/>
  <path d="M100,23.64v55.39c0,3.56-2.9,6.46-6.46,6.46h-44.56c-1.03,0-1.86-.83-1.86-1.86s.83-1.86,1.86-1.86h44.56c1.51,0,2.74-1.23,2.74-2.74V23.64c0-1.51-1.23-2.74-2.74-2.74H6.46c-1.51,0-2.74,1.23-2.74,2.74v47.4c0,1.02-.83,1.86-1.86,1.86s-1.86-.84-1.86-1.86V23.64c0-3.56,2.9-6.46,6.46-6.46h87.08c3.56,0,6.46,2.9,6.46,6.46Z"/>
  <g>
    <path d="M88.25,63.13c-.36,0-.69-.13-.94-.38-.26-.25-.39-.59-.39-.95,0-.35.14-.69.39-.94.06-.06.12-.12.2-.16.069-.05.149-.09.229-.13.08-.03.16-.06.25-.07.17-.04.351-.04.521,0,.08.01.17.04.25.07.08.04.16.08.229.13.07.04.141.1.2.16.061.06.12.13.16.2.05.08.09.15.13.23.03.08.06.17.07.25.02.09.029.18.029.26,0,.36-.14.69-.39.95-.25.25-.59.38-.939.38Z"/>
    <path d="M74.96,62.48c-.73-.08-1.25-.74-1.171-1.48h0c.08-.73.74-1.25,1.471-1.17h.01c.73.09,1.25.74,1.17,1.48h0c-.08.67-.65,1.18-1.32,1.18h0c-.05,0-.1-.01-.159-.01ZM61.86,60.07c-.72-.18-1.149-.9-.96-1.62h0c.18-.71.9-1.14,1.62-.96h0c.71.19,1.14.91.96,1.62h0c-.16.61-.7,1-1.29,1h0c-.11,0-.22-.01-.33-.04ZM49.21,55.83c-.681-.28-1-1.06-.721-1.74h0c.29-.68,1.07-1,1.75-.71h0c.681.28,1,1.06.71,1.74h0c-.21.51-.71.82-1.229.82h0c-.17,0-.34-.04-.51-.11ZM37.32,49.77c-.63-.39-.819-1.21-.439-1.83h0c.38-.63,1.199-.83,1.83-.45h0c.63.39.829,1.2.439,1.83h0c-.25.42-.689.64-1.13.64h0c-.24,0-.48-.06-.7-.19ZM26.489,41.96c-.56-.48-.63-1.32-.149-1.88h0c.47-.56,1.319-.63,1.87-.15h0c.569.47.63,1.31.159,1.87h0c-.26.31-.64.47-1.02.47h0c-.3,0-.61-.1-.86-.31Z"/>
    <path d="M18.18,32.86c-.36,0-.69-.13-.94-.39-.26-.25-.399-.58-.399-.94,0-.08.01-.17.029-.26.021-.08.04-.17.07-.25.04-.08.08-.16.13-.23.05-.07.101-.14.16-.2s.13-.12.21-.17c.07-.04.15-.09.23-.12.08-.03.159-.06.25-.07.17-.04.34-.04.52,0,.08.01.16.04.24.07.08.03.16.08.229.12.08.05.15.11.21.17.061.06.11.13.16.2.05.07.09.15.13.23.03.08.051.17.07.25.021.09.03.18.03.26,0,.36-.141.69-.391.94-.13.13-.27.23-.439.29-.16.07-.33.1-.5.1Z"/>
    <path d="M25.57,30.02c-.359,0-.7-.14-.939-.39-.261-.25-.4-.58-.4-.94,0-.09.01-.18.03-.26.02-.09.04-.17.08-.25.029-.08.069-.16.12-.23.05-.08.1-.14.17-.21.489-.49,1.38-.49,1.88,0,.06.07.12.13.16.21.05.07.09.15.13.23.029.08.06.16.069.25.021.08.03.17.03.26,0,.17-.03.35-.1.51-.07.16-.17.3-.29.43-.25.25-.59.39-.94.39Z"/>
    <path d="M73.88,56.18c-.721-.11-1.23-.79-1.12-1.52h0c.109-.72.779-1.23,1.51-1.12h0c.73.11,1.23.78,1.12,1.51h0c-.09.66-.66,1.14-1.311,1.14h0c-.069,0-.13,0-.199-.01ZM59.97,52.92h0c-.7-.22-1.09-.97-.86-1.68h0c.23-.69.98-1.08,1.68-.85h0c.7.23,1.08.98.86,1.68h0c-.189.56-.71.92-1.27.92h0c-.13,0-.271-.02-.41-.07ZM46.81,47.33c-.65-.35-.89-1.15-.55-1.81h0c.35-.64,1.16-.89,1.8-.54h0c.65.34.9,1.15.55,1.8h0c-.24.45-.7.7-1.17.7h0c-.21,0-.43-.05-.63-.15ZM34.829,39.51h0c-.569-.45-.67-1.29-.22-1.87h0c.46-.57,1.29-.67,1.87-.22h0c.58.46.68,1.29.22,1.87h0c-.26.34-.649.51-1.04.51h0c-.29,0-.58-.09-.83-.29Z"/>
    <path d="M88.13,57.1c-.36,0-.69-.13-.94-.39-.25-.25-.39-.58-.39-.94,0-.35.14-.69.39-.94.061-.06.13-.12.2-.17.07-.04.149-.08.229-.12.08-.03.16-.06.25-.07.17-.04.351-.04.521,0,.08.01.17.04.25.07.08.04.16.08.229.12.07.05.141.11.2.17.061.06.12.13.17.2.04.08.09.15.12.23s.061.17.07.25c.02.09.03.18.03.26,0,.36-.141.69-.391.94-.25.26-.58.39-.939.39Z"/>
  </g>
  <path d="M86.911,59.33c-43.697,0-65.255-28.61-65.47-28.902-.175-.238-.124-.572.114-.748.235-.173.572-.124.747.114.212.288,21.477,28.467,64.608,28.467.423,0,.844-.003,1.271-.008h.007c.292,0,.531.235.534.528.004.295-.232.538-.527.542-.43.005-.858.008-1.284.008Z"/>
  <path class="cls-1" d="M5.92,82.533v4.026c0,2.073,1.996,3.754,4.458,3.754h24.483c2.462,0,4.458-1.681,4.458-3.754v-4.026"/>
  <g>
    <polyline class="cls-1" points="13.617 75.71 22.62 82.683 22.62 58.535"/>
    <polyline class="cls-1" points="31.623 75.71 22.62 82.683 22.62 58.535"/>
  </g>
</svg>