<?xml version="1.0" encoding="UTF-8"?>
<svg id="Layer_1" data-name="Layer 1" xmlns="http://www.w3.org/2000/svg" viewBox="0 0 100 100">
  <path d="M87.818,43.193c-.637-1.831-2.494-2.468-4.113-3.025-.743-.239-1.486-.504-1.964-.823l-1.725-4.405c.133-.478.451-1.114.717-1.725.77-1.566,1.539-3.211,1.035-4.697-.822-2.415-7.191-8.518-9.314-9.765l-.186-.106c-.451-.265-1.088-.663-1.911-.663h-.292c-.823.08-1.831.584-2.919,1.115-.637.318-1.698.849-2.123.929l-4.458-1.831c-.239-.451-.477-1.114-.69-1.778-.557-1.619-1.194-3.45-2.813-4.14-1.062-.451-3.264-.637-4.511-.717-.557,0-1.38-.027-2.361-.027-4.113,0-6.767.345-7.908,1.062-1.115.743-1.619,2.229-2.15,3.715-.239.69-.504,1.486-.796,1.937l-4.378,1.751c-.504-.133-1.168-.451-1.805-.77-1.221-.584-2.441-1.168-3.609-1.168-.372,0-.717.053-1.035.159-2.282.849-8.598,7.218-9.819,9.314-.212.425-.504.929-.61,1.513-.238,1.274.451,2.68,1.088,4.033.345.717.69,1.46.822,1.99l-1.831,4.379c-.451.239-1.088.451-1.671.637-1.672.584-3.53,1.221-4.193,2.839-1.088,2.574-.876,11.039-.265,13.454.531,2.176,2.68,2.919,4.405,3.503.663.239,1.3.451,1.778.717l1.778,4.432c-.133.451-.425,1.088-.717,1.672-.743,1.539-1.592,3.291-1.062,4.803.451,1.3,3.689,4.962,4.193,5.467.822.823,4.166,3.901,5.625,4.591.504.239,1.009.345,1.566.345,1.3,0,2.547-.637,3.609-1.194.69-.345,1.459-.743,1.884-.743.424.133,3.502,1.433,4.378,1.831.186.371.504,1.3.717,1.884.318.929.61,1.752.876,2.229.743,1.327,1.433,1.831,2.998,2.149,1.115.239,3.45.398,5.944.398,2.07,0,5.759-.106,7.271-.849,1.513-.717,2.07-2.494,2.547-4.06.186-.557.425-1.327.611-1.672l4.591-1.884c.451.159,1.062.425,1.619.716,1.353.637,2.707,1.274,3.874,1.274.292,0,.557-.027.823-.106.955-.318,2.893-1.911,3.954-2.839,1.327-1.168,5.493-5.254,6.369-7.351.663-1.592-.159-3.344-.902-4.856-.292-.584-.584-1.221-.743-1.725.398-.716.663-1.619.955-2.494.239-.77.478-1.539.717-1.937.186-.239,1.115-.557,1.752-.77,1.645-.531,3.715-1.194,4.378-3.131.876-2.601.876-10.986,0-13.587ZM82.617,54.233c-1.247.823-4.485,1.38-5.307,2.468-.504.663-1.114,3.078-1.539,4.113-.398,1.008-1.38,2.468-1.592,3.344-.451,1.698,1.38,4.113,1.911,5.758.08.717-5.042,5.52-5.971,6.183l-5.387-2.096c-1.167.292-2.096,1.061-3.184,1.539-1.353.531-3.45.982-4.538,1.592-1.353.717-1.911,3.98-2.654,5.334-2.786.77-5.785.584-8.598.133-.876-1.168-1.406-4.564-2.468-5.307-.769-.557-3.635-1.3-4.803-1.752-.822-.345-2.362-1.38-3.025-1.512-1.221-.186-4.087,1.725-5.387,2.07-.796,0-5.546-5.042-6.156-6.024l2.07-5.36c-.371-1.141-1.088-2.096-1.512-3.184-.531-1.327-1.009-3.45-1.592-4.538-.77-1.406-4.034-1.778-5.36-2.654-.77-2.786-.584-5.758-.133-8.598.319-.478,4.405-1.38,5.201-2.335.61-.743.982-2.76,1.406-3.768.504-1.247,2.096-3.848,1.911-4.962-.265-1.327-1.619-3.211-1.99-4.617-.08-.717,5.042-5.52,5.997-6.183l5.122,2.096c1.884-.584,3.662-1.539,5.493-2.282,1.3-.531,2.654-.398,3.396-1.778.372-.69,1.486-4.325,1.831-4.538.77-.08,1.566-.212,2.309-.265,2.096-.186,4.113-.027,6.183.265.796,1.3,1.353,4.485,2.468,5.307.77.557,3.158,1.168,4.272,1.592,1.008.425,2.176,1.3,3.185,1.539,1.671.398,4.14-1.353,5.758-1.937,2.388,1.645,4.325,3.821,6.157,6.024l-2.096,5.122c.531,1.937,1.566,3.636,2.335,5.493.531,1.353.345,2.574,1.778,3.397.717.425,4.299,1.486,4.511,1.831.451,2.839.451,5.652,0,8.492Z"/>
  <path d="M67.571,39.903c-3.689-6.395-10.27-10.19-17.621-10.19-.663,0-1.327,0-1.99.08-7.51.69-13.746,5.36-16.691,12.472-2.946,7.112-1.831,14.807,2.972,20.619,3.901,4.697,9.659,7.377,15.763,7.377,7.351,0,13.932-3.768,17.568-10.11,3.662-6.342,3.662-13.932,0-20.247ZM50.375,64.821c-19.212.61-20.274-29.058-.876-29.615,19.531-.531,20.274,29.031.876,29.615Z"/>
</svg>