<?xml version="1.0" encoding="UTF-8"?>
<svg id="Layer_1" data-name="Layer 1" xmlns="http://www.w3.org/2000/svg" viewBox="0 0 100 100">
  <defs>
    <style>
      .cls-1 {
        fill: none;
        stroke: #000;
        stroke-linecap: round;
        stroke-linejoin: round;
        stroke-width: 3px;
      }
    </style>
  </defs>
  <path d="M58.951,22.455H6.459c-1.51,0-2.738,1.228-2.738,2.738v47.393c0,1.027-.833,1.861-1.861,1.861s-1.861-.833-1.861-1.861V25.193c0-3.562,2.898-6.459,6.459-6.459h87.081c3.562,0,6.46,2.898,6.46,6.459v55.385c0,3.562-2.898,6.459-6.46,6.459h-45.56c-1.028,0-1.861-.833-1.861-1.86s.833-1.861,1.861-1.861h45.56c1.511,0,2.739-1.229,2.739-2.739V25.193c0-1.51-1.228-2.738-2.739-2.738h-34.589Z"/>
  <g>
    <path d="M28,27.29c-.1,0-.2-.01-.3-.03-.09-.02-.19-.05-.28-.09-.09-.03-.18-.08-.26-.13-.08-.06-.16-.12-.23-.19-.069-.07-.13-.15-.18-.23-.06-.08-.1-.17-.14-.26-.04-.09-.07-.18-.09-.28-.021-.09-.03-.19-.03-.29s.01-.2.03-.29c.02-.1.05-.19.09-.29.04-.09.08-.17.14-.25.05-.09.11-.16.18-.23.07-.07.15-.13.23-.19.08-.05.17-.1.26-.14.09-.03.19-.06.28-.08.49-.1,1.01.06,1.35.41.28.28.44.66.44,1.06,0,.1-.01.2-.03.29-.02.1-.04.19-.08.28-.04.09-.08.18-.14.26-.05.08-.12.16-.19.23-.06.07-.14.13-.22.19-.08.05-.17.1-.26.13-.09.04-.19.07-.28.09-.1.02-.2.03-.29.03Z"/>
    <path d="M79.509,58.22c-.819-.08-1.42-.82-1.34-1.64h0c.09-.83.82-1.43,1.65-1.34h0c.819.08,1.42.82,1.34,1.64h0c-.08.77-.73,1.35-1.49,1.35h0c-.05,0-.109,0-.16-.01ZM71.679,56.99c-.81-.18-1.33-.97-1.149-1.78h0c.17-.81.97-1.33,1.78-1.16h0c.81.18,1.319.98,1.149,1.78h0c-.149.71-.77,1.19-1.46,1.19h0c-.11,0-.21-.01-.32-.03ZM64.03,54.9c-.79-.26-1.21-1.11-.95-1.9h0c.26-.78,1.11-1.21,1.89-.94h0c.79.26,1.221,1.11.96,1.89h0c-.21.63-.8,1.03-1.43,1.03h0c-.16,0-.32-.03-.47-.08ZM56.65,51.97c-.75-.35-1.08-1.24-.73-1.99h0c.351-.75,1.24-1.08,1.99-.73h0c.75.35,1.08,1.24.729,1.99h0c-.25.55-.79.87-1.359.87h0c-.21,0-.42-.04-.63-.14ZM49.65,48.25c-.71-.43-.94-1.35-.511-2.06h0c.431-.71,1.351-.93,2.061-.51h0c.71.43.93,1.35.51,2.06h0c-.28.47-.78.73-1.29.73h0c-.26,0-.53-.07-.77-.22ZM43.09,43.8c-.66-.5-.79-1.44-.29-2.1h0c.5-.66,1.44-.79,2.101-.29h0c.66.5.79,1.44.29,2.1h0c-.301.39-.74.59-1.19.59h0c-.32,0-.64-.1-.91-.3ZM37.03,38.68c-.601-.56-.63-1.51-.07-2.12h0c.57-.6,1.521-.63,2.13-.07h0c.601.57.63,1.52.061,2.12h0c-.29.32-.69.48-1.09.48h0c-.37,0-.74-.14-1.03-.41ZM31.54,32.96c-.54-.62-.47-1.57.16-2.11h0c.62-.54,1.57-.48,2.11.15h0c.539.63.47,1.58-.16,2.12h0c-.28.24-.63.36-.971.36h0c-.42,0-.84-.17-1.14-.52Z"/>
    <path d="M87.429,58.62c-.39,0-.779-.16-1.06-.43-.28-.28-.44-.67-.44-1.07,0-.09.011-.19.03-.29.021-.09.05-.19.09-.28.04-.09.08-.18.141-.26.05-.08.109-.16.18-.23.56-.55,1.57-.55,2.12,0,.07.07.14.15.189.23.051.08.101.17.141.26.04.09.069.19.09.28.02.1.03.2.03.29,0,.4-.17.78-.45,1.07-.271.27-.66.43-1.061.43Z"/>
  </g>
  <g>
    <path d="M24.179,34.59c-.1,0-.199-.01-.3-.03-.09-.02-.189-.05-.28-.09-.09-.04-.17-.08-.25-.14-.09-.05-.159-.11-.229-.18-.07-.07-.13-.15-.19-.23-.05-.08-.1-.17-.14-.26-.03-.09-.06-.18-.08-.28-.02-.1-.03-.19-.03-.29,0-.4.16-.78.44-1.07.07-.06.14-.13.229-.18.08-.06.16-.1.25-.14.091-.04.19-.07.28-.09.49-.09,1.01.07,1.36.41.28.29.439.67.439,1.07,0,.1-.01.19-.029.29-.021.1-.051.19-.09.28-.03.09-.08.18-.131.26-.06.08-.119.16-.189.23-.28.28-.67.44-1.061.44Z"/>
    <path d="M69.29,76.21c-.79-.26-1.21-1.11-.95-1.89h0c.26-.79,1.11-1.21,1.9-.95h0c.78.26,1.21,1.11.95,1.9h0c-.21.63-.801,1.02-1.431,1.02h0c-.16,0-.319-.02-.47-.08ZM61.75,73.25c-.75-.35-1.08-1.24-.74-1.99h0c.34-.75,1.24-1.09,1.99-.74h0c.75.34,1.08,1.23.74,1.98h0c-.25.56-.8.88-1.37.88h0c-.21,0-.42-.04-.62-.13ZM54.57,69.49c-.71-.42-.95-1.34-.521-2.05h0c.42-.72,1.34-.95,2.05-.53h0c.721.42.95,1.34.53,2.06h0c-.28.47-.78.73-1.29.73h0c-.26,0-.529-.07-.77-.21ZM47.84,64.99c-.67-.5-.8-1.44-.31-2.1h0c.5-.66,1.439-.8,2.1-.3h0c.67.49.8,1.43.311,2.1h0c-.301.39-.75.6-1.21.6h0c-.311,0-.631-.1-.891-.3ZM41.61,59.81c-.61-.56-.641-1.51-.08-2.12h0c.56-.61,1.51-.65,2.12-.09h0c.609.57.64,1.51.08,2.13h0c-.29.31-.7.48-1.101.48h0c-.359,0-.729-.14-1.02-.4ZM35.95,54.02c-.55-.61-.49-1.56.13-2.11h0c.61-.55,1.56-.49,2.11.13h0c.55.61.489,1.56-.13,2.11h0c-.28.26-.641.38-.99.38h0c-.41,0-.83-.17-1.12-.51ZM30.88,47.71c-.479-.67-.34-1.6.34-2.09h0c.67-.49,1.601-.34,2.091.33h0c.489.67.34,1.61-.33,2.1h0c-.271.19-.58.28-.881.28h0c-.47,0-.92-.21-1.22-.62ZM26.46,40.93c-.42-.71-.18-1.63.54-2.05h0c.71-.42,1.63-.17,2.05.54h0c.42.72.17,1.64-.54,2.05h0c-.239.14-.5.21-.76.21h0c-.51,0-1.01-.27-1.29-.75Z"/>
    <path d="M77.429,78.42c-.399,0-.779-.16-1.06-.44-.28-.28-.44-.67-.44-1.06,0-.4.16-.78.44-1.06.34-.35.86-.51,1.35-.41.101.02.19.05.28.08.09.04.18.09.26.14.08.06.16.12.23.19.28.28.439.67.439,1.06s-.159.78-.439,1.06c-.07.07-.15.13-.23.19-.08.05-.17.1-.26.13-.09.04-.18.07-.28.09-.1.02-.199.03-.29.03Z"/>
  </g>
  <path class="cls-1" d="M41.155,83.615v.01c0,6.401-5.035,11.636-11.357,11.955,4.048-.309,7.229-3.679,7.229-7.797v-.01c0-4.317-3.5-7.817-7.817-7.817h-8.435v4.766c0,.838-.977,1.296-1.625.778l-6.89-5.544-4.148-3.34c-.499-.399-.499-1.157,0-1.555l4.258-3.42,6.78-5.454c.648-.528,1.625-.06,1.625.778v4.676h8.405c6.611,0,11.975,5.364,11.975,11.975Z"/>
</svg>