<?xml version="1.0" encoding="UTF-8"?>
<svg id="Layer_1" data-name="Layer 1" xmlns="http://www.w3.org/2000/svg" viewBox="0 0 100 100">
  <defs>
    <style>
      .cls-1 {
        fill: #fff;
      }
    </style>
  </defs>
  <path class="cls-1" d="M93.54,18.734H6.459c-1.462,0-2.807.494-3.891,1.316C1.011,21.23,0,23.093,0,25.193v55.385C0,84.14,2.898,87.038,6.46,87.038h87.081c1.462,0,2.807-.494,3.891-1.316,1.556-1.18,2.568-3.043,2.568-5.143V25.193c0-3.562-2.898-6.459-6.46-6.459ZM7.495,83.317h-1.035c-1.51,0-2.739-1.228-2.739-2.738V25.193c0-1.51,1.229-2.738,2.738-2.738h87.081c1.511,0,2.739,1.228,2.739,2.738v55.385c0,1.51-1.228,2.738-2.738,2.738H7.495Z"/>
  <g>
    <path class="cls-1" d="M86.399,58.86c-.079,0-.159-.01-.239-.02-.08-.02-.16-.04-.24-.07-.07-.04-.14-.07-.21-.12-.07-.04-.13-.1-.19-.15-.229-.24-.37-.56-.37-.89,0-.32.141-.64.37-.88.061-.05.12-.11.19-.15.07-.05.14-.09.21-.12.08-.03.16-.05.24-.07.16-.03.319-.03.479,0,.08.02.16.04.24.07.07.03.15.07.21.12.07.04.13.1.19.15.229.23.369.56.369.88,0,.33-.14.65-.369.89-.061.05-.12.11-.19.15-.06.05-.14.08-.21.12-.08.03-.16.05-.24.07-.08.01-.16.02-.24.02Z"/>
    <path class="cls-1" d="M73.97,58.25c-.68-.08-1.17-.7-1.09-1.38h0c.07-.69.69-1.18,1.37-1.1h.01c.68.08,1.17.7,1.09,1.38h0c-.069.64-.609,1.11-1.229,1.11h0c-.05,0-.101-.01-.15-.01ZM61.71,56c-.66-.18-1.061-.85-.89-1.52h0c.17-.67.85-1.07,1.51-.9h0c.67.17,1.069.85.899,1.52h0c-.14.56-.649.94-1.21.94h0c-.1,0-.199-.02-.31-.04ZM49.89,52.03c-.64-.27-.939-1-.67-1.63h0c.271-.64.99-.93,1.63-.67h0c.63.27.931,1,.67,1.63h0c-.199.48-.67.77-1.149.77h0c-.16,0-.33-.03-.48-.1ZM38.769,46.36c-.59-.36-.779-1.13-.42-1.71h0c.36-.59,1.13-.78,1.721-.42h0c.579.36.77,1.13.409,1.71h0c-.239.39-.64.6-1.069.6h0c-.221,0-.44-.06-.641-.18ZM28.64,39.05c-.53-.44-.59-1.23-.149-1.76h0c.449-.52,1.239-.58,1.76-.14h0c.52.45.59,1.23.14,1.76h0c-.24.29-.6.44-.95.44h0c-.279,0-.569-.1-.8-.3Z"/>
    <path class="cls-1" d="M20.859,30.55c-.079,0-.17-.01-.25-.03-.079-.01-.159-.04-.229-.07-.08-.03-.15-.07-.22-.11-.061-.05-.13-.1-.181-.16-.06-.06-.109-.12-.159-.19-.04-.07-.08-.14-.11-.21-.03-.08-.061-.16-.07-.24-.02-.08-.03-.16-.03-.24s.011-.16.03-.24c.01-.08.04-.16.07-.24.03-.07.07-.14.11-.21.05-.07.1-.13.159-.19.051-.06.12-.11.181-.16.069-.04.14-.08.22-.11.07-.03.15-.06.229-.07.171-.03.33-.03.49,0,.08.01.16.04.23.07.08.03.149.07.22.11.07.05.13.1.19.16.06.06.109.12.149.19.05.07.09.14.12.21.03.08.05.16.07.24.02.08.02.16.02.24s0,.16-.02.24c-.021.08-.04.16-.07.24-.03.07-.07.14-.12.21-.04.07-.09.13-.149.19-.061.06-.12.11-.19.16-.07.04-.14.08-.22.11-.07.03-.15.06-.23.07-.08.02-.16.03-.24.03Z"/>
    <path class="cls-1" d="M27.769,27.89c-.08,0-.16-.01-.239-.03-.08-.01-.16-.04-.24-.07-.07-.03-.141-.07-.21-.11-.07-.05-.13-.1-.19-.16-.229-.23-.359-.55-.359-.88,0-.08,0-.16.02-.24.021-.08.04-.16.07-.24.029-.07.069-.14.12-.21.04-.07.09-.13.149-.19.061-.06.12-.11.19-.16.069-.04.14-.08.21-.11.08-.03.16-.06.24-.07.159-.03.319-.03.479,0,.08.01.16.04.24.07.07.03.14.07.21.11.07.05.13.1.189.16.061.06.11.12.16.19.04.07.08.14.11.21.03.08.06.16.07.24.02.08.029.16.029.24,0,.33-.14.65-.37.88-.229.23-.55.37-.88.37Z"/>
    <path class="cls-1" d="M72.96,52.35c-.68-.1-1.15-.73-1.05-1.41h0c.1-.68.729-1.15,1.42-1.05h-.01c.68.1,1.159.73,1.06,1.41h0c-.09.62-.63,1.07-1.23,1.06h0c-.06,0-.119,0-.189-.01ZM59.95,49.31h0c-.66-.21-1.011-.92-.801-1.57h0c.221-.65.921-1.01,1.57-.8h0c.66.22,1.01.92.8,1.57h0c-.17.53-.66.86-1.189.86h0c-.12,0-.25-.02-.38-.06ZM47.64,44.08h0c-.6-.33-.83-1.08-.51-1.69h0c.32-.61,1.08-.84,1.69-.51h0c.6.32.829,1.07.51,1.68h0c-.23.42-.66.66-1.101.66h0c-.199,0-.399-.05-.59-.14ZM36.439,36.76v.01c-.54-.43-.63-1.21-.21-1.75h0c.431-.54,1.21-.64,1.75-.21h0c.54.43.63,1.21.21,1.75h0c-.25.31-.609.47-.979.47h0c-.271,0-.54-.08-.771-.27Z"/>
    <path class="cls-1" d="M86.29,53.22c-.33,0-.65-.13-.88-.36-.061-.06-.11-.13-.16-.19-.04-.07-.08-.14-.11-.22-.03-.07-.06-.15-.069-.23-.021-.08-.03-.16-.03-.25,0-.32.14-.65.37-.88.46-.46,1.29-.46,1.76,0,.229.23.36.56.36.88,0,.09,0,.17-.021.25-.02.08-.04.16-.07.23-.029.08-.069.15-.119.22-.04.06-.091.13-.15.19-.061.05-.12.1-.19.15-.069.04-.14.08-.21.11-.08.04-.16.06-.239.08-.08.01-.16.02-.24.02Z"/>
  </g>
  <path class="cls-1" d="M85.151,55.302c-40.877,0-61.038-26.761-61.238-27.034-.164-.223-.116-.535.105-.699.223-.164.535-.117.699.106.198.269,20.09,26.626,60.434,26.626.396,0,.788-.002,1.187-.008h.007c.273,0,.496.22.5.494.004.276-.218.503-.493.506-.399.005-.805.008-1.2.008Z"/>
  <g>
    <path class="cls-1" d="M59.57,81.16c-.33,0-.65-.13-.881-.37-.229-.23-.359-.55-.359-.88,0-.08.01-.16.02-.24.021-.08.04-.16.07-.23.03-.08.07-.15.12-.22.04-.07.09-.13.149-.19.46-.46,1.301-.46,1.761,0,.06.06.109.12.159.19.04.07.08.14.11.22.04.07.061.15.08.23.01.08.021.16.021.24,0,.33-.131.65-.37.88-.23.24-.551.37-.88.37Z"/>
    <path class="cls-1" d="M48.109,76.84h0c-.63-.29-.899-1.03-.619-1.65h0c.29-.63,1.029-.9,1.659-.61h0c.62.29.9,1.02.61,1.65h0c-.21.46-.66.72-1.13.72h0c-.18,0-.36-.03-.521-.11ZM37.689,71.1c-.58-.38-.75-1.15-.369-1.73h0c.38-.57,1.149-.74,1.72-.36h0c.58.38.74,1.15.37,1.72h0c-.24.37-.641.57-1.051.57h0c-.229,0-.46-.07-.67-.2ZM28.25,63.82c-.51-.47-.55-1.25-.08-1.76h0c.46-.51,1.25-.55,1.76-.09h0c.51.47.54,1.26.08,1.77h0c-.25.26-.58.4-.92.4h0c-.3,0-.6-.11-.84-.32ZM20.14,55.07c-.42-.55-.319-1.33.22-1.75h0c.54-.43,1.33-.33,1.75.22h0c.421.54.32,1.32-.22,1.74h0c-.229.18-.5.27-.77.27h0c-.37,0-.73-.17-.98-.48ZM13.68,45.03c-.32-.61-.09-1.37.521-1.68h0c.609-.32,1.37-.09,1.68.52h0c.32.61.09,1.37-.521,1.68h0c-.189.1-.38.15-.579.15h0c-.45,0-.881-.25-1.101-.67Z"/>
    <path class="cls-1" d="M10.49,34.79c-.08,0-.16-.01-.24-.03-.08-.01-.16-.04-.23-.07-.069-.03-.149-.07-.22-.11-.06-.05-.13-.1-.18-.16-.061-.06-.11-.12-.16-.19-.05-.07-.08-.14-.11-.21-.04-.08-.06-.16-.08-.24-.01-.08-.02-.16-.02-.24s.01-.16.02-.24c.021-.08.04-.16.08-.24.03-.07.061-.14.11-.21.05-.07.1-.13.16-.19.05-.06.12-.11.18-.16.07-.04.15-.08.22-.11.07-.03.15-.06.23-.07.16-.04.33-.04.49,0,.08.01.159.04.229.07.08.03.15.07.22.11.061.05.131.1.19.16.05.06.11.12.15.19.05.07.09.14.119.21.03.08.051.16.07.24.01.08.021.16.021.24s-.011.16-.021.24c-.02.08-.04.16-.07.24-.029.07-.069.14-.119.21-.04.07-.101.13-.15.19-.06.06-.13.11-.19.16-.069.04-.14.08-.22.11-.07.03-.149.06-.229.07-.08.02-.16.03-.25.03Z"/>
    <path class="cls-1" d="M18.12,34.45c-.33,0-.65-.14-.88-.37-.061-.05-.11-.12-.15-.19-.05-.06-.09-.14-.12-.21-.03-.08-.06-.16-.07-.24-.02-.08-.029-.16-.029-.24,0-.32.14-.64.37-.88.06-.06.119-.11.189-.15.07-.05.141-.09.21-.12.08-.03.16-.05.24-.07.16-.03.32-.03.49,0,.069.02.149.04.229.07.07.03.15.07.21.12.07.04.141.09.19.15.06.06.109.12.16.19.04.07.08.14.109.22.03.07.061.15.07.23.02.08.03.16.03.24s-.011.16-.03.24c-.01.08-.04.16-.07.24-.029.07-.069.15-.109.21-.051.07-.101.14-.16.19-.23.23-.55.37-.88.37Z"/>
    <path class="cls-1" d="M49.71,71.08h0c-.62-.31-.86-1.06-.55-1.67h0c.3-.62,1.05-.87,1.67-.56h0c.609.31.859,1.06.55,1.68h0c-.22.43-.66.68-1.11.68h0c-.189,0-.38-.04-.56-.13ZM38.859,64.36c-.539-.42-.659-1.2-.239-1.75h0c.42-.55,1.2-.66,1.75-.24h0c.54.41.649,1.19.239,1.74h0c-.25.33-.619.5-1,.5h0c-.26,0-.52-.08-.75-.25ZM29.47,55.69h0c-.45-.51-.41-1.3.11-1.76h0c.51-.45,1.3-.41,1.76.11h0c.45.51.41,1.3-.11,1.75h0c-.239.22-.529.32-.83.32h0c-.34,0-.68-.14-.93-.42ZM21.99,45.33c-.351-.6-.141-1.36.449-1.71h0c.601-.34,1.36-.13,1.7.46h.01c.341.6.131,1.36-.46,1.7h0c-.199.12-.409.17-.619.17h0c-.431,0-.851-.22-1.08-.62Z"/>
    <path class="cls-1" d="M61.91,75.9c-.32,0-.641-.13-.88-.36-.051-.06-.11-.13-.15-.19-.05-.07-.09-.14-.12-.22-.03-.07-.05-.15-.07-.23-.01-.08-.02-.16-.02-.24,0-.33.13-.65.36-.89.46-.46,1.3-.46,1.76,0,.24.24.37.56.37.89,0,.08-.011.16-.021.24-.02.08-.04.16-.08.23-.029.08-.069.15-.109.22-.051.06-.101.13-.16.19-.23.23-.55.36-.88.36Z"/>
  </g>
  <path class="cls-1" d="M60.744,77.784c-.05,0-.1-.007-.149-.023C21.318,65.426,13.892,33.799,13.821,33.481c-.06-.27.11-.536.38-.596.27-.062.536.111.597.379.069.312,7.394,31.387,46.096,43.542.264.083.41.363.327.627-.066.213-.264.35-.477.35Z"/>
</svg>