<?xml version="1.0" encoding="UTF-8"?>
<svg id="Layer_1" data-name="Layer 1" xmlns="http://www.w3.org/2000/svg" viewBox="0 0 100 100">
  <defs>
    <style>
      .cls-1 {
        fill: #fff;
      }
    </style>
  </defs>
  <path class="cls-1" d="M93.54,18.734H6.459c-1.462,0-2.807.494-3.891,1.316C1.011,21.23,0,23.093,0,25.193v55.385C0,84.14,2.898,87.038,6.46,87.038h87.081c1.462,0,2.807-.494,3.891-1.316,1.556-1.18,2.568-3.043,2.568-5.143V25.193c0-3.562-2.898-6.459-6.46-6.459ZM7.495,83.317h-1.035c-1.51,0-2.739-1.228-2.739-2.738V25.193c0-1.51,1.229-2.738,2.738-2.738h87.081c1.511,0,2.739,1.228,2.739,2.738v55.385c0,1.51-1.228,2.738-2.738,2.738H7.495Z"/>
  <g>
    <path class="cls-1" d="M86.64,74.59c-.43,0-.85-.17-1.15-.48-.31-.3-.479-.72-.479-1.15,0-.11.01-.21.03-.32.02-.1.05-.21.09-.3.04-.1.09-.2.149-.29.061-.09.13-.17.21-.24.07-.08.15-.15.24-.21.09-.05.19-.11.29-.15.09-.04.2-.07.3-.09.21-.04.431-.04.641,0,.1.02.21.05.3.09.1.04.2.1.29.15.09.06.17.13.24.21.079.07.149.15.21.24.06.09.109.19.149.29.04.09.07.2.09.3.021.11.03.21.03.32,0,.43-.17.85-.479,1.15-.301.31-.721.48-1.15.48Z"/>
    <path class="cls-1" d="M71.22,73.34c-.891-.15-1.49-.99-1.34-1.88h0c.149-.89.989-1.49,1.88-1.34h0c.89.15,1.49.99,1.34,1.88h0c-.13.79-.82,1.36-1.6,1.36h0c-.091,0-.19-.01-.28-.02ZM56.239,69.47c-.85-.3-1.29-1.23-.989-2.08h0c.3-.85,1.229-1.3,2.079-.99h0c.851.3,1.29,1.23.99,2.08h0c-.229.67-.859,1.09-1.54,1.09h0c-.18,0-.359-.03-.54-.1ZM42.17,63.04c-.79-.44-1.061-1.44-.62-2.22h0c.45-.79,1.439-1.06,2.229-.62h0c.78.45,1.05,1.44.61,2.23h0c-.3.53-.85.82-1.42.82h0c-.271,0-.55-.06-.8-.21ZM29.4,54.31h0c-.7-.57-.81-1.6-.24-2.3h0c.57-.7,1.601-.8,2.301-.23h0c.699.56.8,1.59.239,2.29h0c-.33.4-.8.61-1.27.61h0c-.36,0-.73-.12-1.03-.37ZM18.21,43.64c-.601-.67-.54-1.7.13-2.3h0c.67-.6,1.7-.54,2.31.13h0c.601.67.54,1.7-.13,2.3h0c-.31.28-.7.42-1.09.42h0c-.45,0-.89-.19-1.22-.55Z"/>
    <path class="cls-1" d="M10.32,32.03c-.109,0-.21-.01-.319-.03-.101-.03-.21-.06-.301-.1-.1-.04-.199-.09-.29-.15-.08-.06-.17-.13-.239-.2-.08-.08-.15-.16-.21-.25-.061-.09-.11-.18-.15-.28-.04-.1-.07-.2-.09-.3-.021-.11-.03-.22-.03-.32,0-.11.01-.22.03-.32.02-.11.05-.21.09-.31.04-.1.09-.19.15-.28.06-.09.13-.17.21-.25.6-.61,1.689-.61,2.3,0,.08.08.149.16.21.25.06.09.11.18.149.28.04.1.07.2.091.31.02.1.029.21.029.32,0,.43-.17.85-.479,1.15-.3.3-.72.48-1.15.48Z"/>
    <path class="cls-1" d="M18.5,28.27c-.431,0-.851-.17-1.15-.48-.31-.3-.48-.72-.48-1.15s.171-.85.48-1.15c.07-.08.15-.15.24-.21s.189-.11.29-.15c.1-.04.199-.07.3-.09.54-.11,1.09.07,1.479.45.07.07.141.15.2.24.061.09.11.19.15.29.04.09.069.2.09.3.02.11.03.21.03.32s-.011.21-.03.32c-.021.1-.05.21-.09.3-.04.1-.09.2-.15.29-.06.08-.13.17-.21.24-.07.08-.149.15-.24.21-.09.05-.189.11-.279.15-.101.04-.21.07-.311.09-.1.02-.21.03-.319.03Z"/>
    <path class="cls-1" d="M70.13,64.67c-.88-.18-1.45-1.05-1.271-1.93h0c.19-.88,1.05-1.45,1.94-1.26h0c.88.18,1.439,1.05,1.26,1.93h0c-.16.77-.84,1.3-1.6,1.3h0c-.11,0-.221-.02-.33-.04ZM54.34,59.57c-.83-.36-1.19-1.33-.83-2.15h0c.37-.83,1.33-1.2,2.16-.83h0c.819.36,1.189,1.33.819,2.15h0c-.27.61-.859.97-1.489.97h0c-.221,0-.45-.04-.66-.14ZM39.949,51.33h.011c-.74-.52-.91-1.54-.391-2.27h0c.521-.74,1.54-.91,2.28-.39h0c.729.52.9,1.54.38,2.28h0c-.32.45-.82.68-1.33.68h0c-.33,0-.66-.1-.95-.3ZM27.42,40.51c-.62-.65-.601-1.69.04-2.31h0c.649-.63,1.68-.61,2.31.04h0c.63.65.6,1.68-.04,2.31h0c-.32.3-.729.46-1.13.46h0c-.43,0-.86-.17-1.18-.5Z"/>
    <path class="cls-1" d="M86.64,66.35c-.43,0-.85-.17-1.15-.47-.08-.08-.149-.16-.21-.25-.05-.09-.109-.19-.149-.28-.04-.1-.07-.2-.09-.31-.021-.1-.03-.21-.03-.32,0-.43.17-.85.479-1.15.07-.08.15-.15.24-.2.09-.06.19-.11.29-.16.09-.04.2-.07.3-.09.21-.04.431-.04.641,0,.1.02.21.05.3.09.1.05.2.1.29.16s.17.12.24.2c.31.3.479.72.479,1.15s-.17.85-.479,1.16c-.301.3-.721.47-1.15.47Z"/>
  </g>
  <path class="cls-1" d="M86.64,69.929C37.355,69.929,13.7,29.468,13.468,29.06c-.298-.521-.116-1.186.405-1.483s1.187-.116,1.483.405c.228.398,23.29,39.772,71.283,39.772.601,0,1.088.487,1.088,1.088s-.487,1.088-1.088,1.088Z"/>
</svg>