<?xml version="1.0" encoding="UTF-8"?>
<svg id="Layer_1" data-name="Layer 1" xmlns="http://www.w3.org/2000/svg" viewBox="0 0 100 100">
  <path d="M31.486,51.325c.03.03.05.06.06.1v-.12c-.02.02-.04.03-.06.02Z"/>
  <g>
    <g>
      <path d="M29.553,51.305v.12c-.01-.04-.03-.07-.06-.1.02.01.04,0,.06-.02Z"/>
      <path d="M29.493,51.325c.03.03.05.06.06.1v-.12c-.02.02-.04.03-.06.02Z"/>
    </g>
    <path d="M29.553,51.305v.12c-.01-.04-.03-.07-.06-.1.02.01.04,0,.06-.02Z"/>
  </g>
  <g>
    <path d="M48.494,24.004c-1.395,0-1.076-2.541-1.255-3.547-1.186-6.646-5.849-12.226-12.554-13.77-.977-.229-4.185-.448-4.623-.747-.767-.538-.448-1.694.498-1.903,1.604-.359,5.799.757,7.403,1.415,6.227,2.531,11.1,8.918,11.548,15.693.06.907.299,2.86-1.016,2.86Z"/>
    <path d="M32.124,22.559c-.239.339-.877,1.475-1.614,2.77-1.275,2.262-2.85,5.042-3.178,5.151-.309.11-.468,0-.717-.149-.219-.13-3.228-3.139-3.328-3.348-.149-.339-.189-.747.1-1.016l4.972-2.939,2.72-1.604c-.867-2.491,1.375-5.032,3.856-3.487,2.81,1.744.319,5.958-2.81,4.623Z"/>
    <path d="M42.227,23.964c-1.345-.03-1.096-2.242-1.325-3.288-.957-4.404-4.215-7.244-8.549-8.131-.608-.13-1.933.07-2.441-.438-.399-.399-.299-1.325.219-1.634,1.076-.638,4.474.349,5.669.847,3.796,1.604,6.676,5.47,7.363,9.506.159.917.578,3.178-.937,3.139Z"/>
    <path d="M38.56,38.402c-.389-2.999-4.284-9.356-6.377-11.608-.12-.13-.488-.578-.737-.578-.03,0-.06.01-.09.03l-1.096,2.272c1.375,1.704,2.77,3.537,3.836,5.45.697,1.265,2.033,3.428,1.335,4.793-.13.09-.309.13-.518.13-1.644,0-5.181-2.581-6.138-3.308-4.374-3.258-11.04-10.283-12.634-15.544-.528-1.754-.159-2.332.578-2.332,1.046,0,2.82,1.156,3.826,1.823,1.664,1.086,3.129,2.451,4.683,3.677l2.232-1.136c-1.076-1.245-2.561-2.501-3.916-3.507-1.744-1.305-5.281-3.806-7.931-3.806-.518,0-1.006.1-1.445.329-1.265.648-2.053,2.959-2.411,4.255-1.505,5.41-.209,10.841,2.8,15.165l-4.304,9.466C4.235,46.503,0,52.461,0,59.396,0,68.612,7.503,76.115,16.729,76.115c4.344,0,8.32-1.674,11.299-4.404.259-.249.518-.498.767-.757.269-.269.518-.558.757-.847,2.431-2.9,3.896-6.636,3.896-10.711s-1.465-7.812-3.896-10.721c-.239-.289-.488-.578-.757-.847-.249-.259-.508-.508-.767-.757-1.415-1.295-3.039-2.352-4.833-3.099l-1.345-2.959c1.475.797,3.049,1.415,4.683,1.823.608.149,1.365.299,2.192.408.279.05.578.08.877.11.359.04.717.07,1.086.09.369.02.737.03,1.106.03,1.126,0,2.242-.1,3.238-.359.688-.169,1.315-.418,1.843-.757.339-.219.648-.468.887-.767.668-.757.986-1.794.797-3.188ZM12.554,44.868c.199-.06.399-.11.598-.159-.07.04-.13.09-.199.159-2.421,1.913-4.314,4.534-5.47,7.503-1.196-.279-2.371-.628-3.527-1.046,1.953-3.089,5.002-5.43,8.599-6.457ZM3.149,52.76c1.255.448,2.521.827,3.796,1.146-.518,1.754-.797,3.597-.797,5.48v.229c-1.515-.239-3.019-.518-4.514-.867.08-2.142.618-4.165,1.515-5.988ZM4.902,68.772c-1.863-2.332-3.049-5.221-3.248-8.37,1.515.339,3.049.628,4.593.857.229,2.361.887,4.623,1.913,6.676-1.096.219-2.182.498-3.258.837ZM6.078,70.097c.957-.279,1.923-.508,2.899-.697,1.106,1.803,2.521,3.398,4.175,4.673-2.72-.658-5.161-2.063-7.074-3.976ZM15.922,73.993c-2.102-1.186-3.886-2.88-5.241-4.902,1.734-.269,3.487-.428,5.241-.448v5.351ZM15.922,67.028c-2.053.03-4.095.229-6.118.588-1.006-1.873-1.664-3.966-1.923-6.138,2.66.359,5.351.538,8.041.568v4.982ZM15.922,60.422c-2.73-.03-5.45-.219-8.15-.578-.02-.149-.02-.309-.02-.458,0-1.764.269-3.487.767-5.121,2.431.508,4.902.787,7.403.837v5.321ZM15.922,53.467c-2.302-.04-4.593-.289-6.845-.747,1.355-3.318,3.697-6.128,6.716-7.852.04-.04.09-.06.13-.07v8.669ZM12.345,43.254l3.318-7.294c1.086,1.305,2.341,2.481,3.717,3.487l1.724,3.806c-1.395-.389-2.86-.588-4.374-.588s-2.989.199-4.384.588ZM17.536,60.422v-5.321c2.491-.05,4.972-.329,7.393-.837.508,1.624.767,3.358.767,5.121,0,.149,0,.309-.02.458-2.7.359-5.42.548-8.14.578ZM25.567,61.478c-.259,2.182-.917,4.265-1.923,6.138-2.023-.369-4.065-.558-6.108-.588v-4.982c2.68-.03,5.371-.209,8.031-.568ZM17.536,53.467v-8.669c.04.01.08.03.12.07.04.01.08.03.12.07.149.07.289.159.428.259.189.11.379.229.558.369.179.12.359.249.528.389.399.299.777.618,1.136.967.12.1.229.209.339.319.159.149.309.309.448.468.12.13.239.259.349.389.199.229.389.458.568.697.229.289.448.588.648.897.02.02.03.05.05.07.179.269.349.538.508.827.05.09.11.179.149.269.149.249.289.508.409.767.14.269.259.538.369.817.05.09.09.179.13.279-2.262.458-4.554.707-6.855.747ZM17.536,68.642c1.754.02,3.497.179,5.231.448-1.345,2.023-3.129,3.726-5.231,4.892v-5.341ZM20.366,74.053c1.664-1.275,3.069-2.86,4.155-4.643.966.189,1.913.418,2.86.688-1.913,1.903-4.314,3.298-7.015,3.956ZM29.553,67.357c-.229.389-.488.757-.757,1.116-.08.1-.149.199-.239.299-.179-.06-.349-.11-.528-.159-.887-.259-1.784-.488-2.68-.668,1.006-2.043,1.654-4.304,1.883-6.686.269-.04.538-.08.797-.13.259-.04.508-.08.767-.13.249-.04.508-.09.757-.14.747-.14,1.495-.289,2.242-.458-.159,2.541-.957,4.912-2.242,6.955ZM30.3,52.76c.897,1.823,1.435,3.846,1.515,5.988-.747.179-1.505.339-2.262.468-.249.06-.508.11-.757.149-.259.05-.508.09-.767.13-.239.04-.478.08-.717.12v-.229c0-1.883-.279-3.726-.797-5.48.508-.13,1.016-.259,1.515-.409.259-.08.518-.149.767-.239.259-.08.508-.159.757-.239.249-.09.498-.169.747-.259ZM28.028,49.382c.279.299.528.608.767.927.249.329.478.668.697,1.016.02.01.04,0,.06-.02v.12c-.01-.04-.03-.07-.06-.1-.229.09-.468.169-.697.249-.259.08-.508.159-.767.229-.678.219-1.365.408-2.053.568-1.156-2.969-3.049-5.58-5.47-7.503-.06-.07-.13-.12-.189-.149.189.04.389.09.578.149,2.8.797,5.261,2.391,7.134,4.514ZM31.795,41.321c-1.515,0-3.298-.209-4.743-.578-2.471-.618-4.822-1.793-6.865-3.388-.508-.399-.986-.817-1.445-1.265l-.01-.01c-.648-.608-1.236-1.255-1.774-1.953-.11-.13-.209-.249-.289-.379-.199-.249-.369-.498-.538-.757-.179-.259-.349-.528-.518-.807-.02-.04-.05-.08-.07-.12-2.222-3.816-2.83-8.131-1.714-12.146.01-.04.02-.08.03-.12.06.309.14.598.219.867,1.793,5.909,8.918,13.282,13.401,16.64,4.215,3.149,6.168,3.647,7.044,3.727-.747.189-1.674.289-2.73.289Z"/>
  </g>
  <path d="M99.292,55.739c-.727-.947-1.933-1.485-3.298-1.485h-5.43v-2.561c0-2.541-2.072-4.613-4.613-4.613h-3.597l5.032-5.64c.588-.658.737-1.614.379-2.431-.369-.807-1.176-1.335-2.072-1.335h-3.388v-12.405c0-1.664-1.355-3.029-3.029-3.029h-9.366c-1.674,0-3.039,1.365-3.039,3.029v12.405h-3.388c-.887,0-1.704.528-2.063,1.335-.369.817-.219,1.774.379,2.431l5.032,5.64h-2.352c-.578,0-1.116-.309-1.405-.807l-2.571-4.454c-.817-1.425-2.351-2.312-3.996-2.312h-16.407c-.06,1.157-.447,2.16-1.153,2.989h17.56c.578,0,1.116.319,1.405.817l2.571,4.444c.817,1.425,2.352,2.312,3.996,2.312h5.022l2.83,3.169c.568.648,1.395,1.016,2.262,1.016.857,0,1.684-.369,2.262-1.016l2.83-3.169h6.267c.897,0,1.624.727,1.624,1.624v2.561h-45.156c-2.391,0-4.703,1.644-5.241,3.746l-6.417,24.79v-11.804c-.023.028-.042.058-.065.085-.259.309-.538.638-.837.937-.249.259-.518.518-.797.777-.416.381-.847.74-1.29,1.079v17.545c0,1.554.767,2.929,1.943,3.766.05.04.1.08.159.11.458.329.996.548,1.584.658.129.03.269.05.408.06.159.02.319.03.478.03h53.606c.189,0,.379-.01.568-.03,2.192-.239,4.175-1.784,4.683-3.726l8.679-33.519c.279-1.096.07-2.172-.588-3.019ZM78.298,47.08l-1.335,1.495-1.345,1.495-1.056,1.176-1.046-1.176-1.335-1.495-1.345-1.495-5.729-6.417h2.491c1.245,0,2.262-1.016,2.262-2.262l.05-13.172,9.406.04v13.132c0,1.245,1.016,2.262,2.262,2.262h2.491l-5.769,6.417ZM96.98,58.001l-6.417,24.79-1.495,5.779-.767,2.959c-.159.648-1.016,1.345-2.003,1.485-.12.02-.229.03-.349.03h-53.576c-.13,0-.239-.01-.339-.03-.179-.05-.359-.12-.508-.219-.03-.02-.06-.04-.08-.07-.04-.05-.13-.169-.06-.448l8.679-33.519c.189-.717,1.236-1.515,2.352-1.515h53.576c.508,0,.817.169.937.319.03.05.12.169.05.438Z"/>
</svg>