<?xml version="1.0" encoding="UTF-8"?>
<svg id="Layer_1" data-name="Layer 1" xmlns="http://www.w3.org/2000/svg" xmlns:xlink="http://www.w3.org/1999/xlink" viewBox="0 0 100 100">
  <defs>
    <style>
      .cls-1 {
        fill: url(#linear-gradient);
      }
    </style>
    <linearGradient id="linear-gradient" x1="67.56" y1="6.084" x2="53.394" y2="54.613" gradientUnits="userSpaceOnUse">
      <stop offset=".314" stop-color="#303030"/>
      <stop offset=".537" stop-color="#303030" stop-opacity=".756"/>
      <stop offset=".935" stop-color="#303030" stop-opacity=".108"/>
      <stop offset=".994" stop-color="#303030" stop-opacity="0"/>
    </linearGradient>
  </defs>
  <path class="cls-1" d="M21.465,28.317v-5.677c0-.739.599-1.339,1.339-1.339h5.631c.739,0,1.339.599,1.339,1.339v7.293c0,.739.599,1.339,1.339,1.339h3.947c.739,0,1.339-.599,1.339-1.339v-2.308c0-.739.599-1.339,1.339-1.339h3.423c.739,0,1.339.599,1.339,1.339v8.954c0,.739.599,1.339,1.339,1.339h3.476c.739,0,1.339-.599,1.339-1.339v-2.492c0-.739.599-1.339,1.339-1.339h4.663c.739,0,1.339.599,1.339,1.339v4.708c0,.739.599,1.339,1.339,1.339h4.339c.739,0,1.339.599,1.339,1.339v3.97c0,.739.599,1.339,1.339,1.339h3.785c.739,0,1.339.599,1.339,1.339v4.339c0,.739.599,1.339,1.339,1.339h3.6c.739,0,1.339-.599,1.339-1.339v-1.569c0-.739.599-1.339,1.339-1.339h3.416c.739,0,1.339-.599,1.339-1.339v-3.6c0-.739.599-1.339,1.339-1.339h5.595c.739,0,1.339.599,1.339,1.339v25.773H21.465V28.317Z"/>
  <path d="M92.007,77.765h-48.485c-.849,0-1.539-.689-1.539-1.539s.689-1.539,1.539-1.539h48.485c1.599,0,2.899-1.3,2.899-2.898V18.355c0-1.598-1.3-2.898-2.899-2.898H7.992c-1.598,0-2.898,1.3-2.898,2.898v49.827c0,.849-.689,1.539-1.539,1.539s-1.539-.689-1.539-1.539V18.355c0-3.294,2.68-5.975,5.975-5.975h84.014c3.296,0,5.976,2.68,5.976,5.975v53.435c0,3.294-2.68,5.975-5.976,5.975Z"/>
  <path d="M32.776,67.342h-.169v-4.614c0-5.578-4.539-10.117-10.117-10.117s-10.118,4.539-10.118,10.117v4.614h-.168c-1.501,0-2.718,1.217-2.718,2.718v14.841c0,1.501,1.217,2.718,2.718,2.718h20.572c1.501,0,2.719-1.217,2.719-2.718v-14.841c0-1.501-1.217-2.718-2.719-2.718ZM15.903,62.729c0-3.632,2.956-6.587,6.588-6.587s6.587,2.955,6.587,6.587v4.614h-13.175v-4.614Z"/>
</svg>