<?xml version="1.0" encoding="UTF-8"?>
<svg id="Layer_1" data-name="Layer 1" xmlns="http://www.w3.org/2000/svg" viewBox="0 0 100 100">
  <path d="M94.215,42.316c-.915-1.179-2.423-1.857-4.13-1.857h-6.76v-3.177c0-3.187-2.593-5.78-5.78-5.78h-4.45l6.251-6.996c.745-.839.933-2.037.471-3.055-.453-1.028-1.471-1.688-2.593-1.688h-4.215V4.309c0-2.103-1.707-3.809-3.8-3.809h-11.691c-2.103,0-3.809,1.707-3.809,3.809v15.453h-4.215c-1.113,0-2.131.66-2.593,1.688-.462,1.018-.273,2.216.471,3.055l6.251,6.996h-2.885c-.717,0-1.377-.377-1.735-.999l-3.206-5.553c-1.028-1.782-2.951-2.885-5.007-2.885H10.678c-3.187,0-5.78,2.593-5.78,5.78v59.023c0,1.857.886,3.517,2.253,4.563.905.792,2.15,1.226,3.526,1.226h42.231v2.084c0,2.621,2.14,4.761,4.771,4.761h28.795c2.621,0,4.761-2.14,4.761-4.761v-25.919c0-.49-.189-.971-.556-1.329l-1.009-1.009,5.28-20.375c.349-1.377.094-2.715-.735-3.79ZM87.464,94.739c0,.547-.443.99-.99.99h-28.795c-.547,0-.999-.443-.999-.99v-34.556c0-.547.453-.99.999-.99h18.263v7.713c0,2.027,1.603,3.687,3.611,3.79.066.009.132.009.198.009h7.713v24.033ZM81.439,63.587l1.886,1.886,1.452,1.452-1.452-.009h-1.886l-1.725-.009v-5.044l1.725,1.725ZM83.325,60.126l-1.886-1.886-1.886-1.886-.387-.387c-.358-.358-.849-.556-1.339-.547h-20.149c-2.631,0-4.771,2.131-4.771,4.761v28.691H10.678c-.415,0-.792-.123-1.113-.339h-.009c-.009-.019-.028-.028-.038-.047-.038-.057-.151-.198-.057-.537l10.833-41.844c.226-.886,1.518-1.876,2.913-1.876h66.877c.622,0,.999.207,1.15.396.038.057.151.198.066.528l-4.724,18.235-3.253-3.262ZM8.669,27.843c0-1.113.896-2.008,2.008-2.008h30.115c.717,0,1.377.377,1.735.999l3.206,5.553c1.028,1.782,2.951,2.885,5.007,2.885h6.261l3.526,3.951c.603.679,1.433,1.113,2.319,1.235H23.208c-2.998,0-5.883,2.065-6.572,4.695l-7.967,30.784V27.843ZM54.634,23.534c1.575,0,2.847-1.273,2.847-2.847l.038-16.415,11.72.038v16.377c0,1.575,1.282,2.847,2.847,2.847h3.064l-7.137,7.967-1.697,1.886-1.688,1.886-1.292,1.443-1.292-1.443-1.678-1.886-1.688-1.886-7.109-7.967h3.064ZM79.553,37.281v3.177h-15.67c.886-.123,1.707-.556,2.319-1.235l3.526-3.951h7.816c1.103,0,2.008.905,2.008,2.008Z"/>
  <polygon points="59.489 86.969 61.375 86.969 61.375 83.009 64.364 83.009 64.364 81.51 61.375 81.51 61.375 79.106 65.278 79.106 65.278 77.588 59.489 77.588 59.489 86.969"/>
  <rect x="66.608" y="77.588" width="1.886" height="9.381"/>
  <polygon points="69.851 79.106 72.35 79.106 72.35 86.969 74.226 86.969 74.226 79.106 76.725 79.106 76.725 77.588 69.851 77.588 69.851 79.106"/>
  <path d="M83.636,82.265c-.094-.075-.198-.132-.311-.189-.028-.009-.047-.028-.075-.038-.358-.17-.811-.33-1.367-.5-.047-.009-.085-.028-.132-.038-.113-.038-.217-.066-.311-.094-.302-.094-.537-.189-.726-.264-.245-.104-.453-.236-.622-.405-.16-.16-.245-.368-.245-.622,0-.358.113-.632.33-.82.217-.189.509-.283.877-.283.141,0,.273.009.387.038.255.038.462.141.632.283.132.104.226.226.292.358s.104.283.113.443h2.074c-.019-.283-.075-.547-.16-.783-.16-.481-.434-.877-.839-1.188-.075-.057-.151-.113-.226-.16-.141-.094-.302-.17-.462-.245-.415-.17-.886-.273-1.424-.292-.075-.009-.16-.009-.245-.009-.613,0-1.16.104-1.641.302-.028.009-.057.019-.085.028-.5.217-.886.537-1.169.943-.273.415-.415.896-.415,1.452,0,.594.141,1.065.405,1.424.273.349.603.613.99.792.085.038.179.075.273.123.33.132.735.264,1.207.405.255.075.481.141.679.207v.123l.028-.113c.132.038.245.085.349.123.255.104.471.245.641.424s.255.405.255.688c0,.339-.132.613-.377.83-.226.189-.519.283-.896.302-.047.009-.094.009-.141.009-.16,0-.302-.019-.434-.047-.226-.047-.424-.151-.585-.292-.245-.217-.377-.528-.405-.915h-2.018c.009.575.17,1.075.471,1.499.302.405.707.726,1.226.952.009,0,.009.009.019.009.283.123.575.207.896.264.273.047.566.075.867.075.028,0,.066,0,.094-.009.358,0,.688-.038.999-.123.255-.057.481-.141.698-.255.066-.038.132-.075.198-.113.405-.236.717-.537.943-.915.255-.424.387-.896.387-1.395,0-.585-.132-1.056-.415-1.414-.179-.226-.377-.424-.603-.575Z"/>
</svg>