<?xml version="1.0" encoding="UTF-8"?>
<svg id="Layer_1" data-name="Layer 1" xmlns="http://www.w3.org/2000/svg" xmlns:xlink="http://www.w3.org/1999/xlink" viewBox="0 0 100 100">
  <defs>
    <style>
      .cls-1 {
        stroke: #000;
        stroke-linecap: round;
        stroke-miterlimit: 10;
        stroke-width: 1.063px;
      }

      .cls-2 {
        fill: url(#linear-gradient);
      }
    </style>
    <linearGradient id="linear-gradient" x1="68.201" y1="12.337" x2="53.518" y2="62.637" gradientUnits="userSpaceOnUse">
      <stop offset=".314" stop-color="#303030"/>
      <stop offset=".537" stop-color="#303030" stop-opacity=".756"/>
      <stop offset=".935" stop-color="#303030" stop-opacity=".108"/>
      <stop offset=".994" stop-color="#303030" stop-opacity="0"/>
    </linearGradient>
  </defs>
  <path class="cls-2" d="M20.423,35.381v-5.885c0-.766.621-1.387,1.387-1.387h5.837c.766,0,1.387.621,1.387,1.387v7.559c0,.766.621,1.387,1.387,1.387h4.091c.766,0,1.387-.621,1.387-1.387v-2.392c0-.766.621-1.387,1.387-1.387h3.548c.766,0,1.387.621,1.387,1.387v9.281c0,.766.621,1.387,1.387,1.387h3.603c.766,0,1.387-.621,1.387-1.387v-2.583c0-.766.621-1.387,1.387-1.387h4.833c.766,0,1.387.621,1.387,1.387v4.88c0,.766.621,1.387,1.387,1.387h4.497c.766,0,1.387.621,1.387,1.387v4.114c0,.766.621,1.387,1.387,1.387h3.923c.766,0,1.387.621,1.387,1.387v4.497c0,.766.621,1.387,1.387,1.387h3.732c.766,0,1.387-.621,1.387-1.387v-1.627c0-.766.621-1.387,1.387-1.387h3.54c.766,0,1.387-.621,1.387-1.387v-3.732c0-.766.621-1.387,1.387-1.387h5.799c.766,0,1.387.621,1.387,1.387v26.714H20.423v-43.602Z"/>
  <path d="M93.54,87.288h-38.56c-1.028,0-1.861-.833-1.861-1.86s.833-1.861,1.861-1.861h38.56c1.511,0,2.739-1.229,2.739-2.739V25.443c0-1.51-1.228-2.738-2.739-2.738h-1.035c-1.028,0-1.861-.833-1.861-1.861s.833-1.861,1.861-1.861h1.035c3.562,0,6.46,2.898,6.46,6.459v55.385c0,3.562-2.898,6.459-6.46,6.459Z"/>
  <path d="M1.861,74.697c-1.028,0-1.861-.833-1.861-1.861V25.443c0-3.562,2.898-6.459,6.459-6.459h52.492c1.028,0,1.861.833,1.861,1.861s-.833,1.861-1.861,1.861H6.459c-1.51,0-2.738,1.228-2.738,2.738v47.393c0,1.027-.833,1.861-1.861,1.861Z"/>
  <g>
    <path d="M85.947,37.933c-.88,0-1.595-.714-1.595-1.595V12.003h-24.335c-.88,0-1.595-.714-1.595-1.595s.714-1.595,1.595-1.595h25.93c.88,0,1.595.714,1.595,1.595v25.929c0,.881-.714,1.595-1.595,1.595Z"/>
    <path d="M91.575,32.306h-25.93c-.88,0-1.595-.714-1.595-1.595V4.781c0-.881.714-1.595,1.595-1.595s1.595.714,1.595,1.595v24.335h24.335c.88,0,1.595.714,1.595,1.595s-.714,1.595-1.595,1.595Z"/>
  </g>
  <g>
    <path d="M48.997,60.492c-.072,0-.144-.015-.214-.045-.169-.074-.336-.151-.5-.23-.265-.127-.376-.445-.249-.709.129-.265.446-.375.71-.249.154.074.308.145.467.215.269.118.391.432.273.7-.088.199-.282.318-.487.318Z"/>
    <path d="M54.295,35.009c-.744-.032-1.467-.021-2.19.032-.287.021-.51.276-.489.563.011.287.245.5.521.5h.042c.681-.053,1.361-.053,2.063-.032.266.021.542-.213.564-.51.011-.287-.223-.532-.51-.553ZM59.643,35.838c-.712-.181-1.425-.34-2.116-.468-.287-.053-.564.149-.617.436-.053.287.138.564.425.617.67.117,1.361.266,2.041.447.043.011.085.011.138.011.234,0,.446-.159.51-.393.074-.287-.096-.574-.383-.649ZM49.511,35.955c-.074-.287-.372-.447-.648-.362-.734.202-1.435.468-2.073.787-.266.128-.372.447-.245.712.096.191.276.298.478.298.074,0,.159-.021.234-.053.585-.287,1.223-.532,1.892-.723.287-.085.446-.372.361-.659ZM64.735,37.656c-.649-.298-1.329-.585-1.999-.84-.276-.096-.574.043-.68.319-.106.266.032.574.308.68.649.245,1.297.521,1.924.808.074.032.149.043.223.043.202,0,.393-.106.489-.308.117-.266,0-.574-.266-.702ZM44.812,38.316c-.202-.213-.542-.223-.755-.021-.542.51-1.053,1.053-1.488,1.616-.191.234-.149.563.085.744.096.085.213.117.33.117.149,0,.308-.064.415-.202.415-.521.883-1.031,1.382-1.499.223-.202.234-.542.032-.755ZM69.413,40.378c-.564-.415-1.18-.819-1.807-1.201-.245-.149-.574-.074-.734.181-.149.255-.064.574.181.734.606.361,1.191.755,1.733,1.148.096.074.202.106.319.106.159,0,.319-.074.425-.223.17-.234.117-.563-.117-.744ZM73.272,44.248c-.33-.478-.659-.893-.999-1.297-.117-.138-.245-.276-.383-.415-.202-.213-.542-.223-.755-.021s-.213.542-.011.755c.117.128.245.266.351.383.33.393.638.797.925,1.212.106.149.276.223.436.223.106,0,.213-.032.308-.096.245-.17.298-.5.128-.744ZM41.548,42.473c-.266-.117-.585,0-.702.276-.308.67-.542,1.382-.712,2.094-.074.287.106.574.393.649.043.011.085.011.128.011.234,0,.457-.159.51-.404.159-.659.372-1.308.648-1.924.117-.266,0-.585-.266-.702ZM76.069,48.82c-.298-.489-.585-.989-.872-1.478l-.213-.351c-.149-.255-.468-.34-.723-.191s-.34.478-.191.723l.202.351c.298.5.585.999.883,1.499.096.159.276.255.457.255.096,0,.191-.032.276-.085.245-.149.33-.478.181-.723ZM41.144,50.127c-.149-.67-.245-1.35-.266-2.009-.011-.287-.245-.51-.532-.51h-.021c-.298.011-.521.255-.51.553.032.723.127,1.467.287,2.19.053.255.276.425.521.425.032,0,.074-.011.117-.021.287-.064.468-.34.404-.627ZM79.216,52.923c-.404-.404-.755-.787-1.074-1.191-.106-.117-.213-.234-.308-.362-.191-.223-.521-.255-.755-.074-.223.191-.255.521-.074.755.117.128.223.266.319.372.34.415.712.819,1.138,1.244.106.106.245.159.383.159.128,0,.266-.053.372-.159.202-.202.202-.542,0-.744ZM43.238,54.731c-.404-.553-.755-1.138-1.063-1.744-.138-.255-.457-.362-.712-.223-.266.128-.372.447-.234.712.33.649.712,1.286,1.148,1.882.106.138.266.223.436.223.106,0,.213-.043.308-.106.234-.17.287-.51.117-.744ZM83.16,56.453c-.51-.489-1.053-.957-1.605-1.435-.223-.191-.553-.159-.744.064-.191.223-.17.553.053.744.532.457,1.063.914,1.573,1.403.096.096.234.138.361.138.138,0,.287-.053.383-.159.202-.213.202-.553-.021-.755ZM46.938,58.239c-.574-.372-1.127-.797-1.627-1.244-.223-.191-.564-.17-.755.053-.191.213-.17.553.053.744.542.478,1.127.936,1.743,1.34.085.053.191.085.287.085.181,0,.351-.085.447-.245.159-.245.096-.574-.149-.734ZM86.339,60.94c-.266-.68-.595-1.35-.999-1.999-.17-.245-.489-.298-.723-.138-.255.149-.319.489-.159.734.351.564.649,1.159.893,1.786.074.213.276.34.489.34.064,0,.138-.011.202-.032.266-.106.404-.415.298-.691ZM87.104,64.172c-.021-.287-.287-.5-.574-.478-.298.032-.51.298-.478.585.032.34.053.691.053,1.031,0,.33-.021.67-.053.989-.021.298.191.553.478.585h.053c.276,0,.5-.202.532-.478.032-.362.053-.723.053-1.095s-.021-.755-.064-1.138ZM57.431,66.978l-.755-.457c-.245-.159-.574-.085-.723.17-.159.255-.085.574.17.734l.765.468c.085.053.181.074.266.074.181,0,.361-.096.457-.255.159-.255.074-.585-.181-.734ZM62.056,69.53c-.638-.319-1.265-.649-1.871-.978-.255-.138-.585-.043-.723.213s-.043.585.213.723c.617.34,1.255.67,1.903.989.074.043.159.064.234.064.191,0,.383-.117.478-.298.128-.266.021-.585-.234-.712ZM85.998,68.935c-.266-.117-.574,0-.702.266-.276.627-.627,1.191-1.031,1.69-.191.234-.149.564.074.755.096.074.223.117.34.117.149,0,.308-.064.404-.202.468-.574.872-1.212,1.191-1.914.117-.276,0-.585-.276-.712ZM66.862,71.646c-.649-.245-1.308-.51-1.946-.787-.266-.106-.585.011-.702.287-.117.266.011.574.287.691.649.287,1.318.553,1.988.808.064.021.128.032.191.032.213,0,.415-.128.5-.34.096-.276-.043-.585-.319-.691ZM71.88,73.155c-.67-.149-1.35-.319-2.031-.51-.287-.085-.574.085-.659.361-.074.287.085.574.372.659.702.202,1.403.383,2.094.521.032.011.074.021.106.021.245,0,.468-.181.521-.425.064-.287-.117-.574-.404-.627ZM82.681,72.974c-.128-.266-.457-.372-.712-.234-.574.287-1.201.51-1.871.649-.287.064-.468.351-.415.638.053.245.276.415.521.415.043,0,.074,0,.117-.011.755-.159,1.467-.415,2.126-.744.266-.128.372-.447.234-.712ZM77.036,73.697l-.298.011c-.574,0-1.17-.032-1.776-.085-.276-.021-.553.191-.574.489-.032.287.191.542.478.574.638.053,1.265.085,1.871.085l.308-.011c.298,0,.532-.245.521-.532,0-.298-.234-.532-.532-.532Z"/>
  </g>
  <g>
    <path d="M40.784,75.171c-.224-.644-.877-.868-1.446-1.064-.261-.084-.522-.177-.691-.289l-.606-1.549c.047-.168.159-.392.252-.606.271-.551.541-1.129.364-1.652-.289-.849-2.529-2.995-3.275-3.434l-.065-.037c-.159-.093-.383-.233-.672-.233h-.103c-.289.028-.644.205-1.027.392-.224.112-.597.299-.746.327l-1.568-.644c-.084-.159-.168-.392-.243-.625-.196-.569-.42-1.213-.989-1.456-.373-.159-1.148-.224-1.586-.252-.196,0-.485-.009-.83-.009-1.446,0-2.38.121-2.781.373-.392.261-.569.784-.756,1.306-.084.243-.177.523-.28.681l-1.54.616c-.177-.047-.411-.159-.635-.271-.429-.205-.859-.411-1.269-.411-.131,0-.252.019-.364.056-.802.299-3.023,2.538-3.453,3.275-.074.149-.177.327-.215.532-.084.448.159.942.383,1.418.121.252.243.513.289.7l-.644,1.54c-.159.084-.382.159-.588.224-.588.205-1.241.429-1.474.998-.382.905-.308,3.882-.093,4.731.187.765.942,1.026,1.549,1.232.233.084.457.159.625.252l.625,1.558c-.047.159-.149.383-.252.588-.261.541-.56,1.157-.373,1.689.159.457,1.297,1.745,1.474,1.922.289.289,1.465,1.372,1.978,1.614.177.084.355.121.551.121.457,0,.896-.224,1.269-.42.243-.121.513-.261.663-.261.149.047,1.232.504,1.54.644.065.131.177.457.252.662.112.327.215.616.308.784.261.467.504.644,1.054.756.392.084,1.213.14,2.09.14.728,0,2.025-.037,2.557-.299.532-.252.728-.877.896-1.428.065-.196.149-.467.215-.588l1.614-.662c.159.056.373.149.569.252.476.224.952.448,1.362.448.103,0,.196-.009.289-.037.336-.112,1.017-.672,1.39-.998.467-.411,1.932-1.848,2.24-2.585.233-.56-.056-1.176-.317-1.708-.103-.205-.205-.429-.261-.607.14-.252.233-.569.336-.877.084-.271.168-.541.252-.681.065-.084.392-.196.616-.271.578-.187,1.306-.42,1.54-1.101.308-.914.308-3.863,0-4.778ZM38.955,79.052c-.439.289-1.577.485-1.866.868-.177.233-.392,1.082-.541,1.446-.14.355-.485.868-.56,1.176-.159.597.485,1.446.672,2.025.028.252-1.773,1.941-2.1,2.174l-1.894-.737c-.411.103-.737.373-1.12.541-.476.187-1.213.345-1.596.56-.476.252-.672,1.4-.933,1.876-.98.271-2.034.205-3.023.047-.308-.411-.494-1.605-.868-1.866-.271-.196-1.278-.457-1.689-.616-.289-.121-.83-.485-1.064-.532-.429-.065-1.437.606-1.894.728-.28,0-1.95-1.773-2.165-2.118l.728-1.885c-.131-.401-.382-.737-.532-1.12-.187-.467-.355-1.213-.56-1.596-.271-.495-1.418-.625-1.885-.933-.271-.98-.205-2.025-.047-3.023.112-.168,1.549-.485,1.829-.821.215-.261.345-.97.494-1.325.177-.439.737-1.353.672-1.745-.093-.467-.569-1.129-.7-1.624-.028-.252,1.773-1.941,2.109-2.174l1.801.737c.662-.205,1.288-.541,1.932-.802.457-.187.933-.14,1.194-.625.131-.243.523-1.521.644-1.596.271-.028.551-.075.812-.093.737-.065,1.446-.009,2.174.093.28.457.476,1.577.868,1.866.271.196,1.11.411,1.502.56.355.149.765.457,1.12.541.588.14,1.456-.476,2.025-.681.84.579,1.521,1.344,2.165,2.118l-.737,1.801c.187.681.551,1.278.821,1.932.187.476.121.905.625,1.194.252.149,1.512.523,1.586.644.159.998.159,1.988,0,2.986Z"/>
    <path d="M33.664,74.013c-1.297-2.249-3.611-3.583-6.196-3.583-.233,0-.467,0-.7.028-2.641.243-4.834,1.885-5.869,4.386-1.036,2.501-.644,5.207,1.045,7.25,1.372,1.652,3.396,2.594,5.543,2.594,2.585,0,4.899-1.325,6.177-3.555,1.288-2.23,1.288-4.899,0-7.12ZM27.617,82.775c-6.756.215-7.129-10.218-.308-10.414,6.868-.187,7.129,10.208.308,10.414Z"/>
  </g>
  <g>
    <path d="M48.582,71.499c-.079-.35-.289-.646-.594-.833-.209-.13-.45-.198-.697-.198-.463,0-.884.232-1.126.622l-.019.031c-2.725-7.889-10.256-13.307-18.688-13.307-.538,0-1.084.022-1.621.067-9.343.765-16.903,8.092-17.982,17.483-.003.084-.004.159.006.239.081.71.68,1.246,1.394,1.246.054,0,.107-.003.162-.009.66-.076,1.182-.609,1.238-1.254.938-7.964,7.422-14.232,15.415-14.904.468-.039.932-.058,1.394-.058,7.078,0,13.428,4.465,15.882,11.01-.17-.077-.355-.117-.544-.117-.467,0-.889.237-1.122.625-.189.298-.251.652-.172.998.079.349.29.644.592.83l2.782,1.728c.214.125.452.19.69.19.05,0,.1-.002.145-.008l.178-.028.028-.014c.322-.083.597-.286.78-.581l1.706-2.763c.19-.298.253-.651.174-.997Z"/>
    <path d="M45.697,78.268c-.054,0-.107.003-.162.009-.632.073-1.145.574-1.229,1.197l-.02.072.006.057c-.968,7.942-7.44,14.181-15.409,14.842-.466.038-.93.058-1.391.058-7.088,0-13.442-4.471-15.89-11.023.174.083.364.126.558.126.463,0,.898-.247,1.133-.638.185-.298.242-.65.161-.995-.082-.347-.292-.641-.596-.828l-2.773-1.691c-.203-.134-.444-.205-.695-.205-.108,0-.218.014-.321.04-.342.084-.641.301-.818.593l-1.703,2.781c-.376.626-.187,1.426.448,1.831.204.121.438.185.676.185l.153-.009c.423-.048.783-.28.982-.624l.012-.02c2.729,7.877,10.255,13.288,18.675,13.288h0c.538,0,1.083-.022,1.615-.066.213-.016.414-.038.616-.061,9.036-1.036,16.34-8.346,17.369-17.412.005-.084.007-.168-.004-.26-.081-.71-.68-1.246-1.394-1.246Z"/>
  </g>
  <line class="cls-1" x1="50.914" y1="61.137" x2="51.827" y2="62.326"/>
  <line class="cls-1" x1="52.985" y1="63.794" x2="54.478" y2="65.47"/>
</svg>