<?xml version="1.0" encoding="UTF-8"?>
<svg id="Layer_1" data-name="Layer 1" xmlns="http://www.w3.org/2000/svg" viewBox="0 0 100 100">
  <g>
    <path d="M76.231,45.279c-.442-1.27-1.73-1.712-2.853-2.098-.515-.166-1.031-.35-1.362-.571l-1.196-3.055c.092-.331.313-.773.497-1.196.534-1.086,1.067-2.227.718-3.258-.57-1.675-4.988-5.908-6.461-6.773l-.129-.074c-.313-.184-.755-.46-1.325-.46h-.202c-.571.055-1.27.405-2.025.773-.442.221-1.178.589-1.472.644l-3.092-1.27c-.166-.313-.331-.773-.479-1.233-.386-1.123-.828-2.393-1.951-2.871-.736-.313-2.264-.442-3.129-.497-.386,0-.957-.018-1.638-.018-2.853,0-4.694.239-5.485.736-.773.515-1.123,1.546-1.491,2.577-.166.478-.35,1.031-.552,1.344l-3.037,1.215c-.35-.092-.81-.313-1.252-.534-.847-.405-1.693-.81-2.503-.81-.258,0-.497.037-.718.11-1.583.589-5.964,5.006-6.81,6.461-.147.294-.35.644-.423,1.049-.165.883.313,1.859.755,2.798.239.497.478,1.012.57,1.38l-1.27,3.037c-.313.166-.754.313-1.159.442-1.16.405-2.448.847-2.908,1.969-.754,1.785-.608,7.657-.184,9.332.368,1.509,1.859,2.025,3.055,2.43.46.166.902.313,1.233.497l1.233,3.074c-.092.313-.295.755-.497,1.16-.515,1.067-1.104,2.282-.736,3.331.313.902,2.558,3.442,2.908,3.792.57.571,2.89,2.706,3.902,3.184.35.166.7.239,1.086.239.902,0,1.767-.442,2.503-.828.479-.239,1.012-.515,1.307-.515.294.092,2.429.994,3.037,1.27.129.258.35.902.497,1.307.221.644.423,1.215.608,1.546.515.92.994,1.27,2.08,1.491.773.166,2.393.276,4.123.276,1.436,0,3.994-.074,5.043-.589,1.049-.497,1.436-1.73,1.767-2.816.129-.387.295-.92.424-1.16l3.184-1.307c.313.11.736.294,1.123.497.939.442,1.877.884,2.687.884.203,0,.387-.018.571-.074.663-.221,2.006-1.325,2.742-1.969.92-.81,3.81-3.644,4.417-5.098.46-1.104-.11-2.319-.626-3.368-.203-.405-.405-.847-.515-1.196.276-.497.46-1.123.663-1.73.166-.534.331-1.067.497-1.344.129-.166.773-.387,1.215-.534,1.141-.368,2.577-.828,3.037-2.172.608-1.804.608-7.62,0-9.424ZM72.624,52.936c-.865.571-3.111.957-3.681,1.712-.35.46-.773,2.135-1.068,2.853-.276.699-.957,1.712-1.104,2.319-.313,1.178.957,2.853,1.325,3.994.055.497-3.497,3.828-4.141,4.289l-3.736-1.454c-.81.202-1.454.736-2.209,1.067-.939.368-2.393.681-3.148,1.104-.938.497-1.325,2.761-1.841,3.7-1.932.534-4.013.405-5.964.092-.607-.81-.975-3.166-1.712-3.681-.534-.387-2.521-.902-3.331-1.215-.57-.239-1.638-.957-2.098-1.049-.847-.129-2.835,1.196-3.736,1.436-.552,0-3.847-3.497-4.27-4.178l1.435-3.718c-.257-.791-.754-1.454-1.049-2.209-.368-.92-.7-2.393-1.105-3.147-.534-.975-2.798-1.233-3.718-1.841-.534-1.933-.405-3.994-.092-5.964.221-.331,3.056-.957,3.608-1.62.423-.515.681-1.914.975-2.614.35-.865,1.454-2.669,1.325-3.442-.184-.92-1.123-2.227-1.38-3.203-.055-.497,3.497-3.828,4.16-4.289l3.552,1.454c1.307-.405,2.54-1.067,3.81-1.583.902-.368,1.841-.276,2.356-1.233.258-.479,1.031-3,1.27-3.147.534-.055,1.086-.147,1.601-.184,1.454-.129,2.853-.018,4.289.184.552.902.939,3.111,1.712,3.681.534.387,2.19.81,2.963,1.104.699.294,1.509.902,2.209,1.067,1.159.276,2.871-.939,3.994-1.344,1.657,1.141,3,2.65,4.27,4.178l-1.454,3.552c.368,1.344,1.086,2.522,1.62,3.81.368.939.239,1.785,1.233,2.356.497.295,2.982,1.031,3.129,1.27.313,1.969.313,3.92,0,5.89Z"/>
    <path d="M62.188,42.997c-2.559-4.436-7.123-7.068-12.222-7.068-.46,0-.92,0-1.38.055-5.209.479-9.534,3.718-11.577,8.651-2.043,4.933-1.27,10.271,2.061,14.301,2.706,3.258,6.7,5.117,10.933,5.117,5.098,0,9.663-2.614,12.185-7.013,2.54-4.399,2.54-9.663,0-14.044ZM50.26,60.28c-13.326.423-14.062-20.155-.607-20.541,13.547-.368,14.062,20.136.607,20.541Z"/>
  </g>
  <g>
    <path d="M91.614,38.037c-.156-.69-.57-1.273-1.171-1.643-.412-.256-.888-.391-1.375-.391-.913,0-1.743.458-2.221,1.227l-.037.062c-5.374-15.561-20.23-26.248-36.863-26.248-1.061,0-2.138.044-3.198.133-18.429,1.508-33.342,15.961-35.471,34.486-.006.166-.008.314.012.472.16,1.4,1.341,2.458,2.749,2.458.106,0,.212-.006.32-.017,1.302-.15,2.331-1.202,2.443-2.473,1.851-15.709,14.64-28.074,30.406-29.399.923-.077,1.838-.114,2.749-.114,13.962,0,26.486,8.807,31.327,21.717-.335-.152-.701-.231-1.073-.231-.921,0-1.753.468-2.213,1.233-.374.588-.495,1.287-.339,1.969.156.688.572,1.269,1.167,1.637l5.488,3.408c.422.247.892.376,1.362.376.098,0,.196-.004.285-.015l.351-.056.056-.027c.636-.164,1.177-.564,1.539-1.146l3.365-5.449c.376-.588.499-1.285.343-1.967Z"/>
    <path d="M85.924,51.39c-.106,0-.212.006-.32.017-1.246.144-2.258,1.133-2.425,2.362l-.039.143.012.112c-1.909,15.666-14.676,27.972-30.395,29.276-.919.075-1.834.114-2.743.114-13.981,0-26.515-8.819-31.343-21.744.343.164.719.248,1.1.248.913,0,1.772-.487,2.234-1.258.364-.588.478-1.283.318-1.963-.162-.684-.576-1.264-1.175-1.633l-5.471-3.336c-.401-.264-.876-.405-1.372-.405-.214,0-.43.027-.634.079-.674.166-1.264.593-1.614,1.169l-3.359,5.486c-.742,1.235-.368,2.812.884,3.612.403.239.865.364,1.333.364l.302-.017c.834-.094,1.545-.553,1.938-1.231l.023-.039c5.382,15.537,20.228,26.211,36.836,26.211h.002c1.061,0,2.136-.044,3.186-.131.42-.031.817-.075,1.215-.119,17.824-2.044,32.231-16.462,34.261-34.346.01-.166.013-.331-.008-.512-.16-1.4-1.341-2.458-2.749-2.458Z"/>
  </g>
</svg>