<?xml version="1.0" encoding="UTF-8"?>
<svg id="Layer_1" data-name="Layer 1" xmlns="http://www.w3.org/2000/svg" viewBox="0 0 100 100">
  <path d="M60.864,27.4h-17.656v-9.096c0-1.536-.864-2.896-2.248-3.56-1.384-.656-2.976-.464-4.152.496l-25.336,20.368c-.936.752-1.472,1.864-1.472,3.064s.536,2.32,1.472,3.064l25.344,20.4c1.184.952,2.784,1.128,4.168.472,1.368-.664,2.224-2.016,2.224-3.536v-9.304h17.728c8.992,0,16.304,7.312,16.304,16.328,0,8.48-6.624,15.624-15.08,16.272-.896.064-1.568.84-1.512,1.736.056.864.776,1.536,1.64,1.536h.08c15.496-.784,27.632-13.56,27.632-29.088v-.024c0-16.064-13.072-29.128-29.136-29.128ZM86.72,56.552c0,7.848-3.488,14.904-9.04,19.656,1.808-2.976,2.84-6.448,2.84-10.136,0-10.8-8.784-19.584-19.584-19.584h-19.368c-.904,0-1.64.736-1.64,1.64v10.944c0,.344-.232.512-.368.576-.112.056-.408.16-.696-.072l-25.344-20.4c-.208-.168-.24-.384-.24-.504,0-.112.032-.336.248-.504l25.344-20.384c.272-.216.544-.144.68-.072.144.064.376.232.376.592v10.736c0,.904.736,1.632,1.64,1.632h19.296c14.256,0,25.856,11.6,25.856,25.856v.024Z"/>
</svg>